<?xml version="1.0" encoding="UTF-8"?>
<svg id="Layer_1" data-name="Layer 1" xmlns="http://www.w3.org/2000/svg" version="1.1" viewBox="0 0 200 58.6">
  <defs>
    <style>
      .cls-1 {
        fill: #231f20;
        stroke-width: 0px;
      }
    </style>
  </defs>
  <path class="cls-1" d="M18.5,37.1c-1.4.5-3,.8-4.8.8-5.3,0-8-2.9-8-8.6s.7-5.2,2.2-6.9c1.6-1.9,3.9-2.8,6.9-2.8s2.4.2,3.6.5l-.5,4c-1.2-.4-2.2-.7-3.2-.7-1.4,0-2.5.5-3.2,1.5-.7,1-1.1,2.3-1.1,4,0,3.4,1.4,5.1,4.2,5.1s2.5-.3,3.5-.8l.4,3.9Z"/>
  <path class="cls-1" d="M35.3,19.5l-.2,4.5c-.4,0-.8-.1-1.1-.1-2.5,0-3.8,2.2-3.8,6.5v7.2h-4.5v-17.7h4.3c0,1.1-.1,2.3-.3,3.6h0c1.1-2.8,3-4.2,5.6-3.9Z"/>
  <path class="cls-1" d="M57.5,28.4c0,2.8-.8,5.1-2.5,6.8-1.7,1.8-3.9,2.7-6.5,2.7-5.5,0-8.2-3-8.2-8.9s.8-5.1,2.5-6.8c1.7-1.8,3.8-2.7,6.5-2.7s4.6.7,6,2.1c1.5,1.5,2.2,3.8,2.2,6.7ZM52.8,28.6c0-3.5-1.3-5.3-3.9-5.3s-2,.4-2.8,1.2c-.8.9-1.2,2.2-1.2,3.9,0,3.6,1.3,5.5,4,5.5s2.1-.5,2.9-1.4c.7-.9,1.1-2.3,1.1-4Z"/>
  <path class="cls-1" d="M75.6,32.1c0,1.8-.7,3.2-2.2,4.2-1.4,1.1-3.3,1.6-5.7,1.6s-2.3-.1-3.7-.3v-3.8c1.5.4,2.7.6,3.9.6,1.9,0,2.9-.6,2.9-1.9s-.6-1.5-1.8-2c-2-.8-3.1-1.3-3.4-1.5-1.2-.9-1.8-2.1-1.8-3.9s.6-3,1.9-4c1.4-1.1,3.2-1.7,5.6-1.7s2,.1,3.2.3v3.6c-1.2-.3-2.3-.4-3.4-.4-1.8,0-2.6.6-2.6,1.8s.6,1.4,1.9,1.9c2,.8,3.1,1.3,3.5,1.6,1.3.9,1.9,2.2,1.9,3.8Z"/>
  <path class="cls-1" d="M117.6,24.4c0,3.1-.8,5.6-2.4,7.3-1.6,1.8-4,2.7-7,2.7s-1.6,0-2.3-.1v8.5h-4.5v-26.3h4.2c0,1.2,0,2.2-.2,3h0c1.1-2.2,2.9-3.3,5.6-3.3s3.7.7,4.8,2.1c1.1,1.4,1.7,3.5,1.7,6.1ZM112.9,24.9c0-3.3-1-5-3-5s-2.1.6-2.8,1.8c-.7,1.1-1,2.4-1,4v4.9c.7.2,1.5.3,2.4.3,3,0,4.5-2,4.5-6Z"/>
  <path class="cls-1" d="M134.6,16.1l-.2,4.5c-.4,0-.8-.1-1.1-.1-2.5,0-3.8,2.2-3.8,6.5v7.2h-4.5v-17.7h4.3c0,1.1-.1,2.3-.3,3.6h0c1.1-2.8,3-4.2,5.6-3.9Z"/>
  <path class="cls-1" d="M146.2,11.4c0,.8-.3,1.4-.8,2-.6.5-1.2.8-2,.8s-1.4-.3-2-.8c-.5-.5-.8-1.2-.8-2s.3-1.4.8-1.9c.5-.5,1.2-.8,2-.8s1.5.3,2,.8c.6.5.8,1.2.8,1.9ZM145.6,34.2h-4.5v-17.7h4.5v17.7Z"/>
  <path class="cls-1" d="M169.5,34.2h-4.5v-11.3c0-2-.7-3-2.2-3s-2.1.6-2.9,1.7c-.8,1.1-1.2,2.5-1.2,4v8.5h-4.5v-17.7h4.3c0,1.2,0,2.3-.3,3.1h0c1.2-2.3,3.2-3.5,6-3.5s5.3,1.9,5.3,5.7v12.4Z"/>
  <path class="cls-1" d="M194.1,36.1c0,2-.9,3.6-2.6,5-1.8,1.4-4.2,2.1-7.1,2.1s-4.3-.4-5.6-1.3c-1.3-.9-2-2.2-2-3.9s.3-1.7.8-2.5c.5-.8,1.2-1.4,1.9-1.7-1.2-.6-1.7-1.5-1.7-2.7s.2-1.2.6-1.8c.4-.6.9-1,1.5-1.2-1.8-.9-2.6-2.5-2.6-4.9s.7-3.6,2.1-4.8c1.5-1.4,3.5-2,5.9-2s1.9.1,3.1.4h6v3.6h-2.4c.6.5.9,1.3.9,2.4,0,2-.7,3.6-2,4.7-1.3,1.2-3.2,1.7-5.6,1.7s-1.3,0-1.7-.2c-.6.2-.9.6-.9,1.1s.9,1.1,2.7,1.1h2.7c4,0,6,1.7,6,5.2ZM189.6,36.7c0-1.5-.9-2.2-2.8-2.2h-3.9c-1.1.6-1.6,1.4-1.6,2.5s.3,1.4,1,1.9c.7.5,1.6.7,2.7.7s2.6-.3,3.4-.8c.8-.5,1.1-1.2,1.1-2.1ZM188.5,22.6c0-1-.3-1.8-.9-2.4-.6-.6-1.4-.9-2.5-.9s-1.9.3-2.5.9c-.6.6-.9,1.4-.9,2.3s.3,1.7.9,2.3c.6.6,1.5.9,2.6.9s1.9-.3,2.5-.8c.6-.6.9-1.3.9-2.3Z"/>
  <path class="cls-1" d="M83.1,44.3c3.5-.5,12-1.8,12-1.8v-.7s-8.5-1.2-12-1.7c3.1-.4,10.2-1.5,11.7-1.7h.3s0,0,0,0h0V11.7h-14.6v26.6h9.1l-9.1,1.3v.7s8.6,1.2,12,1.7c-3.4.5-12,1.8-12,1.8v.7s5.1.7,9.3,1.3h-9.3v.7h0v4.3h14.6v-4.8h0v-.2s-8.5-1.2-12-1.7ZM82.4,33.8v-3.7c1.5.4,2.7.6,3.9.6,1.9,0,2.9-.6,2.9-1.9s-.6-1.5-1.8-2c-2-.8-3.1-1.3-3.4-1.5-1.2-.9-1.8-2.1-1.8-3.9s.6-3,1.9-4c1.4-1.1,3.2-1.7,5.6-1.7s2,.1,3.2.3v3.6c-1.2-.3-2.3-.4-3.4-.4-1.8,0-2.6.6-2.6,1.8s.6,1.4,1.9,1.9c2,.8,3.1,1.3,3.5,1.6,1.3.9,1.9,2.2,1.9,3.8s-.7,3.2-2.1,4.2c-1.4,1.1-3.3,1.6-5.7,1.6s-2.3-.1-3.7-.3Z"/>
</svg>