<?xml version="1.0" encoding="UTF-8"?><svg id="Layer_1" xmlns="http://www.w3.org/2000/svg" viewBox="0 0 188.57 42.3"><defs><style>.cls-1{fill:#fff;stroke-width:0px;}</style></defs><path class="cls-1" d="M12.81,28.38c-1.42.54-3.04.82-4.84.82-5.31,0-7.97-2.86-7.97-8.58,0-2.9.75-5.21,2.24-6.94,1.59-1.88,3.89-2.81,6.9-2.81,1.23,0,2.44.17,3.63.5l-.46,3.97c-1.16-.44-2.23-.67-3.2-.67-1.42,0-2.5.49-3.24,1.46-.74.98-1.1,2.32-1.1,4.04,0,3.4,1.4,5.11,4.2,5.11,1.38,0,2.54-.25,3.48-.76l.36,3.88Z"/><path class="cls-1" d="M29.61,10.8l-.23,4.48c-.4-.08-.77-.12-1.1-.12-2.54,0-3.81,2.16-3.81,6.48v7.23h-4.54V11.17h4.31c0,1.12-.11,2.31-.32,3.57h.07c1.09-2.84,2.96-4.16,5.62-3.94Z"/><path class="cls-1" d="M51.75,19.71c0,2.78-.84,5.06-2.52,6.85-1.68,1.79-3.85,2.69-6.51,2.69-5.5,0-8.25-2.96-8.25-8.89,0-2.77.84-5.05,2.51-6.83,1.67-1.78,3.85-2.67,6.52-2.67s4.59.71,6.01,2.13c1.49,1.52,2.24,3.76,2.24,6.72ZM47.08,19.95c0-3.5-1.3-5.25-3.89-5.25-1.12,0-2.05.41-2.78,1.24-.83.92-1.25,2.24-1.25,3.94,0,3.65,1.32,5.47,3.96,5.47,1.16,0,2.12-.47,2.85-1.4.74-.94,1.11-2.27,1.11-4Z"/><path class="cls-1" d="M69.89,23.42c0,1.75-.72,3.16-2.15,4.23-1.43,1.07-3.35,1.6-5.74,1.6-1.09,0-2.32-.11-3.69-.32l.11-3.75c1.37.37,2.63.55,3.79.55,1.91,0,2.87-.63,2.87-1.89,0-.8-.62-1.46-1.85-1.96-1.99-.81-3.14-1.32-3.44-1.53-1.23-.85-1.85-2.15-1.85-3.88,0-1.64.63-2.97,1.89-3.99,1.35-1.12,3.23-1.67,5.62-1.67.88,0,1.96.11,3.24.32l-.14,3.59c-1.07-.29-2.17-.43-3.29-.43-1.76,0-2.64.61-2.64,1.81,0,.76.63,1.4,1.89,1.92,1.97.81,3.14,1.34,3.49,1.6,1.26.9,1.89,2.17,1.89,3.8Z"/><path class="cls-1" d="M111.91,15.7c0,3.13-.78,5.56-2.35,7.31-1.64,1.8-3.97,2.7-6.99,2.7-.86,0-1.62-.05-2.28-.14v8.48h-4.54V7.78h4.24c0,1.19-.06,2.18-.18,2.97h.07c1.07-2.19,2.92-3.29,5.56-3.29,2.09,0,3.69.72,4.81,2.15,1.12,1.43,1.67,3.46,1.67,6.09ZM107.14,16.2c0-3.33-1.01-4.99-3.03-4.99-1.14,0-2.08.59-2.82,1.77-.67,1.09-1,2.42-1,4v4.89c.71.21,1.51.32,2.39.32,2.97,0,4.46-1.99,4.46-5.98Z"/><path class="cls-1" d="M128.87,7.41l-.23,4.48c-.4-.08-.77-.12-1.1-.12-2.54,0-3.81,2.16-3.81,6.48v7.23h-4.54V7.78h4.31c0,1.12-.11,2.31-.32,3.57h.07c1.09-2.84,2.96-4.16,5.62-3.94Z"/><path class="cls-1" d="M140.47,2.74c0,.76-.28,1.41-.84,1.96-.56.55-1.23.82-2.01.82s-1.45-.27-1.99-.82c-.55-.54-.82-1.2-.82-1.96s.27-1.4.82-1.94c.54-.53,1.21-.8,1.99-.8s1.45.27,2.01.8c.56.53.84,1.18.84,1.94ZM139.92,25.48h-4.54V7.78h4.54v17.69Z"/><path class="cls-1" d="M163.78,25.48h-4.5v-11.31c0-1.97-.73-2.95-2.19-2.95-1.15,0-2.13.56-2.94,1.69-.81,1.13-1.22,2.47-1.22,4.04v8.54h-4.54V7.78h4.31c0,1.24-.08,2.29-.25,3.15l.04.03c1.21-2.37,3.22-3.55,6.02-3.55,3.51,0,5.27,1.89,5.27,5.65v12.41Z"/><path class="cls-1" d="M188.35,27.44c0,1.97-.88,3.62-2.63,4.96-1.83,1.38-4.18,2.07-7.08,2.07-2.39,0-4.25-.44-5.58-1.33-1.33-.89-1.99-2.19-1.99-3.89,0-.9.26-1.74.78-2.52.52-.78,1.16-1.36,1.92-1.74-1.16-.59-1.73-1.49-1.73-2.7,0-.64.19-1.25.58-1.83.39-.58.89-.99,1.5-1.23-1.76-.9-2.64-2.55-2.64-4.94,0-1.94.69-3.55,2.06-4.83,1.47-1.35,3.45-2.03,5.95-2.03.85,0,1.89.12,3.1.37h5.98v3.57h-2.38c.61.55.91,1.33.91,2.35,0,2-.67,3.58-2.01,4.74-1.34,1.17-3.22,1.75-5.63,1.75-.76,0-1.34-.05-1.74-.16-.57.23-.85.61-.85,1.12,0,.72.91,1.08,2.73,1.08h2.73c4.02,0,6.03,1.74,6.03,5.2ZM183.85,28.06c0-1.48-.93-2.22-2.8-2.22h-3.9c-1.06.6-1.59,1.44-1.59,2.54,0,.81.34,1.45,1.01,1.91.67.46,1.59.69,2.75.69,1.44,0,2.58-.27,3.4-.82.75-.52,1.13-1.23,1.13-2.11ZM182.74,13.95c0-1.02-.3-1.82-.91-2.39-.61-.57-1.44-.86-2.51-.86s-1.92.3-2.54.89c-.63.59-.94,1.37-.94,2.32s.31,1.75.92,2.32c.62.57,1.47.86,2.56.86s1.88-.28,2.49-.84c.62-.56.92-1.33.92-2.3Z"/><path class="cls-1" d="M77.43,35.57c3.46-.51,11.98-1.75,11.98-1.75v-.73s-8.54-1.24-11.99-1.74c3.1-.45,10.25-1.47,11.71-1.68h.28v-.04h0,0V3.04h-14.57v26.61h9.08l-9.15,1.31v.74s8.57,1.25,12.01,1.75c-3.44.5-12.01,1.76-12.01,1.76v.73s5.05.72,9.34,1.33h-9.29v.74h.01v4.29h14.57v-4.82h-.01v-.2s-8.51-1.21-11.97-1.7ZM76.7,25.16l.11-3.75c1.37.37,2.63.55,3.79.55,1.91,0,2.87-.63,2.87-1.89,0-.81-.62-1.46-1.85-1.96-1.99-.81-3.14-1.32-3.44-1.53-1.23-.85-1.85-2.15-1.85-3.88,0-1.64.63-2.97,1.89-3.99,1.35-1.12,3.23-1.67,5.62-1.67.88,0,1.96.11,3.24.32l-.14,3.59c-1.07-.29-2.17-.43-3.29-.43-1.76,0-2.64.6-2.64,1.81,0,.76.63,1.4,1.89,1.92,1.97.81,3.14,1.34,3.49,1.6,1.26.9,1.89,2.17,1.89,3.8,0,1.75-.72,3.16-2.15,4.23-1.43,1.07-3.35,1.6-5.74,1.6-1.09,0-2.32-.1-3.69-.32Z"/></svg>