<?xml version="1.0" encoding="UTF-8"?><svg id="Layer_1" xmlns="http://www.w3.org/2000/svg" viewBox="0 0 14.64 39.25"><defs><style>.cls-1{fill:#fff;stroke-width:0px;}</style></defs><path class="cls-1" d="M2.65,32.53c3.46-.51,11.98-1.75,11.98-1.75v-.73s-8.54-1.24-11.99-1.74c3.1-.45,10.25-1.47,11.71-1.68h.28v-.04h0,0V0H.06v26.61h9.08L0,27.93v.74s8.57,1.25,12.01,1.75c-3.44.5-12.01,1.76-12.01,1.76v.73s5.05.72,9.34,1.33H.05v.74h.01v4.29h14.57v-4.82h-.01v-.2s-8.51-1.21-11.97-1.7ZM1.92,22.11l.11-3.75c1.37.37,2.63.55,3.79.55,1.91,0,2.87-.63,2.87-1.89,0-.81-.62-1.46-1.85-1.96-1.99-.81-3.14-1.32-3.44-1.53-1.23-.85-1.85-2.15-1.85-3.88,0-1.64.63-2.97,1.89-3.99,1.35-1.12,3.23-1.67,5.62-1.67.88,0,1.96.11,3.24.32l-.14,3.59c-1.07-.29-2.17-.43-3.29-.43-1.76,0-2.64.6-2.64,1.81,0,.76.63,1.4,1.89,1.92,1.97.81,3.14,1.34,3.49,1.6,1.26.9,1.89,2.17,1.89,3.8,0,1.75-.72,3.16-2.15,4.23-1.43,1.07-3.35,1.6-5.74,1.6-1.09,0-2.32-.1-3.69-.32Z"/></svg>