<?xml version="1.0" encoding="UTF-8"?>
<svg id="Layer_1" data-name="Layer 1" xmlns="http://www.w3.org/2000/svg" version="1.1" viewBox="0 0 888 544.4">
  <defs>
    <style>
      .cls-1 {
        fill: #007f26;
      }

      .cls-1, .cls-2, .cls-3, .cls-4, .cls-5, .cls-6, .cls-7, .cls-8, .cls-9, .cls-10, .cls-11 {
        stroke-width: 0px;
      }

      .cls-2 {
        fill: #ffb6b6;
      }

      .cls-3 {
        fill: #000;
        isolation: isolate;
        opacity: .1;
      }

      .cls-4 {
        fill: #ffb9b9;
      }

      .cls-5 {
        fill: #3f3d56;
      }

      .cls-6 {
        fill: #f0f0f0;
      }

      .cls-7 {
        fill: #e4e4e4;
      }

      .cls-8, .cls-10 {
        fill: #f2f2f2;
      }

      .cls-9 {
        fill: #2f2e41;
      }

      .cls-10 {
        display: none;
      }

      .cls-11 {
        fill: #fff;
      }
    </style>
  </defs>
  <path class="cls-10" d="M535.8,482l-32,8.6,32.3-19.8c-.7-31.6-11.7-64.4-11.7-64.4,0,0-68.9,20-87,54.6s-3.9,57.4,21.5,70.7c25.4,13.3,52.2,12,70.3-22.6,4-7.7,6-17.1,6.7-26.9Z"/>
  <path class="cls-11" d="M497.7,488.7l-.9,1.7c-10.5,19.8-21.9,33.5-34.2,40.9-.2.1-.4.2-.5.3l-.5-.8-.5-.8c13.4-8,24.7-23.2,33.8-40.5.3-.6.6-1.1.9-1.7,3.8-7.3,7.2-15,10.3-22.5.2-.6.5-1.2.7-1.8,4-10,7.3-19.8,9.9-28.5.2-.6.4-1.2.5-1.8,4.4-14.6,6.9-25.7,7.4-28.1,0-.3.1-.5.1-.5l.9.2h0s.9.2.9.2c0,0-.1.6-.3,1.6-.8,3.8-3.2,14.1-7.2,27.3-.2.6-.4,1.2-.6,1.8-2.1,7-4.7,14.8-7.7,22.8-.7,2-1.5,4-2.3,5.9-.2.6-.5,1.2-.7,1.8-3.3,8.2-6.7,15.7-10.2,22.5Z"/>
  <path class="cls-11" d="M519.1,434c-.6-.2-1.2-.4-1.8-.7-1.7-.7-3.3-1.4-4.9-2.2-6.8-3.5-12.7-8.5-17.3-14.7-.6.3-1.2.5-1.8.8,4.8,6.5,11,11.8,18.2,15.6,1.7.9,3.4,1.7,5.2,2.4.6.2,1.2.5,1.8.7,5,1.8,10.3,2.8,15.6,3-.1-.7-.2-1.3-.3-1.9-5-.2-10-1.2-14.7-2.9Z"/>
  <path class="cls-11" d="M508.6,464.5c-.6-.3-1.2-.6-1.8-.9-.2,0-.4-.2-.5-.3-14.9-7.8-25-22.4-27.2-39.1-.6.3-1.2.6-1.8,1,2.4,17,12.8,31.8,28.1,39.8.2.1.5.2.7.4.6.3,1.2.6,1.8.9,9.3,4.3,19.5,5.8,29.6,4.3,0-.6,0-1.3,0-1.9-9.8,1.4-19.9,0-28.9-4.2Z"/>
  <path class="cls-11" d="M497.7,488.7c-.6-.3-1.2-.5-1.8-.8-.6-.3-1.3-.6-1.9-1-20.3-10.6-31.1-33.3-26.6-55.8-.7.5-1.5,1-2.2,1.5-3.7,22.7,7.5,45.3,27.9,56,.6.3,1.3.7,1.9.9.6.3,1.2.6,1.8.8,12.4,5.3,26.4,5.7,39.1,1.1.1-.7.3-1.4.4-2.2-12.5,4.8-26.3,4.6-38.6-.6Z"/>
  <path class="cls-8" d="M115.2,485l32,8.6-32.3-19.8c.7-31.6,11.7-64.4,11.7-64.4,0,0,68.9,20,87,54.6s3.9,57.4-21.5,70.7c-25.4,13.3-52.2,12-70.3-22.6-4-7.7-6-17.1-6.7-26.9Z"/>
  <path class="cls-11" d="M153.3,491.7l.9,1.7c10.5,19.8,21.9,33.5,34.2,40.9.2.1.4.2.5.3l.5-.8.5-.8c-13.4-8-24.7-23.2-33.8-40.5-.3-.6-.6-1.1-.9-1.7-3.8-7.3-7.2-15-10.3-22.5-.2-.6-.5-1.2-.7-1.8-4-10-7.3-19.8-9.9-28.5-.2-.6-.4-1.2-.5-1.8-4.4-14.6-6.9-25.7-7.4-28.1,0-.3-.1-.5-.1-.5l-.9.2h0s-.9.2-.9.2c0,0,.1.6.3,1.6.8,3.8,3.2,14.1,7.2,27.3.2.6.4,1.2.6,1.8,2.1,7,4.7,14.8,7.7,22.8.7,2,1.5,4,2.3,5.9.2.6.5,1.2.7,1.8,3.3,8.2,6.7,15.7,10.2,22.5Z"/>
  <path class="cls-11" d="M117.2,439.8c-.1.6-.2,1.3-.3,1.9,5.3-.2,10.6-1.2,15.6-3,.6-.2,1.2-.4,1.8-.7,1.8-.7,3.5-1.5,5.2-2.4,7.2-3.7,13.4-9.1,18.2-15.6-.6-.3-1.2-.5-1.8-.8-4.6,6.1-10.5,11.1-17.3,14.7-1.6.8-3.2,1.6-4.9,2.2-.6.2-1.2.5-1.8.7-4.7,1.7-9.7,2.6-14.7,2.9Z"/>
  <path class="cls-11" d="M113.5,471.6c0,.6,0,1.3,0,1.9,10.1,1.4,20.4,0,29.6-4.3.6-.3,1.2-.6,1.8-.9.2-.1.5-.2.7-.4,15.2-8,25.7-22.8,28.1-39.8-.6-.3-1.2-.7-1.8-1-2.1,16.7-12.3,31.3-27.2,39.1-.2,0-.4.2-.5.3-.6.3-1.2.6-1.8.9-9,4.2-19,5.6-28.9,4.2Z"/>
  <path class="cls-11" d="M114.7,492.3c.1.7.2,1.5.4,2.2,12.7,4.6,26.7,4.2,39.1-1.1.6-.3,1.2-.5,1.8-.8.6-.3,1.3-.6,1.9-.9,20.4-10.7,31.6-33.3,27.9-56-.7-.5-1.5-1-2.2-1.5,4.5,22.4-6.3,45.1-26.6,55.8-.6.3-1.3.6-1.9,1-.6.3-1.2.6-1.8.8-12.3,5.2-26.1,5.4-38.6.6Z"/>
  <path class="cls-8" d="M265.4,509.2l19.1,5.1-19.2-11.8c.4-18.8,7-38.4,7-38.4,0,0,41,11.9,51.8,32.5s2.3,34.2-12.8,42.1c-15.1,7.9-31.1,7.1-41.9-13.5-2.4-4.6-3.6-10.2-4-16Z"/>
  <path class="cls-11" d="M288.1,513.2l.5,1c6.2,11.8,13,19.9,20.3,24.4.1,0,.2.1.3.2l.3-.5.3-.5c-8-4.7-14.7-13.8-20.1-24.1-.2-.3-.4-.7-.5-1-2.3-4.4-4.3-8.9-6.1-13.4-.1-.3-.3-.7-.4-1.1-2.4-6-4.3-11.8-5.9-16.9-.1-.4-.2-.7-.3-1.1-2.6-8.7-4.1-15.3-4.4-16.7,0-.2,0-.3,0-.3h-.5c0,.1,0,.1,0,.1h-.6c0,.1,0,.5.2,1.1.5,2.3,1.9,8.4,4.3,16.2.1.4.2.7.3,1.1,1.3,4.2,2.8,8.8,4.6,13.5.4,1.2.9,2.4,1.4,3.5.1.4.3.7.4,1.1,2,4.9,4,9.3,6.1,13.4Z"/>
  <path class="cls-11" d="M266.5,482.3c0,.4-.1.8-.2,1.1,3.2-.1,6.3-.7,9.3-1.8.4-.1.7-.3,1.1-.4,1.1-.4,2.1-.9,3.1-1.4,4.3-2.2,8-5.4,10.8-9.3-.4-.2-.7-.3-1.1-.5-2.7,3.6-6.2,6.6-10.3,8.7-.9.5-1.9.9-2.9,1.3-.4.1-.7.3-1.1.4-2.8,1-5.8,1.6-8.7,1.7Z"/>
  <path class="cls-11" d="M264.4,501.2c0,.4,0,.8,0,1.1,6,.9,12.1,0,17.6-2.6.4-.2.7-.3,1.1-.5.1,0,.3-.1.4-.2,9.1-4.7,15.3-13.6,16.7-23.7-.4-.2-.7-.4-1.1-.6-1.3,9.9-7.3,18.6-16.2,23.3-.1,0-.2.1-.3.2-.3.2-.7.4-1.1.5-5.4,2.5-11.3,3.3-17.2,2.5Z"/>
  <path class="cls-11" d="M265.1,513.6c0,.4.1.9.2,1.3,7.6,2.7,15.9,2.5,23.3-.7.4-.2.7-.3,1.1-.5.4-.2.8-.4,1.1-.6,12.1-6.4,18.8-19.8,16.6-33.3-.4-.3-.9-.6-1.3-.9,2.7,13.3-3.8,26.9-15.8,33.2-.4.2-.8.4-1.1.6-.4.2-.7.3-1.1.5-7.3,3.1-15.6,3.2-23,.4Z"/>
  <path class="cls-11" d="M646.2,336.1h0c-15.2-2.5-32-2.5-51.5,0h0c-2,0-3.7-1.6-3.7-3.6,0,0,0,0,0,0v-17.7c0-2,1.6-3.7,3.7-3.7,17.2-2.2,34.5-2.2,51.7,0h0c2,0,3.6,1.7,3.6,3.7v17.7c0,2-1.6,3.7-3.7,3.7Z"/>
  <path class="cls-2" d="M651.5,319.1c4.8-2.9,6.3-9,3.4-13.8-.3-.5-.7-1-1-1.4l17.7-31-18.5,1.2-14,29.3c-4,3.9-4,10.3,0,14.3,3.3,3.3,8.4,3.9,12.4,1.5h0Z"/>
  <polygon class="cls-2" points="787.8 530.7 775.5 530.7 769.7 483.4 787.8 483.4 787.8 530.7"/>
  <path class="cls-9" d="M790.9,542.6h-39.5v-.5c0-8.5,6.9-15.4,15.4-15.4h24.1s0,15.9,0,15.9Z"/>
  <polygon class="cls-2" points="703.8 530.7 691.5 530.7 685.7 483.4 703.8 483.4 703.8 530.7"/>
  <path class="cls-9" d="M706.9,542.6h-39.5v-.5c0-8.5,6.9-15.4,15.4-15.4h24.1s0,15.9,0,15.9Z"/>
  <path class="cls-9" d="M672.3,274.2s-3.4,48,3.3,72.2c6.6,24.2,7.8,170.4,7.8,170.4h22.3l19.3-199.1,44.5,199.8,21.2-1.5-11.6-235.4-106.7-6.5Z"/>
  <path class="cls-7" d="M769.8,112.3l-17-12.4-28.5,6.2-7.7,18.3-13.3,6.6c-8.9,4.4-15,12.9-16.4,22.7l-19,131.2,111.2-4.3,13.5-154.5c.6-6.7-4.4-12.5-11-13.1-.1,0-.2,0-.3,0l-11.3-.7Z"/>
  <polygon class="cls-7" points="696.2 141.3 685.9 155.1 641.2 291.5 662.2 299.9 695.7 236.4 696.2 141.3"/>
  <circle class="cls-9" cx="733" cy="57.8" r="34"/>
  <circle class="cls-4" cx="733.4" cy="68.5" r="24.8"/>
  <path class="cls-9" d="M752.3,65.3c-15.8-5.7-21.2-9.2-38.6,0l-6.4-25.8h51.5l-6.4,25.8Z"/>
  <circle class="cls-9" cx="730.2" cy="23.9" r="19.3"/>
  <path class="cls-9" d="M707.2,19.3c0-10.3,8.1-18.8,18.4-19.3-.3,0-.6,0-.9,0C714,0,705.4,8.6,705.4,19.3s8.6,19.3,19.3,19.3.6,0,.9,0c-10.3-.5-18.4-9-18.4-19.3Z"/>
  <polygon class="cls-3" points="778.1 149.1 771.2 218.2 746.7 266.4 778.1 149.1"/>
  <rect class="cls-6" x="39.5" y="361.7" width="6" height="5"/>
  <path class="cls-6" d="M613,366.7h-11.8v-5h11.8v5ZM589.4,366.7h-11.8v-5h11.8v5ZM565.7,366.7h-11.8v-5h11.8v5ZM542.1,366.7h-11.8v-5h11.8v5ZM518.4,366.7h-11.8v-5h11.8v5ZM494.8,366.7h-11.8v-5h11.8v5ZM471.1,366.7h-11.8v-5h11.8v5ZM447.5,366.7h-11.8v-5h11.8v5ZM423.9,366.7h-11.8v-5h11.8v5ZM400.2,366.7h-11.8v-5h11.8v5ZM376.6,366.7h-11.8v-5h11.8v5ZM352.9,366.7h-11.8v-5h11.8v5ZM329.3,366.7h-11.8v-5h11.8v5ZM305.6,366.7h-11.8v-5h11.8v5ZM282,366.7h-11.8v-5h11.8v5ZM258.3,366.7h-11.8v-5h11.8v5ZM234.7,366.7h-11.8v-5h11.8v5ZM211,366.7h-11.8v-5h11.8v5ZM187.4,366.7h-11.8v-5h11.8v5ZM163.7,366.7h-11.8v-5h11.8v5ZM140.1,366.7h-11.8v-5h11.8v5ZM116.4,366.7h-11.8v-5h11.8v5ZM92.8,366.7h-11.8v-5h11.8v5ZM69.1,366.7h-11.8v-5h11.8v5Z"/>
  <rect class="cls-6" x="39.5" y="234.7" width="6" height="5"/>
  <path class="cls-6" d="M613,239.7h-11.8v-5h11.8v5ZM589.4,239.7h-11.8v-5h11.8v5ZM565.7,239.7h-11.8v-5h11.8v5ZM542.1,239.7h-11.8v-5h11.8v5ZM518.4,239.7h-11.8v-5h11.8v5ZM494.8,239.7h-11.8v-5h11.8v5ZM471.1,239.7h-11.8v-5h11.8v5ZM447.5,239.7h-11.8v-5h11.8v5ZM423.9,239.7h-11.8v-5h11.8v5ZM400.2,239.7h-11.8v-5h11.8v5ZM376.6,239.7h-11.8v-5h11.8v5ZM352.9,239.7h-11.8v-5h11.8v5ZM329.3,239.7h-11.8v-5h11.8v5ZM305.6,239.7h-11.8v-5h11.8v5ZM282,239.7h-11.8v-5h11.8v5ZM258.3,239.7h-11.8v-5h11.8v5ZM234.7,239.7h-11.8v-5h11.8v5ZM211,239.7h-11.8v-5h11.8v5ZM187.4,239.7h-11.8v-5h11.8v5ZM163.7,239.7h-11.8v-5h11.8v5ZM140.1,239.7h-11.8v-5h11.8v5ZM116.4,239.7h-11.8v-5h11.8v5ZM92.8,239.7h-11.8v-5h11.8v5ZM69.1,239.7h-11.8v-5h11.8v5Z"/>
  <rect class="cls-6" x="39.5" y="107.7" width="6" height="5"/>
  <path class="cls-6" d="M613,112.7h-11.8v-5h11.8v5ZM589.4,112.7h-11.8v-5h11.8v5ZM565.7,112.7h-11.8v-5h11.8v5ZM542.1,112.7h-11.8v-5h11.8v5ZM518.4,112.7h-11.8v-5h11.8v5ZM494.8,112.7h-11.8v-5h11.8v5ZM471.1,112.7h-11.8v-5h11.8v5ZM447.5,112.7h-11.8v-5h11.8v5ZM423.9,112.7h-11.8v-5h11.8v5ZM400.2,112.7h-11.8v-5h11.8v5ZM376.6,112.7h-11.8v-5h11.8v5ZM352.9,112.7h-11.8v-5h11.8v5ZM329.3,112.7h-11.8v-5h11.8v5ZM305.6,112.7h-11.8v-5h11.8v5ZM282,112.7h-11.8v-5h11.8v5ZM258.3,112.7h-11.8v-5h11.8v5ZM234.7,112.7h-11.8v-5h11.8v5ZM211,112.7h-11.8v-5h11.8v5ZM187.4,112.7h-11.8v-5h11.8v5ZM163.7,112.7h-11.8v-5h11.8v5ZM140.1,112.7h-11.8v-5h11.8v5ZM116.4,112.7h-11.8v-5h11.8v5ZM92.8,112.7h-11.8v-5h11.8v5ZM69.1,112.7h-11.8v-5h11.8v5Z"/>
  <rect class="cls-5" x="186" y="363.2" width="49" height="180"/>
  <rect class="cls-1" x="195" y="363.2" width="49" height="180"/>
  <rect class="cls-5" x="302" y="236.2" width="49" height="307"/>
  <rect class="cls-1" x="311" y="236.2" width="49" height="307"/>
  <rect class="cls-5" x="418" y="109.2" width="49" height="434"/>
  <rect class="cls-1" x="427" y="109.2" width="49" height="434"/>
  <circle class="cls-6" cx="40" cy="110.2" r="12"/>
  <circle class="cls-6" cx="40" cy="237.2" r="12"/>
  <circle class="cls-6" cx="40" cy="364.2" r="12"/>
  <rect class="cls-5" y="542.1" width="888" height="2.2"/>
  <path class="cls-2" d="M738,290.9c-.4-5.5,3.8-10.3,9.3-10.7.6,0,1.2,0,1.8,0l15.2-32.3,9.7,15.9-16,28.3c-1,5.5-6.2,9.2-11.7,8.2-4.6-.8-8.1-4.7-8.4-9.3h0Z"/>
  <path class="cls-7" d="M779.4,121.8l6.3-8.2s15.3-3.1,17.9,17.9l-1.6,93.4-33.5,52.7-21.8-5.6,28.5-62.6,4.3-87.6Z"/>
</svg>