<?xml version="1.0" encoding="UTF-8"?>
<svg id="Layer_1" data-name="Layer 1" xmlns="http://www.w3.org/2000/svg" version="1.1" viewBox="0 0 283.5 283.5">
  <defs>
    <style>
      .cls-1 {
        fill: #18adf2;
      }

      .cls-1, .cls-2, .cls-3, .cls-4, .cls-5, .cls-6 {
        stroke-width: 0px;
      }

      .cls-2 {
        fill: #11abf2;
      }

      .cls-3 {
        fill: #fdfefe;
      }

      .cls-4 {
        fill: #4f5fba;
      }

      .cls-5 {
        fill: #5665bd;
      }

      .cls-6 {
        fill: #fdfdfe;
      }
    </style>
  </defs>
  <path class="cls-2" d="M190.1,122.5c1.6,0,3,1.4,2.9,3,0,1.5-1.4,2.8-3,2.9-1.6,0-3-1.4-2.9-3,0-1.5,1.4-2.8,3-2.9Z"/>
  <path class="cls-2" d="M214.5,125.5c0,1.6-1.5,2.9-3.1,2.9-1.5,0-2.8-1.5-2.8-3,0-1.6,1.5-2.9,3.1-2.9,1.5,0,2.8,1.5,2.8,3Z"/>
  <path class="cls-2" d="M233,122.5c1.6,0,2.9,1.5,2.9,3.1,0,1.5-1.5,2.8-3,2.8-1.6,0-2.9-1.5-2.9-3.1,0-1.5,1.5-2.8,3-2.8Z"/>
  <path class="cls-2" d="M254.4,122.5c1.5,0,3,1.4,3,3,0,1.5-1.4,2.9-2.9,2.9-1.5,0-3-1.4-3-3,0-1.5,1.4-2.9,2.9-2.9Z"/>
  <path class="cls-2" d="M278.8,125.5c0,1.6-1.4,3-3,3-1.5,0-2.9-1.4-2.9-2.9,0-1.6,1.4-3,3-3,1.5,0,2.9,1.4,2.9,2.9Z"/>
  <path class="cls-2" d="M165.7,125.5c0-1.5,1.4-3,3-3,1.5,0,2.9,1.4,2.9,2.9,0,1.5-1.4,3-3,3-1.5,0-2.9-1.4-2.9-2.9Z"/>
  <path class="cls-2" d="M150.1,125.5c0,1.6-1.4,3-3,3-1.5,0-2.9-1.4-2.9-2.9,0-1.6,1.4-3,3-3,1.5,0,2.9,1.4,2.9,2.9Z"/>
  <path class="cls-2" d="M125.7,128.4c-1.6,0-3-1.4-3-3,0-1.5,1.4-2.9,2.9-2.9,1.6,0,3,1.4,3,3,0,1.5-1.4,2.9-2.9,2.9Z"/>
  <path class="cls-2" d="M104.2,128.4c-1.6,0-2.9-1.5-2.9-3.1,0-1.5,1.5-2.8,3-2.8,1.6,0,2.9,1.5,2.9,3.1,0,1.5-1.5,2.8-3,2.8Z"/>
  <path class="cls-2" d="M83,122.5c1.6,0,2.9,1.6,2.8,3.1,0,1.5-1.5,2.8-3.1,2.8-1.6,0-2.9-1.6-2.8-3.1,0-1.5,1.5-2.8,3.1-2.8Z"/>
  <path class="cls-2" d="M64.4,125.6c0,1.6-1.5,2.9-3.1,2.9-1.5,0-2.8-1.5-2.8-3,0-1.6,1.5-2.9,3.1-2.9,1.5,0,2.8,1.5,2.8,3Z"/>
  <path class="cls-2" d="M42.9,125.5c0,1.6-1.4,3-3,2.9-1.5,0-2.9-1.4-2.9-3,0-1.6,1.4-3,3-2.9,1.5,0,2.9,1.4,2.9,3Z"/>
  <path class="cls-2" d="M21.5,125.5c0,1.6-1.5,2.9-3.1,2.9-1.5,0-2.8-1.5-2.8-3,0-1.6,1.5-2.9,3.1-2.9,1.5,0,2.8,1.5,2.8,3Z"/>
  <path class="cls-2" d="M125.8,58.2c1.6,0,2.9,1.5,2.9,3.1,0,1.5-1.5,2.8-3,2.8-1.6,0-2.9-1.5-2.9-3.1,0-1.5,1.5-2.8,3-2.8Z"/>
  <path class="cls-2" d="M150.1,61.2c0,1.6-1.4,3-3,2.9-1.5,0-2.9-1.4-2.9-3,0-1.6,1.4-3,3-2.9,1.5,0,2.9,1.4,2.9,3Z"/>
  <path class="cls-2" d="M171.6,39.8c0,1.6-1.5,2.9-3.1,2.9-1.5,0-2.8-1.5-2.8-3,0-1.6,1.5-2.9,3.1-2.9,1.5,0,2.8,1.5,2.8,3Z"/>
  <path class="cls-2" d="M190.2,36.8c1.6,0,2.9,1.5,2.9,3.1,0,1.5-1.5,2.8-3,2.8-1.6,0-2.9-1.5-2.9-3.1,0-1.5,1.5-2.8,3-2.8Z"/>
  <path class="cls-2" d="M211.5,42.7c-1.6,0-3-1.4-2.9-3,0-1.5,1.4-2.9,3-2.9,1.6,0,3,1.4,2.9,3,0,1.5-1.4,2.9-3,2.9Z"/>
  <path class="cls-2" d="M64.4,61.2c0,1.6-1.5,3-3.1,2.9-1.5,0-2.8-1.5-2.8-3,0-1.6,1.5-3,3.1-2.9,1.5,0,2.8,1.5,2.8,3Z"/>
  <path class="cls-2" d="M39.9,64.1c-1.6,0-3-1.4-2.9-3,0-1.5,1.4-2.8,3-2.9,1.6,0,3,1.4,2.9,3,0,1.5-1.4,2.8-3,2.9Z"/>
  <path class="cls-2" d="M18.5,64.1c-1.6,0-3-1.5-2.9-3,0-1.5,1.4-2.8,3-2.9,1.6,0,3,1.5,2.9,3,0,1.5-1.4,2.8-3,2.9Z"/>
  <path class="cls-2" d="M278.8,254.2c0,1.6-1.5,2.9-3.1,2.9-1.5,0-2.8-1.5-2.8-3,0-1.6,1.5-2.9,3.1-2.9,1.5,0,2.8,1.5,2.8,3Z"/>
  <path class="cls-2" d="M257.4,254.2c0,1.6-1.4,3-3,2.9-1.5,0-2.9-1.4-2.9-3,0-1.6,1.4-3,3-2.9,1.5,0,2.9,1.4,2.9,3Z"/>
  <path class="cls-2" d="M233,251.2c1.6,0,3,1.4,2.9,3,0,1.5-1.4,2.9-3,2.9-1.6,0-3-1.4-2.9-3,0-1.5,1.4-2.9,3-2.9Z"/>
  <path class="cls-2" d="M214.5,254.1c0,1.5-1.4,3-3,3-1.5,0-2.9-1.4-2.9-2.9,0-1.5,1.4-3,3-3,1.5,0,2.9,1.4,2.9,2.9Z"/>
  <path class="cls-2" d="M193,254.2c0,1.6-1.5,2.9-3.1,2.9-1.5,0-2.8-1.5-2.8-3,0-1.6,1.5-2.9,3.1-2.9,1.5,0,2.8,1.5,2.8,3Z"/>
  <path class="cls-2" d="M168.7,251.2c1.6,0,2.9,1.5,2.9,3.1,0,1.5-1.5,2.8-3,2.8-1.6,0-2.9-1.5-2.9-3.1,0-1.5,1.5-2.8,3-2.8Z"/>
  <path class="cls-2" d="M150.1,254.2c0,1.6-1.5,2.9-3.1,2.9-1.5,0-2.8-1.5-2.8-3,0-1.6,1.5-2.9,3.1-2.9,1.5,0,2.8,1.5,2.8,3Z"/>
  <path class="cls-2" d="M125.8,251.2c1.6,0,3,1.5,2.9,3.1,0,1.5-1.4,2.8-3,2.8-1.6,0-3-1.5-2.9-3.1,0-1.5,1.4-2.8,3-2.8Z"/>
  <path class="cls-2" d="M104.3,251.2c1.6,0,3,1.4,3,3,0,1.5-1.4,2.9-2.9,2.9-1.6,0-3-1.4-3-3,0-1.5,1.4-2.9,2.9-2.9Z"/>
  <path class="cls-2" d="M85.8,254.2c0,1.6-1.5,3-3,2.9-1.5,0-2.8-1.4-2.9-3,0-1.6,1.5-3,3-2.9,1.5,0,2.8,1.4,2.9,3Z"/>
  <path class="cls-2" d="M171.6,61.3c0,1.6-1.5,2.9-3.1,2.9-1.5,0-2.8-1.5-2.8-3,0-1.6,1.5-2.9,3.1-2.9,1.5,0,2.8,1.5,2.8,3Z"/>
  <path class="cls-2" d="M147.2,42.7c-1.6,0-3-1.4-2.9-3,0-1.5,1.4-2.9,3-2.9,1.6,0,3,1.4,2.9,3,0,1.5-1.4,2.9-3,2.9Z"/>
  <path class="cls-2" d="M125.7,36.8c1.5,0,3,1.4,3,3,0,1.5-1.4,2.9-2.9,2.9-1.5,0-3-1.4-3-3,0-1.5,1.4-2.9,2.9-2.9Z"/>
  <path class="cls-2" d="M107.2,39.8c0,1.6-1.5,2.9-3.1,2.9-1.5,0-2.8-1.5-2.8-3,0-1.6,1.5-2.9,3.1-2.9,1.5,0,2.8,1.5,2.8,3Z"/>
  <path class="cls-2" d="M85.8,39.7c0,1.6-1.4,3-3,2.9-1.5,0-2.9-1.4-2.9-3,0-1.6,1.4-3,3-2.9,1.5,0,2.9,1.4,2.9,3Z"/>
  <path class="cls-2" d="M61.3,42.7c-1.6,0-2.9-1.5-2.9-3.1,0-1.5,1.5-2.8,3-2.8,1.6,0,2.9,1.5,2.9,3.1,0,1.5-1.5,2.8-3,2.8Z"/>
  <path class="cls-2" d="M42.9,39.7c0,1.6-1.4,3-3,3-1.5,0-2.9-1.4-2.9-2.9,0-1.6,1.4-3,3-3,1.5,0,2.9,1.4,2.9,2.9Z"/>
  <path class="cls-2" d="M21.5,39.7c0,1.5-1.4,3-3,3-1.5,0-2.9-1.4-2.9-2.9,0-1.5,1.4-3,3-3,1.5,0,2.9,1.4,2.9,2.9Z"/>
  <path class="cls-2" d="M193,61.2c0,1.6-1.4,3-3,2.9-1.5,0-2.9-1.4-2.9-3,0-1.6,1.4-3,3-2.9,1.5,0,2.9,1.4,2.9,3Z"/>
  <path class="cls-2" d="M214.5,61.2c0,1.6-1.5,2.9-3.1,2.9-1.5,0-2.8-1.5-2.8-3,0-1.6,1.5-2.9,3.1-2.9,1.5,0,2.8,1.5,2.8,3Z"/>
  <path class="cls-2" d="M233,64.1c-1.5,0-3-1.4-3-3,0-1.5,1.4-2.9,2.9-2.9,1.5,0,3,1.4,3,3,0,1.5-1.4,2.9-2.9,2.9Z"/>
  <path class="cls-2" d="M254.4,58.2c1.6,0,3,1.4,2.9,3,0,1.5-1.4,2.8-3,2.9-1.6,0-3-1.4-2.9-3,0-1.5,1.4-2.8,3-2.9Z"/>
  <path class="cls-2" d="M64.4,254.2c0,1.6-1.4,3-3,2.9-1.5,0-2.9-1.4-2.9-3,0-1.6,1.4-3,3-2.9,1.5,0,2.9,1.4,2.9,3Z"/>
  <path class="cls-2" d="M42.9,254.2c0,1.6-1.5,2.9-3.1,2.9-1.5,0-2.8-1.5-2.8-3,0-1.6,1.5-2.9,3.1-2.9,1.5,0,2.8,1.5,2.8,3Z"/>
  <path class="cls-2" d="M278.8,61.2c0,1.6-1.4,3-3,2.9-1.5,0-2.8-1.4-2.9-3,0-1.6,1.4-3,3-2.9,1.5,0,2.8,1.4,2.9,3Z"/>
  <path class="cls-2" d="M21.5,254.2c0,1.6-1.5,3-3.1,2.9-1.5,0-2.8-1.5-2.8-3,0-1.6,1.5-3,3.1-2.9,1.5,0,2.8,1.5,2.8,3Z"/>
  <path class="cls-2" d="M21.5,147c0,1.6-1.5,2.9-3.1,2.9-1.5,0-2.8-1.5-2.8-3,0-1.6,1.5-2.9,3.1-2.9,1.5,0,2.8,1.5,2.8,3Z"/>
  <path class="cls-2" d="M39.9,149.9c-1.6,0-2.9-1.5-2.9-3.1,0-1.5,1.5-2.8,3-2.8,1.6,0,2.9,1.5,2.9,3.1,0,1.5-1.5,2.8-3,2.8Z"/>
  <path class="cls-2" d="M64.4,147c0,1.6-1.5,2.9-3.1,2.9-1.5,0-2.8-1.5-2.8-3,0-1.6,1.5-2.9,3.1-2.9,1.5,0,2.8,1.5,2.8,3Z"/>
  <path class="cls-2" d="M83,144c1.6,0,2.9,1.6,2.8,3.1,0,1.5-1.5,2.8-3.1,2.8-1.6,0-2.9-1.6-2.8-3.1,0-1.5,1.5-2.8,3.1-2.8Z"/>
  <path class="cls-2" d="M104.4,144c1.6,0,2.9,1.5,2.9,3.1,0,1.5-1.5,2.8-3,2.8-1.6,0-2.9-1.5-2.9-3.1,0-1.5,1.5-2.8,3-2.8Z"/>
  <path class="cls-2" d="M122.8,146.8c0-1.6,1.6-2.9,3.1-2.8,1.5,0,2.8,1.5,2.8,3.1,0,1.6-1.6,2.9-3.1,2.8-1.5,0-2.8-1.5-2.8-3.1Z"/>
  <path class="cls-2" d="M150.1,147c0,1.6-1.5,2.9-3.1,2.9-1.5,0-2.8-1.5-2.8-3,0-1.6,1.5-2.9,3.1-2.9,1.5,0,2.8,1.5,2.8,3Z"/>
  <path class="cls-2" d="M168.6,149.9c-1.6,0-2.9-1.5-2.9-3.1,0-1.5,1.5-2.8,3-2.8,1.6,0,2.9,1.5,2.9,3.1,0,1.5-1.5,2.8-3,2.8Z"/>
  <path class="cls-2" d="M193,147c0,1.6-1.5,2.9-3.1,2.9-1.5,0-2.8-1.5-2.8-3,0-1.6,1.5-2.9,3.1-2.9,1.5,0,2.8,1.5,2.8,3Z"/>
  <path class="cls-2" d="M211.6,144c1.6,0,2.9,1.5,2.9,3.1,0,1.5-1.5,2.8-3,2.8-1.6,0-2.9-1.5-2.9-3.1,0-1.5,1.5-2.8,3-2.8Z"/>
  <path class="cls-2" d="M235.9,147c0,1.6-1.5,3-3.1,2.9-1.5,0-2.8-1.5-2.8-3,0-1.6,1.5-3,3.1-2.9,1.5,0,2.8,1.5,2.8,3Z"/>
  <path class="cls-2" d="M251.5,146.8c0-1.6,1.6-2.9,3.1-2.8,1.5,0,2.8,1.5,2.8,3.1,0,1.6-1.6,2.9-3.1,2.8-1.5,0-2.8-1.5-2.8-3.1Z"/>
  <path class="cls-2" d="M275.9,144c1.6,0,2.9,1.5,2.8,3.1,0,1.5-1.5,2.8-3,2.8-1.6,0-2.9-1.5-2.8-3.1,0-1.5,1.5-2.8,3-2.8Z"/>
  <path class="cls-2" d="M235.9,39.7c0,1.6-1.4,3-3,2.9-1.5,0-2.9-1.4-2.9-3,0-1.6,1.4-3,3-2.9,1.5,0,2.9,1.4,2.9,3Z"/>
  <path class="cls-2" d="M254.4,36.8c1.6,0,3,1.4,2.9,3,0,1.5-1.4,2.9-3,2.9-1.6,0-3-1.4-2.9-3,0-1.5,1.4-2.9,3-2.9Z"/>
  <path class="cls-2" d="M275.8,42.7c-1.6,0-2.9-1.5-2.9-3.1,0-1.5,1.5-2.8,3-2.8,1.6,0,2.9,1.5,2.9,3.1,0,1.5-1.5,2.8-3,2.8Z"/>
  <path class="cls-2" d="M85.8,61.2c0,1.6-1.4,3-3,2.9-1.5,0-2.9-1.4-2.9-3,0-1.6,1.4-3,3-2.9,1.5,0,2.9,1.4,2.9,3Z"/>
  <path class="cls-2" d="M21.5,82.7c0,1.6-1.5,2.9-3.1,2.9-1.5,0-2.8-1.5-2.8-3,0-1.6,1.5-2.9,3.1-2.9,1.5,0,2.8,1.5,2.8,3Z"/>
  <path class="cls-2" d="M39.9,79.7c1.5,0,3,1.4,3,3,0,1.5-1.4,2.9-2.9,2.9-1.5,0-3-1.4-3-3,0-1.5,1.4-2.9,2.9-2.9Z"/>
  <path class="cls-2" d="M278.8,232.7c0,1.6-1.5,3-3.1,2.9-1.5,0-2.8-1.4-2.8-3,0-1.6,1.5-3,3.1-2.9,1.5,0,2.8,1.4,2.8,3Z"/>
  <path class="cls-2" d="M254.4,235.6c-1.6,0-3-1.4-2.9-3,0-1.5,1.4-2.9,3-2.9,1.6,0,3,1.4,2.9,3,0,1.5-1.4,2.9-3,2.9Z"/>
  <path class="cls-2" d="M233.1,229.7c1.6,0,2.9,1.6,2.8,3.1,0,1.5-1.5,2.8-3.1,2.8-1.6,0-2.9-1.6-2.8-3.1,0-1.5,1.5-2.8,3.1-2.8Z"/>
  <path class="cls-2" d="M214.5,232.8c0,1.6-1.5,2.9-3.1,2.9-1.5,0-2.8-1.5-2.8-3,0-1.6,1.5-2.9,3.1-2.9,1.5,0,2.8,1.5,2.8,3Z"/>
  <path class="cls-2" d="M193,232.8c0,1.6-1.5,2.9-3.1,2.9-1.5,0-2.8-1.5-2.8-3,0-1.6,1.5-2.9,3.1-2.9,1.5,0,2.8,1.5,2.8,3Z"/>
  <path class="cls-2" d="M168.6,229.7c1.5,0,3,1.4,3,3,0,1.5-1.4,2.9-2.9,2.9-1.5,0-3-1.4-3-3,0-1.5,1.4-2.9,2.9-2.9Z"/>
  <path class="cls-2" d="M150.1,232.8c0,1.6-1.5,2.9-3.1,2.9-1.5,0-2.8-1.5-2.8-3,0-1.6,1.5-2.9,3.1-2.9,1.5,0,2.8,1.5,2.8,3Z"/>
  <path class="cls-2" d="M128.7,232.8c0,1.6-1.5,2.9-3.1,2.9-1.5,0-2.8-1.5-2.8-3,0-1.6,1.5-2.9,3.1-2.9,1.5,0,2.8,1.5,2.8,3Z"/>
  <path class="cls-2" d="M104.2,235.6c-1.6,0-2.9-1.5-2.9-3.1,0-1.5,1.5-2.8,3-2.8,1.6,0,2.9,1.5,2.9,3.1,0,1.5-1.5,2.8-3,2.8Z"/>
  <path class="cls-2" d="M82.9,229.7c1.6,0,3,1.4,2.9,3,0,1.5-1.4,2.9-3,2.9-1.6,0-3-1.4-2.9-3,0-1.5,1.4-2.9,3-2.9Z"/>
  <path class="cls-2" d="M64.4,232.8c0,1.6-1.5,2.9-3.1,2.9-1.5,0-2.8-1.5-2.8-3,0-1.6,1.5-2.9,3.1-2.9,1.5,0,2.8,1.5,2.8,3Z"/>
  <path class="cls-2" d="M39.9,235.6c-1.6,0-3-1.4-2.9-3,0-1.5,1.4-2.9,3-2.9,1.6,0,3,1.4,2.9,3,0,1.5-1.4,2.9-3,2.9Z"/>
  <path class="cls-2" d="M21.5,232.8c0,1.6-1.5,2.9-3.1,2.9-1.5,0-2.8-1.5-2.8-3,0-1.6,1.5-2.9,3.1-2.9,1.5,0,2.8,1.5,2.8,3Z"/>
  <path class="cls-2" d="M21.5,275.6c0,1.6-1.4,3-3,2.9-1.5,0-2.9-1.4-2.9-3,0-1.6,1.4-3,3-2.9,1.5,0,2.9,1.4,2.9,3Z"/>
  <path class="cls-2" d="M42.9,275.7c0,1.6-1.5,2.9-3.1,2.9-1.5,0-2.8-1.5-2.8-3,0-1.6,1.5-2.9,3.1-2.9,1.5,0,2.8,1.5,2.8,3Z"/>
  <path class="cls-2" d="M61.4,79.7c1.5,0,3,1.4,3,3,0,1.5-1.4,2.9-2.9,2.9-1.5,0-3-1.4-3-3,0-1.5,1.4-2.9,2.9-2.9Z"/>
  <path class="cls-2" d="M79.9,82.6c0-1.5,1.4-3,3-3,1.5,0,2.9,1.4,2.9,2.9,0,1.5-1.4,3-3,3-1.5,0-2.9-1.4-2.9-2.9Z"/>
  <path class="cls-2" d="M107.2,82.7c0,1.6-1.5,2.9-3.1,2.9-1.5,0-2.8-1.5-2.8-3,0-1.6,1.5-2.9,3.1-2.9,1.5,0,2.8,1.5,2.8,3Z"/>
  <path class="cls-2" d="M128.7,82.6c0,1.6-1.4,3-3,2.9-1.5,0-2.8-1.4-2.9-3,0-1.6,1.4-3,3-2.9,1.5,0,2.8,1.4,2.9,3Z"/>
  <path class="cls-2" d="M147.1,85.6c-1.6,0-3-1.5-2.9-3.1,0-1.5,1.5-2.8,3-2.8,1.6,0,3,1.5,2.9,3.1,0,1.5-1.5,2.8-3,2.8Z"/>
  <path class="cls-2" d="M171.6,82.7c0,1.6-1.5,2.9-3.1,2.8-1.5,0-2.8-1.5-2.8-3,0-1.6,1.5-2.9,3.1-2.8,1.5,0,2.8,1.5,2.8,3Z"/>
  <path class="cls-2" d="M193,82.7c0,1.6-1.5,2.9-3.1,2.8-1.5,0-2.8-1.5-2.8-3,0-1.6,1.5-2.9,3.1-2.8,1.5,0,2.8,1.5,2.8,3Z"/>
  <path class="cls-2" d="M211.5,79.7c1.6,0,3,1.4,2.9,3,0,1.5-1.4,2.8-3,2.9-1.6,0-3-1.4-2.9-3,0-1.5,1.4-2.8,3-2.9Z"/>
  <path class="cls-2" d="M232.9,85.6c-1.6,0-2.9-1.5-2.9-3.1,0-1.5,1.5-2.8,3-2.8,1.6,0,2.9,1.5,2.9,3.1,0,1.5-1.5,2.8-3,2.8Z"/>
  <path class="cls-2" d="M257.4,82.6c0,1.6-1.5,3-3,2.9-1.5,0-2.8-1.4-2.9-3,0-1.6,1.5-3,3-2.9,1.5,0,2.8,1.4,2.9,3Z"/>
  <path class="cls-2" d="M275.8,85.6c-1.6,0-2.9-1.5-2.9-3.1,0-1.5,1.5-2.8,3-2.8,1.6,0,2.9,1.5,2.9,3.1,0,1.5-1.5,2.8-3,2.8Z"/>
  <path class="cls-2" d="M275.8,214.2c-1.6,0-2.9-1.5-2.9-3.1,0-1.5,1.5-2.8,3-2.8,1.6,0,2.9,1.5,2.9,3.1,0,1.5-1.5,2.8-3,2.8Z"/>
  <path class="cls-2" d="M257.4,211.3c0,1.6-1.5,2.9-3.1,2.9-1.5,0-2.8-1.5-2.8-3,0-1.6,1.5-2.9,3.1-2.9,1.5,0,2.8,1.5,2.8,3Z"/>
  <path class="cls-2" d="M232.9,214.2c-1.6,0-3-1.4-2.9-3,0-1.5,1.4-2.8,3-2.9,1.6,0,3,1.4,2.9,3,0,1.5-1.4,2.8-3,2.9Z"/>
  <path class="cls-2" d="M214.5,211.2c0,1.5-1.4,3-3,3-1.5,0-2.9-1.4-2.9-2.9,0-1.5,1.4-3,3-3,1.5,0,2.9,1.4,2.9,2.9Z"/>
  <path class="cls-2" d="M193,211.3c0,1.6-1.5,2.9-3.1,2.9-1.5,0-2.8-1.5-2.8-3,0-1.6,1.5-2.9,3.1-2.9,1.5,0,2.8,1.5,2.8,3Z"/>
  <path class="cls-2" d="M168.6,214.2c-1.6,0-2.9-1.5-2.9-3.1,0-1.5,1.5-2.8,3-2.8,1.6,0,2.9,1.5,2.9,3.1,0,1.5-1.5,2.8-3,2.8Z"/>
  <path class="cls-2" d="M147.3,208.3c1.6,0,2.9,1.5,2.9,3.1,0,1.5-1.5,2.8-3,2.8-1.6,0-2.9-1.5-2.9-3.1,0-1.5,1.5-2.8,3-2.8Z"/>
  <path class="cls-2" d="M128.7,211.3c0,1.6-1.4,3-3,2.9-1.5,0-2.9-1.4-2.9-3,0-1.6,1.4-3,3-2.9,1.5,0,2.9,1.4,2.9,3Z"/>
  <path class="cls-2" d="M107.2,211.4c0,1.6-1.5,2.9-3.1,2.8-1.5,0-2.8-1.5-2.8-3,0-1.6,1.5-2.9,3.1-2.8,1.5,0,2.8,1.5,2.8,3Z"/>
  <path class="cls-2" d="M85.8,211.3c0,1.6-1.4,3-3,2.9-1.5,0-2.9-1.4-2.9-3,0-1.6,1.4-3,3-2.9,1.5,0,2.9,1.4,2.9,3Z"/>
  <path class="cls-2" d="M21.5,168.4c0,1.6-1.4,3-3,2.9-1.5,0-2.9-1.4-2.9-3,0-1.6,1.4-3,3-2.9,1.5,0,2.9,1.4,2.9,3Z"/>
  <path class="cls-2" d="M42.9,168.4c0,1.6-1.4,3-3,2.9-1.5,0-2.9-1.4-2.9-3,0-1.6,1.4-3,3-2.9,1.5,0,2.9,1.4,2.9,3Z"/>
  <path class="cls-2" d="M61.3,171.3c-1.6,0-2.9-1.5-2.9-3.1,0-1.5,1.5-2.8,3-2.8,1.6,0,2.9,1.5,2.9,3.1,0,1.5-1.5,2.8-3,2.8Z"/>
  <path class="cls-2" d="M85.8,168.4c0,1.6-1.5,2.9-3.1,2.9-1.5,0-2.8-1.5-2.8-3,0-1.6,1.5-2.9,3.1-2.9,1.5,0,2.8,1.5,2.8,3Z"/>
  <path class="cls-2" d="M104.3,165.4c1.5,0,3,1.4,3,3,0,1.5-1.4,2.9-2.9,2.9-1.5,0-3-1.4-3-3,0-1.5,1.4-2.9,2.9-2.9Z"/>
  <path class="cls-2" d="M125.7,165.4c1.6,0,3,1.4,2.9,3,0,1.5-1.4,2.9-3,2.9-1.6,0-3-1.4-2.9-3,0-1.5,1.4-2.9,3-2.9Z"/>
  <path class="cls-2" d="M147.2,165.4c1.5,0,3,1.4,3,3,0,1.5-1.4,2.9-2.9,2.9-1.5,0-3-1.4-3-3,0-1.5,1.4-2.9,2.9-2.9Z"/>
  <path class="cls-2" d="M171.6,168.4c0,1.6-1.4,3-3,3-1.5,0-2.9-1.4-2.9-2.9,0-1.6,1.4-3,3-3,1.5,0,2.9,1.4,2.9,2.9Z"/>
  <path class="cls-2" d="M190,171.3c-1.6,0-2.9-1.5-2.9-3.1,0-1.5,1.5-2.8,3-2.8,1.6,0,2.9,1.5,2.9,3.1,0,1.5-1.5,2.8-3,2.8Z"/>
  <path class="cls-2" d="M214.5,168.3c0,1.5-1.4,3-3,3-1.5,0-2.9-1.4-2.9-2.9,0-1.5,1.4-3,3-3,1.5,0,2.9,1.4,2.9,2.9Z"/>
  <path class="cls-2" d="M235.9,168.4c0,1.6-1.5,3-3,2.9-1.5,0-2.8-1.4-2.9-3,0-1.6,1.5-3,3-2.9,1.5,0,2.8,1.4,2.9,3Z"/>
  <path class="cls-2" d="M254.4,171.3c-1.6,0-3-1.4-2.9-3,0-1.5,1.4-2.9,3-2.9,1.6,0,3,1.4,2.9,3,0,1.5-1.4,2.9-3,2.9Z"/>
  <path class="cls-2" d="M278.8,168.4c0,1.6-1.4,3-3,3-1.5,0-2.9-1.4-2.9-2.9,0-1.6,1.4-3,3-3,1.5,0,2.9,1.4,2.9,2.9Z"/>
  <path class="cls-2" d="M61.5,208.3c1.6,0,2.9,1.5,2.9,3.1,0,1.5-1.5,2.8-3,2.8-1.6,0-2.9-1.5-2.9-3.1,0-1.5,1.5-2.8,3-2.8Z"/>
  <path class="cls-2" d="M42.9,211.3c0,1.6-1.4,3-3,2.9-1.5,0-2.9-1.4-2.9-3,0-1.6,1.4-3,3-2.9,1.5,0,2.9,1.4,2.9,3Z"/>
  <path class="cls-2" d="M278.8,104.2c0,1.6-1.6,2.9-3.1,2.8-1.5,0-2.8-1.5-2.8-3.1,0-1.6,1.6-2.9,3.1-2.8,1.5,0,2.8,1.5,2.8,3.1Z"/>
  <path class="cls-2" d="M257.4,104.1c0,1.6-1.4,3-3,2.9-1.5,0-2.8-1.4-2.9-3,0-1.6,1.4-3,3-2.9,1.5,0,2.8,1.4,2.9,3Z"/>
  <path class="cls-2" d="M235.9,104.1c0,1.6-1.5,2.9-3.1,2.9-1.5,0-2.8-1.5-2.8-3,0-1.6,1.5-2.9,3.1-2.9,1.5,0,2.8,1.5,2.8,3Z"/>
  <path class="cls-2" d="M211.5,101.1c1.6,0,3,1.4,3,3,0,1.5-1.4,2.9-2.9,2.9-1.6,0-3-1.4-3-3,0-1.5,1.4-2.9,2.9-2.9Z"/>
  <path class="cls-2" d="M190.1,101.1c1.6,0,3,1.4,2.9,3,0,1.5-1.4,2.9-3,2.9-1.6,0-3-1.4-2.9-3,0-1.5,1.4-2.9,3-2.9Z"/>
  <path class="cls-2" d="M171.6,104.1c0,1.6-1.5,2.9-3.1,2.9-1.5,0-2.8-1.5-2.8-3,0-1.6,1.5-2.9,3.1-2.9,1.5,0,2.8,1.5,2.8,3Z"/>
  <path class="cls-2" d="M147.2,107c-1.6,0-3-1.4-2.9-3,0-1.5,1.4-2.9,3-2.9,1.6,0,3,1.4,2.9,3,0,1.5-1.4,2.9-3,2.9Z"/>
  <path class="cls-2" d="M104.3,58.2c1.6,0,3,1.4,3,3,0,1.5-1.4,2.9-2.9,2.9-1.6,0-3-1.4-3-3,0-1.5,1.4-2.9,2.9-2.9Z"/>
  <path class="cls-2" d="M128.7,104.1c0,1.6-1.5,2.9-3.1,2.9-1.5,0-2.8-1.5-2.8-3,0-1.6,1.5-2.9,3.1-2.9,1.5,0,2.8,1.5,2.8,3Z"/>
  <path class="cls-2" d="M107.2,104.1c0,1.6-1.5,2.9-3.1,2.9-1.5,0-2.8-1.5-2.8-3,0-1.6,1.5-2.9,3.1-2.9,1.5,0,2.8,1.5,2.8,3Z"/>
  <path class="cls-2" d="M85.8,104.2c0,1.6-1.5,2.9-3.1,2.8-1.5,0-2.8-1.5-2.8-3,0-1.6,1.5-2.9,3.1-2.8,1.5,0,2.8,1.5,2.8,3Z"/>
  <path class="cls-2" d="M21.5,211.3c0,1.6-1.4,3-3,3-1.5,0-2.9-1.4-2.9-2.9,0-1.6,1.4-3,3-3,1.5,0,2.9,1.4,2.9,2.9Z"/>
  <path class="cls-2" d="M61.3,278.5c-1.6,0-2.9-1.5-2.8-3.1,0-1.5,1.5-2.8,3-2.8,1.6,0,2.9,1.5,2.8,3.1,0,1.5-1.5,2.8-3,2.8Z"/>
  <path class="cls-2" d="M85.8,275.7c0,1.6-1.5,2.9-3.1,2.9-1.5,0-2.8-1.5-2.8-3,0-1.6,1.5-2.9,3.1-2.9,1.5,0,2.8,1.5,2.8,3Z"/>
  <path class="cls-2" d="M107.2,275.6c0,1.6-1.5,2.9-3.1,2.9-1.5,0-2.8-1.5-2.8-3,0-1.6,1.5-2.9,3.1-2.9,1.5,0,2.8,1.5,2.8,3Z"/>
  <path class="cls-2" d="M128.7,275.7c0,1.6-1.5,2.9-3.1,2.9-1.5,0-2.8-1.5-2.8-3,0-1.6,1.5-2.9,3.1-2.9,1.5,0,2.8,1.5,2.8,3Z"/>
  <path class="cls-2" d="M21.5,18.3c0,1.5-1.4,3-3,3-1.5,0-2.9-1.4-2.9-2.9,0-1.5,1.4-3,3-3,1.5,0,2.9,1.4,2.9,2.9Z"/>
  <path class="cls-2" d="M42.9,18.4c0,1.6-1.5,2.9-3.1,2.9-1.5,0-2.8-1.5-2.8-3,0-1.6,1.5-2.9,3.1-2.9,1.5,0,2.8,1.5,2.8,3Z"/>
  <path class="cls-2" d="M64.4,18.3c0,1.6-1.5,3-3,2.9-1.5,0-2.8-1.4-2.9-3,0-1.6,1.5-3,3-2.9,1.5,0,2.8,1.4,2.9,3Z"/>
  <path class="cls-2" d="M82.8,15.3c1.5,0,3,1.4,3,3,0,1.5-1.4,2.9-2.9,2.9-1.5,0-3-1.4-3-3,0-1.5,1.4-2.9,2.9-2.9Z"/>
  <path class="cls-2" d="M107.2,18.4c0,1.6-1.5,2.9-3.1,2.8-1.5,0-2.8-1.5-2.8-3,0-1.6,1.5-2.9,3.1-2.8,1.5,0,2.8,1.5,2.8,3Z"/>
  <path class="cls-2" d="M128.7,18.4c0,1.6-1.5,2.9-3.1,2.9-1.5,0-2.8-1.5-2.8-3,0-1.6,1.5-2.9,3.1-2.9,1.5,0,2.8,1.5,2.8,3Z"/>
  <path class="cls-2" d="M150.1,18.3c0,1.6-1.4,3-3,2.9-1.5,0-2.9-1.4-2.9-3,0-1.6,1.4-3,3-2.9,1.5,0,2.9,1.4,2.9,3Z"/>
  <path class="cls-2" d="M168.6,15.3c1.5,0,3,1.4,3,3,0,1.5-1.4,2.9-2.9,2.9-1.5,0-3-1.4-3-3,0-1.5,1.4-2.9,2.9-2.9Z"/>
  <path class="cls-2" d="M278.8,275.6c0,1.6-1.4,3-3,2.9-1.5,0-2.8-1.4-2.9-3,0-1.6,1.4-3,3-2.9,1.5,0,2.8,1.4,2.9,3Z"/>
  <path class="cls-2" d="M64.4,104.1c0,1.6-1.5,2.9-3.1,2.9-1.5,0-2.8-1.5-2.8-3,0-1.6,1.5-2.9,3.1-2.9,1.5,0,2.8,1.5,2.8,3Z"/>
  <path class="cls-2" d="M42.9,104.2c0,1.6-1.5,2.9-3.1,2.8-1.5,0-2.8-1.5-2.8-3,0-1.6,1.5-2.9,3.1-2.8,1.5,0,2.8,1.5,2.8,3Z"/>
  <path class="cls-2" d="M21.5,104.1c0,1.6-1.4,3-3,2.9-1.5,0-2.9-1.4-2.9-3,0-1.6,1.4-3,3-2.9,1.5,0,2.9,1.4,2.9,3Z"/>
  <path class="cls-2" d="M254.3,278.5c-1.6,0-2.9-1.5-2.9-3.1,0-1.5,1.5-2.8,3-2.8,1.6,0,2.9,1.5,2.9,3.1,0,1.5-1.5,2.8-3,2.8Z"/>
  <path class="cls-2" d="M235.9,275.7c0,1.6-1.5,2.9-3.1,2.8-1.5,0-2.8-1.5-2.8-3,0-1.6,1.5-2.9,3.1-2.8,1.5,0,2.8,1.5,2.8,3Z"/>
  <path class="cls-2" d="M193,18.4c0,1.6-1.5,2.9-3.1,2.9-1.5,0-2.8-1.5-2.8-3,0-1.6,1.5-2.9,3.1-2.9,1.5,0,2.8,1.5,2.8,3Z"/>
  <path class="cls-2" d="M211.5,15.3c1.6,0,3,1.4,2.9,3,0,1.5-1.4,2.8-3,2.9-1.6,0-3-1.4-2.9-3,0-1.5,1.4-2.8,3-2.9Z"/>
  <path class="cls-2" d="M232.9,15.3c1.5,0,3,1.4,3,3,0,1.5-1.4,2.9-2.9,2.9-1.5,0-3-1.4-3-3,0-1.5,1.4-2.9,2.9-2.9Z"/>
  <path class="cls-2" d="M150.1,275.6c0,1.5-1.4,3-3,3-1.5,0-2.9-1.4-2.9-2.9,0-1.5,1.4-3,3-3,1.5,0,2.9,1.4,2.9,2.9Z"/>
  <path class="cls-2" d="M171.6,275.6c0,1.5-1.4,3-3,3-1.5,0-2.9-1.4-2.9-2.9,0-1.5,1.4-3,3-3,1.5,0,2.9,1.4,2.9,2.9Z"/>
  <path class="cls-2" d="M278.8,189.9c0,1.6-1.5,2.9-3.1,2.9-1.5,0-2.8-1.5-2.8-3,0-1.6,1.5-2.9,3.1-2.9,1.5,0,2.8,1.5,2.8,3Z"/>
  <path class="cls-2" d="M278.8,18.3c0,1.6-1.4,3-3,2.9-1.5,0-2.9-1.4-2.9-3,0-1.6,1.4-3,3-2.9,1.5,0,2.9,1.4,2.9,3Z"/>
  <path class="cls-2" d="M257.4,18.4c0,1.6-1.5,2.9-3.1,2.9-1.5,0-2.8-1.5-2.8-3,0-1.6,1.5-2.9,3.1-2.9,1.5,0,2.8,1.5,2.8,3Z"/>
  <path class="cls-2" d="M211.5,272.6c1.6,0,3,1.4,2.9,3,0,1.5-1.4,2.8-3,2.9-1.6,0-3-1.4-2.9-3,0-1.5,1.4-2.8,3-2.9Z"/>
  <path class="cls-2" d="M193,275.6c0,1.6-1.4,3-3,2.9-1.5,0-2.9-1.4-2.9-3,0-1.6,1.4-3,3-2.9,1.5,0,2.9,1.4,2.9,3Z"/>
  <path class="cls-2" d="M18.5,192.8c-1.6,0-3-1.4-2.9-3,0-1.5,1.4-2.9,3-2.9,1.6,0,3,1.4,2.9,3,0,1.5-1.4,2.9-3,2.9Z"/>
  <path class="cls-2" d="M37,189.8c0-1.5,1.4-3,3-3,1.5,0,2.9,1.4,2.9,2.9,0,1.5-1.4,3-3,3-1.5,0-2.9-1.4-2.9-2.9Z"/>
  <path class="cls-2" d="M61.3,192.8c-1.6,0-2.9-1.5-2.9-3.1,0-1.5,1.5-2.8,3-2.8,1.6,0,2.9,1.5,2.9,3.1,0,1.5-1.5,2.8-3,2.8Z"/>
  <path class="cls-2" d="M85.8,189.8c0,1.6-1.5,3-3,2.9-1.5,0-2.8-1.4-2.9-3,0-1.6,1.5-3,3-2.9,1.5,0,2.8,1.4,2.9,3Z"/>
  <path class="cls-2" d="M107.2,189.8c0,1.6-1.4,3-3,2.9-1.5,0-2.9-1.4-2.9-3,0-1.6,1.4-3,3-2.9,1.5,0,2.9,1.4,2.9,3Z"/>
  <path class="cls-2" d="M125.7,192.8c-1.6,0-2.9-1.5-2.9-3.1,0-1.5,1.5-2.8,3-2.8,1.6,0,2.9,1.5,2.9,3.1,0,1.5-1.5,2.8-3,2.8Z"/>
  <path class="cls-2" d="M150.1,189.8c0,1.6-1.4,3-3,2.9-1.5,0-2.9-1.4-2.9-3,0-1.6,1.4-3,3-2.9,1.5,0,2.9,1.4,2.9,3Z"/>
  <path class="cls-2" d="M168.7,186.9c1.6,0,3,1.5,2.9,3.1,0,1.5-1.5,2.8-3,2.8-1.6,0-3-1.5-2.9-3.1,0-1.5,1.5-2.8,3-2.8Z"/>
  <path class="cls-2" d="M190.1,192.8c-1.6,0-3-1.4-2.9-3,0-1.5,1.4-2.9,3-2.9,1.6,0,3,1.4,2.9,3,0,1.5-1.4,2.9-3,2.9Z"/>
  <path class="cls-2" d="M214.5,189.9c0,1.6-1.5,3-3.1,2.9-1.5,0-2.8-1.5-2.8-3,0-1.6,1.5-3,3.1-2.9,1.5,0,2.8,1.5,2.8,3Z"/>
  <path class="cls-2" d="M235.9,189.8c0,1.6-1.4,3-3,2.9-1.5,0-2.9-1.4-2.9-3,0-1.6,1.4-3,3-2.9,1.5,0,2.9,1.4,2.9,3Z"/>
  <path class="cls-2" d="M257.4,189.8c0,1.6-1.4,3-3,2.9-1.5,0-2.9-1.4-2.9-3,0-1.6,1.4-3,3-2.9,1.5,0,2.9,1.4,2.9,3Z"/>
  <path class="cls-4" d="M118,50.4c0,1.6-1.4,3-3,3-1.5,0-2.9-1.4-2.9-2.9,0-1.6,1.4-3,3-3,1.5,0,2.9,1.4,2.9,2.9Z"/>
  <path class="cls-4" d="M139.4,50.4c0,1.6-1.4,3-2.9,3-1.5,0-2.9-1.3-2.9-2.9,0-1.6,1.4-3,2.9-3,1.5,0,2.9,1.3,2.9,2.9Z"/>
  <path class="cls-4" d="M93.6,53.4c-1.6,0-3-1.4-3-3,0-1.5,1.4-2.9,2.9-2.9,1.6,0,3,1.4,3,3,0,1.5-1.4,2.9-2.9,2.9Z"/>
  <path class="cls-4" d="M268.1,93.3c0,1.6-1.4,3-3,3-1.5,0-2.9-1.4-2.9-2.9,0-1.6,1.4-3,3-3,1.5,0,2.9,1.4,2.9,2.9Z"/>
  <path class="cls-4" d="M246.6,93.3c0,1.6-1.4,3-3,3-1.5,0-2.9-1.4-2.9-2.9,0-1.6,1.4-3,3-3,1.5,0,2.9,1.4,2.9,2.9Z"/>
  <path class="cls-4" d="M225.2,93.4c0,1.6-1.5,3-3.1,2.9-1.5,0-2.9-1.5-2.8-3,0-1.6,1.5-3,3.1-2.9,1.5,0,2.9,1.5,2.8,3Z"/>
  <path class="cls-4" d="M200.8,90.4c1.6,0,3,1.4,3,3,0,1.5-1.4,2.9-2.9,2.9-1.6,0-3-1.4-3-3,0-1.5,1.4-2.9,2.9-2.9Z"/>
  <path class="cls-4" d="M182.3,93.3c0,1.6-1.4,3-3,3-1.5,0-2.9-1.4-2.9-2.9,0-1.6,1.4-3,3-3,1.5,0,2.9,1.4,2.9,2.9Z"/>
  <path class="cls-4" d="M160.8,93.3c0,1.6-1.4,3-2.9,3-1.5,0-2.9-1.3-2.9-2.9,0-1.6,1.4-3,2.9-3,1.5,0,2.9,1.3,2.9,2.9Z"/>
  <path class="cls-4" d="M136.5,96.3c-1.6,0-3-1.4-3-3,0-1.5,1.4-2.9,2.9-2.9,1.6,0,3,1.4,3,3,0,1.5-1.4,2.9-2.9,2.9Z"/>
  <path class="cls-4" d="M118,93.3c0,1.6-1.4,3-3,3-1.5,0-2.9-1.4-2.9-2.9,0-1.6,1.4-3,3-3,1.5,0,2.9,1.4,2.9,2.9Z"/>
  <path class="cls-4" d="M96.5,93.3c0,1.6-1.4,3-3,3-1.5,0-2.9-1.4-2.9-2.9,0-1.6,1.4-3,3-3,1.5,0,2.9,1.4,2.9,2.9Z"/>
  <path class="cls-4" d="M75.1,93.4c0,1.6-1.5,3-3,2.9-1.5,0-2.9-1.4-2.8-3,0-1.6,1.5-3,3-2.9,1.5,0,2.9,1.4,2.8,3Z"/>
  <path class="cls-4" d="M53.6,93.3c0,1.6-1.4,3-3,2.9-1.5,0-2.9-1.4-2.9-2.9,0-1.6,1.4-3,3-2.9,1.5,0,2.9,1.4,2.9,2.9Z"/>
  <path class="cls-4" d="M10.7,200.6c0,1.6-1.5,3-3.1,2.9-1.5,0-2.9-1.5-2.8-3,0-1.6,1.5-3,3.1-2.9,1.5,0,2.9,1.5,2.8,3Z"/>
  <path class="cls-4" d="M32.2,200.5c0,1.6-1.4,3-2.9,3-1.5,0-2.9-1.3-2.9-2.9,0-1.6,1.4-3,2.9-3,1.5,0,2.9,1.3,2.9,2.9Z"/>
  <path class="cls-4" d="M50.7,197.6c1.6,0,3,1.5,2.9,3.1,0,1.5-1.5,2.9-3,2.8-1.6,0-3-1.5-2.9-3.1,0-1.5,1.5-2.9,3-2.8Z"/>
  <path class="cls-4" d="M75.1,200.5c0,1.6-1.4,3-3,3-1.5,0-2.9-1.4-2.9-2.9,0-1.6,1.4-3,3-3,1.5,0,2.9,1.4,2.9,2.9Z"/>
  <path class="cls-4" d="M96.5,200.5c0,1.6-1.4,3-3,3-1.5,0-2.9-1.3-2.9-2.9,0-1.6,1.4-3,3-3,1.5,0,2.9,1.3,2.9,2.9Z"/>
  <path class="cls-4" d="M118,200.5c0,1.6-1.4,3-3,3-1.5,0-2.9-1.4-2.9-2.9,0-1.6,1.4-3,3-3,1.5,0,2.9,1.4,2.9,2.9Z"/>
  <path class="cls-4" d="M139.4,200.5c0,1.6-1.4,3-3,3-1.5,0-2.9-1.4-2.9-2.9,0-1.6,1.4-3,3-3,1.5,0,2.9,1.4,2.9,2.9Z"/>
  <path class="cls-4" d="M157.9,203.5c-1.6,0-3-1.4-2.9-3,0-1.5,1.4-2.9,3-2.9,1.6,0,3,1.4,2.9,3,0,1.5-1.4,2.9-3,2.9Z"/>
  <path class="cls-4" d="M182.3,200.5c0,1.6-1.4,3-3,3-1.5,0-2.9-1.4-2.9-2.9,0-1.6,1.4-3,3-3,1.5,0,2.9,1.4,2.9,2.9Z"/>
  <path class="cls-4" d="M203.7,200.6c0,1.6-1.5,3-3.1,2.9-1.5,0-2.9-1.5-2.8-3,0-1.6,1.5-3,3.1-2.9,1.5,0,2.9,1.5,2.8,3Z"/>
  <path class="cls-4" d="M225.2,200.5c0,1.6-1.4,3-3,3-1.5,0-2.9-1.4-2.9-2.9,0-1.6,1.4-3,3-3,1.5,0,2.9,1.4,2.9,2.9Z"/>
  <path class="cls-4" d="M246.6,200.5c0,1.6-1.4,3-3,3-1.5,0-2.9-1.4-2.9-2.9,0-1.6,1.4-3,3-3,1.5,0,2.9,1.4,2.9,2.9Z"/>
  <path class="cls-4" d="M268.1,200.6c0,1.6-1.5,3-3.1,2.9-1.5,0-2.9-1.5-2.8-3,0-1.6,1.5-3,3.1-2.9,1.5,0,2.9,1.5,2.8,3Z"/>
  <path class="cls-4" d="M72.1,53.4c-1.6,0-3-1.4-2.9-3,0-1.5,1.4-2.9,2.9-2.9,1.6,0,3,1.4,2.9,3,0,1.5-1.4,2.9-2.9,2.9Z"/>
  <path class="cls-4" d="M53.6,50.5c0,1.6-1.5,3-3,2.9-1.5,0-2.9-1.4-2.8-3,0-1.6,1.5-3,3-2.9,1.5,0,2.9,1.4,2.8,3Z"/>
  <path class="cls-4" d="M29.3,47.5c1.6,0,3,1.4,2.9,3,0,1.5-1.4,2.9-3,2.9-1.6,0-3-1.4-2.9-3,0-1.5,1.4-2.9,3-2.9Z"/>
  <path class="cls-4" d="M10.7,50.4c0,1.6-1.4,3-3,3-1.5,0-2.9-1.3-2.9-2.9,0-1.6,1.4-3,3-3,1.5,0,2.9,1.3,2.9,2.9Z"/>
  <path class="cls-4" d="M268.1,179.1c0,1.6-1.4,3-3,3-1.5,0-2.9-1.4-2.9-2.9,0-1.6,1.4-3,3-3,1.5,0,2.9,1.4,2.9,2.9Z"/>
  <path class="cls-4" d="M246.6,179.1c0,1.6-1.4,3-3,3-1.5,0-2.9-1.4-2.9-2.9,0-1.6,1.4-3,3-3,1.5,0,2.9,1.4,2.9,2.9Z"/>
  <path class="cls-4" d="M225.2,179c0,1.6-1.4,3-2.9,3-1.5,0-2.9-1.3-2.9-2.9,0-1.6,1.4-3,2.9-3,1.5,0,2.9,1.3,2.9,2.9Z"/>
  <path class="cls-4" d="M203.7,179.1c0,1.6-1.5,3-3,2.9-1.5,0-2.9-1.4-2.8-3,0-1.6,1.5-3,3-2.9,1.5,0,2.9,1.4,2.8,3Z"/>
  <path class="cls-4" d="M182.3,179.1c0,1.6-1.5,3-3,2.9-1.5,0-2.9-1.4-2.8-3,0-1.6,1.5-3,3-2.9,1.5,0,2.9,1.4,2.8,3Z"/>
  <path class="cls-4" d="M160.8,179c0,1.6-1.4,3-3,3-1.5,0-2.9-1.3-2.9-2.9,0-1.6,1.4-3,3-3,1.5,0,2.9,1.3,2.9,2.9Z"/>
  <path class="cls-4" d="M136.5,182c-1.6,0-3-1.4-3-3,0-1.5,1.4-2.9,2.9-2.9,1.6,0,3,1.4,3,3,0,1.5-1.4,2.9-2.9,2.9Z"/>
  <path class="cls-4" d="M118,179.2c0,1.6-1.5,3-3.1,2.9-1.5,0-2.9-1.5-2.8-3,0-1.6,1.5-3,3.1-2.9,1.5,0,2.9,1.5,2.8,3Z"/>
  <path class="cls-4" d="M93.5,182c-1.6,0-3-1.5-2.9-3,0-1.5,1.4-2.9,3-2.8,1.6,0,3,1.5,2.9,3,0,1.5-1.4,2.9-3,2.8Z"/>
  <path class="cls-4" d="M75.1,179.1c0,1.6-1.4,3-3,3-1.5,0-2.9-1.4-2.9-2.9,0-1.6,1.4-3,3-3,1.5,0,2.9,1.4,2.9,2.9Z"/>
  <path class="cls-4" d="M50.7,182c-1.6,0-3-1.5-2.9-3,0-1.5,1.4-2.9,3-2.8,1.6,0,3,1.5,2.9,3,0,1.5-1.4,2.9-3,2.8Z"/>
  <path class="cls-4" d="M32.2,179.1c0,1.6-1.5,3-3,2.9-1.5,0-2.9-1.4-2.8-3,0-1.6,1.5-3,3-2.9,1.5,0,2.9,1.4,2.8,3Z"/>
  <path class="cls-4" d="M7.8,176.2c1.6,0,3,1.4,2.9,3,0,1.5-1.4,2.9-2.9,2.9-1.6,0-3-1.4-2.9-3,0-1.5,1.4-2.9,2.9-2.9Z"/>
  <path class="cls-4" d="M7.8,111.8c1.6,0,3,1.4,3,3,0,1.5-1.4,2.9-2.9,2.9-1.6,0-3-1.4-3-3,0-1.5,1.4-2.9,2.9-2.9Z"/>
  <path class="cls-4" d="M29.3,117.7c-1.6,0-3-1.4-3-3,0-1.5,1.4-2.9,2.9-2.9,1.6,0,3,1.4,3,3,0,1.5-1.4,2.9-2.9,2.9Z"/>
  <path class="cls-4" d="M96.5,71.9c0,1.6-1.4,3-3,3-1.5,0-2.9-1.4-2.9-2.9,0-1.6,1.4-3,3-3,1.5,0,2.9,1.4,2.9,2.9Z"/>
  <path class="cls-4" d="M72.2,74.8c-1.6,0-3-1.4-3-3,0-1.5,1.3-2.9,2.9-2.9,1.6,0,3,1.4,3,3,0,1.5-1.3,2.9-2.9,2.9Z"/>
  <path class="cls-4" d="M50.7,117.7c-1.6,0-3-1.4-3-3,0-1.5,1.4-2.9,2.9-2.9,1.6,0,3,1.4,3,3,0,1.5-1.4,2.9-2.9,2.9Z"/>
  <path class="cls-4" d="M75.1,114.8c0,1.6-1.5,3-3.1,2.9-1.5,0-2.9-1.5-2.8-3,0-1.6,1.5-3,3.1-2.9,1.5,0,2.9,1.5,2.8,3Z"/>
  <path class="cls-4" d="M10.7,29c0,1.6-1.4,3-3,3-1.5,0-2.9-1.4-2.9-2.9,0-1.6,1.4-3,3-3,1.5,0,2.9,1.4,2.9,2.9Z"/>
  <path class="cls-4" d="M29.2,32c-1.6,0-3-1.5-2.9-3,0-1.5,1.4-2.9,3-2.8,1.6,0,3,1.5,2.9,3,0,1.5-1.4,2.9-3,2.8Z"/>
  <path class="cls-4" d="M53.6,29c0,1.6-1.4,3-3,3-1.5,0-2.9-1.3-2.9-2.9,0-1.6,1.4-3,3-3,1.5,0,2.9,1.3,2.9,2.9Z"/>
  <path class="cls-4" d="M75.1,28.9c0,1.6-1.4,3-2.9,3-1.5,0-2.9-1.3-2.9-2.9,0-1.6,1.4-3,2.9-3,1.5,0,2.9,1.3,2.9,2.9Z"/>
  <path class="cls-4" d="M93.5,26.1c1.6,0,3,1.4,3,3,0,1.5-1.3,2.9-2.9,2.9-1.6,0-3-1.4-3-3,0-1.5,1.3-2.9,2.9-2.9Z"/>
  <path class="cls-4" d="M115,32c-1.6,0-3-1.4-2.9-3,0-1.5,1.4-2.9,2.9-2.9,1.6,0,3,1.4,2.9,3,0,1.5-1.4,2.9-2.9,2.9Z"/>
  <path class="cls-4" d="M29.3,96.3c-1.6,0-3-1.4-3-3,0-1.5,1.4-2.9,2.9-2.9,1.6,0,3,1.4,3,3,0,1.5-1.4,2.9-2.9,2.9Z"/>
  <path class="cls-4" d="M7.8,96.3c-1.6,0-3-1.5-2.9-3,0-1.5,1.4-2.9,3-2.8,1.6,0,3,1.5,2.9,3,0,1.5-1.4,2.9-3,2.8Z"/>
  <path class="cls-4" d="M136.5,32c-1.6,0-3-1.4-2.9-3,0-1.5,1.4-2.9,3-2.9,1.6,0,3,1.4,2.9,3,0,1.5-1.4,2.9-3,2.9Z"/>
  <path class="cls-4" d="M160.8,29c0,1.6-1.5,3-3,2.9-1.5,0-2.9-1.4-2.8-3,0-1.6,1.5-3,3-2.9,1.5,0,2.9,1.4,2.8,3Z"/>
  <path class="cls-4" d="M179.3,32c-1.6,0-3-1.5-2.9-3.1,0-1.5,1.5-2.8,3-2.8,1.6,0,3,1.5,2.9,3.1,0,1.5-1.5,2.8-3,2.8Z"/>
  <path class="cls-4" d="M203.7,29c0,1.6-1.4,3-3,3-1.5,0-2.9-1.4-2.9-2.9,0-1.6,1.4-3,3-3,1.5,0,2.9,1.4,2.9,2.9Z"/>
  <path class="cls-4" d="M225.2,29c0,1.6-1.4,3-3,3-1.5,0-2.9-1.4-2.9-2.9,0-1.6,1.4-3,3-3,1.5,0,2.9,1.4,2.9,2.9Z"/>
  <path class="cls-4" d="M50.7,74.8c-1.6,0-3-1.4-2.9-3,0-1.5,1.4-2.9,3-2.9,1.6,0,3,1.4,2.9,3,0,1.5-1.4,2.9-3,2.9Z"/>
  <path class="cls-4" d="M265.2,160.6c-1.6,0-3-1.4-3-3,0-1.5,1.3-2.9,2.9-2.9,1.6,0,3,1.4,3,3,0,1.5-1.3,2.9-2.9,2.9Z"/>
  <path class="cls-4" d="M243.7,154.7c1.6,0,3,1.5,2.9,3.1,0,1.5-1.5,2.9-3,2.8-1.6,0-3-1.5-2.9-3.1,0-1.5,1.5-2.9,3-2.8Z"/>
  <path class="cls-4" d="M222.2,154.7c1.6,0,3,1.4,2.9,3,0,1.5-1.4,2.9-2.9,2.9-1.6,0-3-1.4-2.9-3,0-1.5,1.4-2.9,2.9-2.9Z"/>
  <path class="cls-4" d="M203.7,157.7c0,1.6-1.5,3-3.1,2.9-1.5,0-2.8-1.5-2.8-3,0-1.6,1.5-3,3.1-2.9,1.5,0,2.8,1.5,2.8,3Z"/>
  <path class="cls-4" d="M182.3,157.7c0,1.6-1.5,3-3,2.9-1.5,0-2.9-1.4-2.8-3,0-1.6,1.5-3,3-2.9,1.5,0,2.9,1.4,2.8,3Z"/>
  <path class="cls-4" d="M10.7,222c0,1.6-1.4,3-3,2.9-1.5,0-2.9-1.4-2.9-3,0-1.6,1.4-3,3-2.9,1.5,0,2.9,1.4,2.9,3Z"/>
  <path class="cls-4" d="M29.3,219c1.6,0,3,1.5,2.9,3.1,0,1.5-1.5,2.8-3,2.8-1.6,0-3-1.5-2.9-3.1,0-1.5,1.5-2.8,3-2.8Z"/>
  <path class="cls-4" d="M53.6,222c0,1.6-1.5,3-3,2.9-1.5,0-2.9-1.4-2.8-3,0-1.6,1.5-3,3-2.9,1.5,0,2.9,1.4,2.8,3Z"/>
  <path class="cls-4" d="M75.1,222c0,1.6-1.5,3-3,2.9-1.5,0-2.9-1.4-2.8-3,0-1.6,1.5-3,3-2.9,1.5,0,2.9,1.4,2.8,3Z"/>
  <path class="cls-4" d="M93.6,219c1.6,0,3,1.5,2.9,3.1,0,1.5-1.5,2.9-3,2.8-1.6,0-3-1.5-2.9-3.1,0-1.5,1.5-2.9,3-2.8Z"/>
  <path class="cls-4" d="M118,222.1c0,1.6-1.5,2.9-3.1,2.8-1.6-.1-2.8-1.5-2.8-3,0-1.6,1.5-2.9,3.1-2.8,1.6.1,2.8,1.5,2.8,3Z"/>
  <path class="cls-4" d="M136.5,219c1.6,0,3,1.5,2.9,3.1,0,1.5-1.5,2.9-3,2.8-1.6,0-3-1.5-2.9-3.1,0-1.5,1.5-2.9,3-2.8Z"/>
  <path class="cls-4" d="M160.8,222c0,1.6-1.4,3-3,2.9-1.5,0-2.9-1.4-2.9-3,0-1.6,1.4-3,3-2.9,1.5,0,2.9,1.4,2.9,3Z"/>
  <path class="cls-4" d="M179.4,219c1.6,0,3,1.4,2.9,3,0,1.5-1.4,2.9-3,2.9-1.6,0-3-1.4-2.9-3,0-1.5,1.4-2.9,3-2.9Z"/>
  <path class="cls-4" d="M200.8,224.9c-1.6,0-3-1.4-2.9-3,0-1.5,1.4-2.9,3-2.9,1.6,0,3,1.4,2.9,3,0,1.5-1.4,2.9-3,2.9Z"/>
  <path class="cls-4" d="M225.2,222c0,1.6-1.4,3-3,2.9-1.5,0-2.9-1.4-2.9-3,0-1.6,1.4-3,3-2.9,1.5,0,2.9,1.4,2.9,3Z"/>
  <path class="cls-4" d="M246.6,221.9c0,1.6-1.4,3-3,3-1.5,0-2.9-1.3-2.9-2.9,0-1.6,1.4-3,3-3,1.5,0,2.9,1.3,2.9,2.9Z"/>
  <path class="cls-4" d="M268.1,222c0,1.6-1.4,3-3,3-1.5,0-2.9-1.4-2.9-2.9,0-1.6,1.4-3,3-3,1.5,0,2.9,1.4,2.9,2.9Z"/>
  <path class="cls-4" d="M157.9,160.6c-1.6,0-3-1.4-2.9-3,0-1.5,1.4-2.9,3-2.9,1.6,0,3,1.4,2.9,3,0,1.5-1.4,2.9-3,2.9Z"/>
  <path class="cls-4" d="M139.4,157.7c0,1.6-1.4,3-3,2.9-1.5,0-2.9-1.4-2.9-2.9,0-1.6,1.4-3,3-2.9,1.5,0,2.9,1.4,2.9,2.9Z"/>
  <path class="cls-4" d="M265.2,10.5c-1.6,0-3-1.4-3-3,0-1.5,1.3-2.9,2.9-2.9,1.6,0,3,1.4,3,3,0,1.5-1.3,2.9-2.9,2.9Z"/>
  <path class="cls-4" d="M246.6,7.5c0,1.6-1.4,3-3,3-1.5,0-2.9-1.4-2.9-2.9,0-1.6,1.4-3,3-3,1.5,0,2.9,1.4,2.9,2.9Z"/>
  <path class="cls-4" d="M225.2,7.5c0,1.6-1.4,3-3,3-1.5,0-2.9-1.3-2.9-2.9,0-1.6,1.4-3,3-3,1.5,0,2.9,1.3,2.9,2.9Z"/>
  <path class="cls-4" d="M203.7,7.6c0,1.6-1.4,3-3,2.9-1.5,0-2.9-1.4-2.9-3,0-1.6,1.4-3,3-2.9,1.5,0,2.9,1.4,2.9,3Z"/>
  <path class="cls-4" d="M179.4,10.5c-1.6,0-3-1.4-3-3,0-1.5,1.3-2.9,2.9-2.9,1.6,0,3,1.4,3,3,0,1.5-1.3,2.9-2.9,2.9Z"/>
  <path class="cls-4" d="M160.8,7.5c0,1.6-1.4,3-3,3-1.5,0-2.9-1.4-2.9-2.9,0-1.6,1.4-3,3-3,1.5,0,2.9,1.4,2.9,2.9Z"/>
  <path class="cls-4" d="M139.4,7.5c0,1.6-1.4,3-3,3-1.5,0-2.9-1.4-2.9-2.9,0-1.6,1.4-3,3-3,1.5,0,2.9,1.4,2.9,2.9Z"/>
  <path class="cls-4" d="M118,7.6c0,1.6-1.4,3-3,2.9-1.5,0-2.9-1.4-2.9-3,0-1.6,1.4-3,3-2.9,1.5,0,2.9,1.4,2.9,3Z"/>
  <path class="cls-4" d="M93.5,10.5c-1.6,0-3-1.5-2.9-3.1,0-1.5,1.5-2.9,3-2.8,1.6,0,3,1.5,2.9,3.1,0,1.5-1.5,2.9-3,2.8Z"/>
  <path class="cls-4" d="M75.1,7.6c0,1.6-1.5,3-3,2.9-1.5,0-2.9-1.4-2.8-3,0-1.6,1.5-3,3-2.9,1.5,0,2.9,1.4,2.8,3Z"/>
  <path class="cls-4" d="M53.6,7.5c0,1.6-1.4,3-3,3-1.5,0-2.9-1.3-2.9-2.9,0-1.6,1.4-3,3-3,1.5,0,2.9,1.3,2.9,2.9Z"/>
  <path class="cls-4" d="M32.2,7.6c0,1.6-1.5,3-3,2.9-1.5,0-2.9-1.4-2.8-3,0-1.6,1.5-3,3-2.9,1.5,0,2.9,1.4,2.8,3Z"/>
  <path class="cls-4" d="M265.1,267.8c-1.6,0-3-1.4-2.9-3,0-1.5,1.4-2.9,2.9-2.9,1.6,0,3,1.4,2.9,3,0,1.5-1.4,2.9-2.9,2.9Z"/>
  <path class="cls-4" d="M243.7,267.8c-1.6,0-3-1.4-2.9-3,0-1.5,1.4-2.9,2.9-2.9,1.6,0,3,1.4,2.9,3,0,1.5-1.4,2.9-2.9,2.9Z"/>
  <path class="cls-4" d="M115,154.7c1.6,0,3,1.5,2.9,3,0,1.5-1.4,2.9-3,2.8-1.6,0-3-1.5-2.9-3,0-1.5,1.4-2.9,3-2.8Z"/>
  <path class="cls-4" d="M96.5,157.7c0,1.6-1.5,3-3,2.9-1.5,0-2.9-1.4-2.8-3,0-1.6,1.5-3,3-2.9,1.5,0,2.9,1.4,2.8,3Z"/>
  <path class="cls-4" d="M75.1,157.7c0,1.6-1.4,3-3,2.9-1.5,0-2.9-1.4-2.9-3,0-1.6,1.4-3,3-2.9,1.5,0,2.9,1.4,2.9,3Z"/>
  <path class="cls-4" d="M50.6,154.7c1.6,0,3,1.4,3,2.9,0,1.5-1.3,2.9-2.9,2.9-1.6,0-3-1.4-3-2.9,0-1.5,1.3-2.9,2.9-2.9Z"/>
  <path class="cls-4" d="M29.2,160.6c-1.6,0-3-1.5-2.9-3,0-1.5,1.4-2.9,3-2.8,1.6,0,3,1.5,2.9,3,0,1.5-1.4,2.9-3,2.8Z"/>
  <path class="cls-4" d="M10.7,157.6c0,1.6-1.4,3-3,3-1.5,0-2.9-1.4-2.9-2.9,0-1.6,1.4-3,3-3,1.5,0,2.9,1.4,2.9,2.9Z"/>
  <path class="cls-4" d="M90.6,114.7c0-1.6,1.5-2.9,3.1-2.8,1.6.1,2.8,1.5,2.8,3,0,1.6-1.5,2.9-3.1,2.8-1.6-.1-2.8-1.5-2.8-3Z"/>
  <path class="cls-4" d="M118,114.8c0,1.6-1.4,3-3,2.9-1.5,0-2.9-1.4-2.9-2.9,0-1.6,1.4-3,3-2.9,1.5,0,2.9,1.4,2.9,2.9Z"/>
  <path class="cls-4" d="M136.4,111.8c1.6,0,3,1.4,3,3,0,1.5-1.3,2.9-2.9,2.9-1.6,0-3-1.4-3-3,0-1.5,1.3-2.9,2.9-2.9Z"/>
  <path class="cls-4" d="M157.8,117.7c-1.6,0-3-1.5-2.9-3.1,0-1.5,1.5-2.8,3-2.8,1.6,0,3,1.5,2.9,3.1,0,1.5-1.5,2.8-3,2.8Z"/>
  <path class="cls-4" d="M182.3,114.8c0,1.6-1.5,3-3.1,2.9-1.5,0-2.9-1.5-2.8-3,0-1.6,1.5-3,3.1-2.9,1.5,0,2.9,1.5,2.8,3Z"/>
  <path class="cls-4" d="M200.8,111.8c1.6,0,3,1.5,2.9,3.1,0,1.5-1.5,2.9-3,2.8-1.6,0-3-1.5-2.9-3.1,0-1.5,1.5-2.9,3-2.8Z"/>
  <path class="cls-4" d="M225.2,114.8c0,1.6-1.4,3-3,2.9-1.5,0-2.9-1.4-2.9-2.9,0-1.6,1.4-3,3-2.9,1.5,0,2.9,1.4,2.9,2.9Z"/>
  <path class="cls-4" d="M243.7,111.8c1.6,0,3,1.5,2.9,3,0,1.5-1.4,2.9-3,2.8-1.6,0-3-1.5-2.9-3,0-1.5,1.4-2.9,3-2.8Z"/>
  <path class="cls-4" d="M268.1,114.8c0,1.6-1.4,3-3,2.9-1.5,0-2.9-1.4-2.9-3,0-1.6,1.4-3,3-2.9,1.5,0,2.9,1.4,2.9,3Z"/>
  <path class="cls-4" d="M222.3,261.9c1.6,0,3,1.5,2.9,3.1,0,1.5-1.5,2.9-3,2.8-1.6,0-3-1.5-2.9-3.1,0-1.5,1.5-2.9,3-2.8Z"/>
  <path class="cls-4" d="M203.7,264.9c0,1.6-1.5,3-3.1,2.9-1.5,0-2.9-1.5-2.8-3,0-1.6,1.5-3,3.1-2.9,1.5,0,2.9,1.5,2.8,3Z"/>
  <path class="cls-4" d="M160.8,50.5c0,1.6-1.5,3-3.1,2.9-1.5,0-2.9-1.5-2.8-3,0-1.6,1.5-3,3.1-2.9,1.5,0,2.9,1.5,2.8,3Z"/>
  <path class="cls-4" d="M179.3,53.4c-1.6,0-3-1.4-2.9-3,0-1.5,1.4-2.9,3-2.9,1.6,0,3,1.4,2.9,3,0,1.5-1.4,2.9-3,2.9Z"/>
  <path class="cls-4" d="M200.8,47.5c1.6,0,3,1.4,2.9,3,0,1.5-1.4,2.9-2.9,2.9-1.6,0-3-1.4-2.9-3,0-1.5,1.4-2.9,2.9-2.9Z"/>
  <path class="cls-4" d="M222.3,53.4c-1.6,0-3-1.4-3-3,0-1.5,1.4-2.9,2.9-2.9,1.6,0,3,1.4,3,3,0,1.5-1.4,2.9-2.9,2.9Z"/>
  <path class="cls-4" d="M243.7,53.4c-1.6,0-3-1.4-3-2.9,0-1.5,1.3-2.9,2.9-2.9,1.6,0,3,1.4,3,2.9,0,1.5-1.3,2.9-2.9,2.9Z"/>
  <path class="cls-4" d="M265.2,53.4c-1.6,0-3-1.4-3-3,0-1.5,1.3-2.9,2.9-2.9,1.6,0,3,1.4,3,3,0,1.5-1.3,2.9-2.9,2.9Z"/>
  <path class="cls-4" d="M182.3,264.9c0,1.6-1.5,3-3,2.9-1.5,0-2.9-1.4-2.8-3,0-1.6,1.5-3,3-2.9,1.5,0,2.9,1.4,2.8,3Z"/>
  <path class="cls-4" d="M160.8,264.9c0,1.6-1.5,3-3.1,2.9-1.5,0-2.9-1.5-2.8-3,0-1.6,1.5-3,3.1-2.9,1.5,0,2.9,1.5,2.8,3Z"/>
  <path class="cls-4" d="M139.4,264.8c0,1.6-1.4,3-3,3-1.5,0-2.9-1.4-2.9-2.9,0-1.6,1.4-3,3-3,1.5,0,2.9,1.4,2.9,2.9Z"/>
  <path class="cls-4" d="M7.8,246.4c-1.6,0-3-1.4-2.9-3,0-1.5,1.4-2.9,2.9-2.9,1.6,0,3,1.4,2.9,3,0,1.5-1.4,2.9-2.9,2.9Z"/>
  <path class="cls-4" d="M32.2,243.5c0,1.6-1.5,3-3.1,2.9-1.5,0-2.9-1.5-2.8-3,0-1.6,1.5-3,3.1-2.9,1.5,0,2.9,1.5,2.8,3Z"/>
  <path class="cls-4" d="M53.6,243.4c0,1.6-1.4,3-3,2.9-1.5,0-2.9-1.4-2.9-2.9,0-1.6,1.4-3,3-2.9,1.5,0,2.9,1.4,2.9,2.9Z"/>
  <path class="cls-4" d="M75.1,243.5c0,1.6-1.5,3-3.1,2.9-1.5,0-2.9-1.5-2.8-3,0-1.6,1.5-3,3.1-2.9,1.5,0,2.9,1.5,2.8,3Z"/>
  <path class="cls-4" d="M96.5,243.4c0,1.6-1.4,3-3,3-1.5,0-2.9-1.3-2.9-2.9,0-1.6,1.4-3,3-3,1.5,0,2.9,1.3,2.9,2.9Z"/>
  <path class="cls-4" d="M118,243.4c0,1.6-1.4,3-3,3-1.5,0-2.9-1.4-2.9-2.9,0-1.6,1.4-3,3-3,1.5,0,2.9,1.4,2.9,2.9Z"/>
  <path class="cls-4" d="M136.5,240.5c1.6,0,3,1.5,2.9,3.1,0,1.5-1.5,2.9-3,2.8-1.6,0-3-1.5-2.9-3.1,0-1.5,1.5-2.9,3-2.8Z"/>
  <path class="cls-4" d="M158,246.4c-1.6,0-3-1.4-3-2.9,0-1.5,1.3-2.9,2.9-2.9,1.6,0,3,1.4,3,2.9,0,1.5-1.3,2.9-2.9,2.9Z"/>
  <path class="cls-4" d="M182.3,243.4c0,1.6-1.4,3-3,2.9-1.5,0-2.9-1.4-2.9-2.9,0-1.6,1.4-3,3-2.9,1.5,0,2.9,1.4,2.9,2.9Z"/>
  <path class="cls-4" d="M200.8,246.4c-1.6,0-3-1.4-3-3,0-1.5,1.4-2.9,2.9-2.9,1.6,0,3,1.4,3,3,0,1.5-1.4,2.9-2.9,2.9Z"/>
  <path class="cls-4" d="M222.3,246.4c-1.6,0-3-1.4-3-3,0-1.5,1.4-2.9,2.9-2.9,1.6,0,3,1.4,3,3,0,1.5-1.4,2.9-2.9,2.9Z"/>
  <path class="cls-4" d="M243.7,240.5c1.6,0,3,1.5,2.9,3.1,0,1.5-1.5,2.9-3,2.8-1.6,0-3-1.5-2.9-3.1,0-1.5,1.5-2.9,3-2.8Z"/>
  <path class="cls-4" d="M268.1,243.4c0,1.6-1.4,3-3,2.9-1.5,0-2.9-1.4-2.9-3,0-1.6,1.4-3,3-2.9,1.5,0,2.9,1.4,2.9,3Z"/>
  <path class="cls-4" d="M115.1,267.8c-1.6,0-3-1.4-3-3,0-1.5,1.3-2.9,2.9-2.9,1.6,0,3,1.4,3,3,0,1.5-1.3,2.9-2.9,2.9Z"/>
  <path class="cls-4" d="M10.7,7.5c0,1.6-1.4,3-3,3-1.5,0-2.9-1.3-2.9-2.9,0-1.6,1.4-3,3-3,1.5,0,2.9,1.3,2.9,2.9Z"/>
  <path class="cls-4" d="M93.6,261.9c1.6,0,3,1.4,3,3,0,1.5-1.4,2.9-2.9,2.9-1.6,0-3-1.4-3-3,0-1.5,1.4-2.9,2.9-2.9Z"/>
  <path class="cls-4" d="M72.1,261.9c1.6,0,3,1.4,3,3,0,1.5-1.4,2.9-2.9,2.9-1.6,0-3-1.4-3-3,0-1.5,1.4-2.9,2.9-2.9Z"/>
  <path class="cls-4" d="M50.7,261.9c1.6,0,3,1.5,2.9,3.1,0,1.5-1.5,2.9-3,2.8-1.6,0-3-1.5-2.9-3.1,0-1.5,1.5-2.9,3-2.8Z"/>
  <path class="cls-4" d="M32.2,264.8c0,1.6-1.4,3-3,3-1.5,0-2.9-1.3-2.9-2.9,0-1.6,1.4-3,3-3,1.5,0,2.9,1.3,2.9,2.9Z"/>
  <path class="cls-4" d="M10.7,264.9c0,1.6-1.5,3-3.1,2.9-1.5,0-2.8-1.5-2.8-3,0-1.6,1.5-3,3.1-2.9,1.5,0,2.8,1.5,2.8,3Z"/>
  <path class="cls-4" d="M118,71.9c0,1.6-1.4,3-3,2.9-1.5,0-2.9-1.4-2.9-2.9,0-1.6,1.4-3,3-2.9,1.5,0,2.9,1.4,2.9,2.9Z"/>
  <path class="cls-4" d="M136.4,74.8c-1.6,0-3-1.5-2.9-3.1,0-1.5,1.5-2.9,3-2.8,1.6,0,3,1.5,2.9,3.1,0,1.5-1.5,2.9-3,2.8Z"/>
  <path class="cls-4" d="M160.8,71.9c0,1.6-1.4,3-3,3-1.5,0-2.9-1.4-2.9-2.9,0-1.6,1.4-3,3-3,1.5,0,2.9,1.4,2.9,2.9Z"/>
  <path class="cls-4" d="M179.3,68.9c1.6,0,3,1.4,3,3,0,1.5-1.3,2.9-2.9,2.9-1.6,0-3-1.4-3-3,0-1.5,1.3-2.9,2.9-2.9Z"/>
  <path class="cls-4" d="M203.7,71.8c0,1.6-1.4,3-2.9,3-1.5,0-2.9-1.3-2.9-2.9,0-1.6,1.4-3,2.9-3,1.5,0,2.9,1.3,2.9,2.9Z"/>
  <path class="cls-4" d="M225.2,71.9c0,1.6-1.5,3-3,2.9-1.5,0-2.9-1.4-2.8-3,0-1.6,1.5-3,3-2.9,1.5,0,2.9,1.4,2.8,3Z"/>
  <path class="cls-4" d="M246.6,71.9c0,1.6-1.5,3-3.1,2.9-1.5,0-2.9-1.5-2.8-3,0-1.6,1.5-3,3.1-2.9,1.5,0,2.9,1.5,2.8,3Z"/>
  <path class="cls-4" d="M265.2,68.9c1.6,0,3,1.5,2.9,3,0,1.5-1.4,2.9-3,2.8-1.6,0-3-1.5-2.9-3,0-1.5,1.4-2.9,3-2.8Z"/>
  <path class="cls-4" d="M32.2,72c0,1.6-1.5,3-3.1,2.9-1.5,0-2.8-1.5-2.8-3,0-1.6,1.5-3,3.1-2.9,1.5,0,2.8,1.5,2.8,3Z"/>
  <path class="cls-4" d="M10.7,72c0,1.6-1.5,3-3.1,2.9-1.5,0-2.9-1.5-2.8-3,0-1.6,1.5-3,3.1-2.9,1.5,0,2.9,1.5,2.8,3Z"/>
  <path class="cls-4" d="M243.7,26.1c1.6,0,3,1.4,3,3,0,1.5-1.4,2.9-2.9,2.9-1.6,0-3-1.4-3-3,0-1.5,1.4-2.9,2.9-2.9Z"/>
  <path class="cls-4" d="M268.1,29c0,1.6-1.5,3-3,2.9-1.5,0-2.9-1.4-2.8-3,0-1.6,1.5-3,3-2.9,1.5,0,2.9,1.4,2.8,3Z"/>
  <path class="cls-4" d="M268.1,136.2c0,1.6-1.4,3-3,3-1.5,0-2.9-1.3-2.9-2.9,0-1.6,1.4-3,3-3,1.5,0,2.9,1.3,2.9,2.9Z"/>
  <path class="cls-4" d="M246.6,136.3c0,1.6-1.5,3-3.1,2.9-1.5,0-2.8-1.5-2.8-3,0-1.6,1.5-3,3.1-2.9,1.5,0,2.8,1.5,2.8,3Z"/>
  <path class="cls-4" d="M222.2,133.3c1.6,0,3,1.4,3,3,0,1.5-1.4,2.9-2.9,2.9-1.6,0-3-1.4-3-3,0-1.5,1.4-2.9,2.9-2.9Z"/>
  <path class="cls-4" d="M203.7,136.3c0,1.6-1.5,3-3.1,2.9-1.5,0-2.9-1.5-2.8-3,0-1.6,1.5-3,3.1-2.9,1.5,0,2.9,1.5,2.8,3Z"/>
  <path class="cls-4" d="M182.3,136.2c0,1.6-1.4,3-2.9,3-1.5,0-2.9-1.3-2.9-2.9,0-1.6,1.4-3,2.9-3,1.5,0,2.9,1.3,2.9,2.9Z"/>
  <path class="cls-4" d="M157.9,139.2c-1.6,0-3-1.4-2.9-3,0-1.5,1.4-2.9,2.9-2.9,1.6,0,3,1.4,2.9,3,0,1.5-1.4,2.9-2.9,2.9Z"/>
  <path class="cls-4" d="M139.4,136.2c0,1.6-1.4,3-2.9,3-1.5,0-2.9-1.3-2.9-2.9,0-1.6,1.4-3,2.9-3,1.5,0,2.9,1.3,2.9,2.9Z"/>
  <path class="cls-4" d="M118,136.3c0,1.6-1.5,3-3.1,2.9-1.5,0-2.9-1.5-2.8-3,0-1.6,1.5-3,3.1-2.9,1.5,0,2.9,1.5,2.8,3Z"/>
  <path class="cls-4" d="M93.6,139.2c-1.6,0-3-1.4-2.9-3,0-1.5,1.4-2.9,3-2.9,1.6,0,3,1.4,2.9,3,0,1.5-1.4,2.9-3,2.9Z"/>
  <path class="cls-4" d="M72,139.2c-1.6,0-2.9-1.5-2.8-3.1.1-1.6,1.5-2.8,3-2.8,1.6,0,2.9,1.5,2.8,3.1-.1,1.6-1.5,2.8-3,2.8Z"/>
  <path class="cls-4" d="M53.6,136.2c0,1.6-1.4,3-3,2.9-1.5,0-2.9-1.4-2.9-2.9,0-1.6,1.4-3,3-2.9,1.5,0,2.9,1.4,2.9,2.9Z"/>
  <path class="cls-4" d="M32.2,136.2c0,1.6-1.4,3-3,3-1.5,0-2.9-1.3-2.9-2.9,0-1.6,1.4-3,3-3,1.5,0,2.9,1.3,2.9,2.9Z"/>
  <path class="cls-4" d="M7.8,133.3c1.6,0,3,1.4,3,3,0,1.5-1.4,2.9-2.9,2.9-1.6,0-3-1.4-3-3,0-1.5,1.4-2.9,2.9-2.9Z"/>
  <path class="cls-1" d="M-2.9,37c1.7-.2,2.9,1,3,2.6,0,1.6-1.1,2.8-3,2.8,1.1-.6,2.5-1.2,2.4-2.7,0-1.5-1.1-2.2-2.4-2.7Z"/>
  <path class="cls-1" d="M-3,229.9c1.2-.2,1.9.4,2.5,1.2.7.9.8,2,.2,3-.6.9-1.4,1.5-2.7,1.5,3.4-2.8,3.4-3.1,0-5.7Z"/>
  <path class="cls-1" d="M-2.9,85.4c3-1.5,3.3-3.8,0-5.5,1-.2,1.7,0,2.3.9.7.9.9,2,.3,3-.5,1-1.4,1.7-2.6,1.5Z"/>
  <path class="cls-1" d="M-3.2,64.1c3.4-2.6,3.4-3.9.1-5.6,1-.5,1.6,0,2.1.6.9.8,1.2,1.9.8,3-.4,1.2-1.4,1.9-3,2Z"/>
  <path class="cls-1" d="M-3,122.7c1.1-.2,1.8.3,2.4,1.1.7,1,.9,2.1.3,3.1-.6.9-1.4,1.5-2.7,1.5,3.3-2.9,3.3-3.2,0-5.7Z"/>
  <path class="cls-1" d="M-3.2,278.5c3.4-2.6,3.4-3.9.1-5.6,1-.5,1.6,0,2.1.6.9.8,1.2,1.9.8,3-.4,1.2-1.4,1.9-3,2Z"/>
  <path class="cls-1" d="M-2.9,214c3-1.4,3.4-3.7,0-5.5,1-.2,1.7,0,2.3.9.7.9.9,2,.3,3-.5,1-1.4,1.7-2.6,1.5Z"/>
  <path class="cls-1" d="M-2.9,251.5c1.5-.2,2.8.8,2.9,2.4.2,1.6-1,2.9-3,3,1.2-.6,2.4-1.2,2.4-2.7,0-1.5-1.1-2.2-2.4-2.7Z"/>
  <path class="cls-1" d="M-3,15.5c1.1-.2,1.8.3,2.4,1.1.7,1,.9,2.1.3,3.1-.6.9-1.4,1.5-2.7,1.5,3.3-2.9,3.3-3.2,0-5.7Z"/>
  <path class="cls-1" d="M-3.2,149.9c3.5-2.6,3.5-3.8.1-5.7,1-.4,1.6.1,2.1.6.9.8,1.2,1.9.8,3.1-.4,1.2-1.4,1.9-3,2Z"/>
  <path class="cls-1" d="M-2.9,187.1c1.6-.2,2.9.9,3,2.6,0,1.6-1.1,2.8-3,2.8,1.1-.6,2.4-1.2,2.4-2.7,0-1.5-1.1-2.2-2.4-2.7Z"/>
  <path class="cls-1" d="M-2.9,101.4c1.6-.2,2.9.9,3,2.6,0,1.6-1.1,2.8-3,2.8,1.1-.6,2.4-1.2,2.4-2.7,0-1.5-1.1-2.2-2.4-2.7Z"/>
  <path class="cls-1" d="M-3.2,171.3c3.5-2.6,3.5-3.8.1-5.7,1-.4,1.6.1,2.1.6.9.8,1.2,1.9.8,3.1-.4,1.2-1.4,1.9-3,2Z"/>
  <path class="cls-5" d="M10.6,286.4c-2.7-3.3-2.9-3.3-5.7,0-.1-1.2.4-2,1.3-2.6,1-.6,2-.6,3,0,.9.6,1.4,1.3,1.3,2.6Z"/>
  <path class="cls-5" d="M32,286.3c-.6-1.2-1.2-2.3-2.7-2.4-1.6,0-2.2,1.1-2.6,2.5-.4-1-.2-1.7.6-2.3,1-.8,2.2-1,3.3-.4,1,.5,1.4,1.4,1.3,2.5Z"/>
  <path class="cls-5" d="M53.5,286.4c-2.6-3.3-3.7-3.3-5.5-.1-.3-.8-.1-1.5.7-2.2,1-.8,2.2-1,3.3-.4,1,.5,1.5,1.3,1.4,2.7Z"/>
  <path class="cls-5" d="M69.5,286.3c-.3-1.2.2-2,1.1-2.5,1-.6,2.1-.6,3.1,0,.8.6,1.4,1.3,1.1,2.5-.5-1.2-1.1-2.4-2.6-2.4-1.5,0-2.3,1-2.7,2.4Z"/>
  <path class="cls-5" d="M96.4,286.6c-2.3-3.5-3.5-3.5-5.5-.3-.3-.9,0-1.5.8-2.2.9-.8,2-1,3.1-.4,1,.5,1.7,1.3,1.7,2.9Z"/>
  <path class="cls-5" d="M117.8,286.2c-2-3.2-3.2-3.2-5.5,0-.2-1,0-1.6.9-2.3,1-.7,2.1-.8,3.1-.3,1,.5,1.5,1.4,1.4,2.5Z"/>
  <path class="cls-5" d="M139.3,286.6c-2.2-3.5-3.4-3.5-5.5-.3-.2-1,0-1.6.9-2.3.9-.7,2-.9,3-.3,1,.5,1.7,1.3,1.6,2.9Z"/>
  <path class="cls-5" d="M160.7,286.6c-2.1-3.5-3.3-3.5-5.5-.3-.2-1,0-1.6.9-2.3,1-.7,2.1-.9,3.1-.3,1,.5,1.6,1.3,1.5,2.9Z"/>
  <path class="cls-5" d="M176.7,286.3c-.2-1.7,1-2.9,2.6-3,1.6,0,2.9,1.2,2.8,3-.6-1.2-1.2-2.4-2.7-2.4-1.5,0-2.1,1.1-2.7,2.4Z"/>
  <path class="cls-5" d="M203.6,286.4c-2.6-3.3-3.7-3.3-5.5-.2-.3-.8-.1-1.5.7-2.2,1-.8,2.2-1,3.3-.4,1,.5,1.5,1.3,1.4,2.7Z"/>
  <path class="cls-5" d="M219.6,286.4c-.4-1.1.2-1.8.9-2.4,1-.8,2.1-.9,3.1-.3,1,.5,1.6,1.3,1.3,2.6-.6-1.2-1.2-2.5-2.7-2.4-1.5,0-2.2,1.1-2.6,2.4Z"/>
  <path class="cls-5" d="M246.4,286.3c-.5-1.2-1.1-2.4-2.6-2.4-1.5,0-2.3,1-2.6,2.6-.4-1-.3-1.7.5-2.4,1-.9,2.1-1.1,3.3-.5,1,.5,1.7,1.3,1.4,2.7Z"/>
  <path class="cls-5" d="M268,286.5c-2.7-3.4-3.8-3.4-5.5-.2-.3-.8-.1-1.5.7-2.2,1-.8,2.2-1,3.3-.4,1,.5,1.5,1.4,1.5,2.7Z"/>
  <path class="cls-3" d="M190.1,127.9c-1.2,0-2.4-1.2-2.4-2.4,0-1.2,1.2-2.4,2.4-2.4,1.2,0,2.4,1.2,2.4,2.4,0,1.2-1.2,2.4-2.4,2.4Z"/>
  <path class="cls-3" d="M211.5,127.9c-1.2,0-2.4-1.2-2.4-2.4,0-1.2,1.2-2.4,2.4-2.4,1.2,0,2.4,1.2,2.4,2.4,0,1.2-1.2,2.4-2.4,2.4Z"/>
  <path class="cls-3" d="M235.4,125.6c0,1.2-1.3,2.4-2.5,2.3-1.2,0-2.4-1.3-2.3-2.5,0-1.2,1.3-2.4,2.5-2.3,1.2,0,2.4,1.3,2.3,2.5Z"/>
  <path class="cls-3" d="M254.4,123.1c1.2,0,2.4,1.2,2.4,2.4,0,1.2-1.2,2.4-2.4,2.4-1.2,0-2.4-1.2-2.4-2.4,0-1.2,1.2-2.4,2.4-2.4Z"/>
  <path class="cls-3" d="M278.2,125.5c0,1.2-1.2,2.4-2.4,2.4-1.2,0-2.4-1.2-2.4-2.4,0-1.2,1.2-2.4,2.4-2.4,1.2,0,2.4,1.2,2.4,2.4Z"/>
  <path class="cls-3" d="M171,125.5c0,1.2-1.3,2.4-2.4,2.4-1.2,0-2.4-1.3-2.4-2.4,0-1.2,1.3-2.4,2.4-2.4,1.2,0,2.4,1.3,2.4,2.4Z"/>
  <path class="cls-3" d="M147.3,123.1c1.2,0,2.3,1.3,2.3,2.5,0,1.2-1.3,2.3-2.5,2.3-1.2,0-2.3-1.3-2.3-2.5,0-1.2,1.3-2.3,2.5-2.3Z"/>
  <path class="cls-3" d="M128.1,125.5c0,1.2-1.2,2.4-2.4,2.4-1.2,0-2.4-1.2-2.4-2.4,0-1.2,1.2-2.4,2.4-2.4,1.2,0,2.4,1.2,2.4,2.4Z"/>
  <path class="cls-3" d="M106.7,125.5c0,1.2-1.2,2.4-2.4,2.4-1.2,0-2.4-1.2-2.4-2.4,0-1.2,1.2-2.4,2.4-2.4,1.2,0,2.4,1.2,2.4,2.4Z"/>
  <path class="cls-3" d="M85.2,125.5c0,1.2-1.2,2.4-2.4,2.4-1.2,0-2.4-1.2-2.4-2.4,0-1.2,1.2-2.4,2.4-2.4,1.2,0,2.4,1.2,2.4,2.4Z"/>
  <path class="cls-3" d="M61.4,123.1c1.2,0,2.4,1.2,2.4,2.4,0,1.2-1.2,2.4-2.4,2.4-1.2,0-2.4-1.2-2.4-2.4,0-1.2,1.2-2.4,2.4-2.4Z"/>
  <path class="cls-3" d="M40,127.9c-1.2,0-2.4-1.2-2.4-2.4,0-1.2,1.2-2.4,2.4-2.4,1.2,0,2.4,1.2,2.4,2.4,0,1.2-1.2,2.4-2.4,2.4Z"/>
  <path class="cls-3" d="M20.9,125.5c0,1.2-1.2,2.4-2.4,2.4-1.2,0-2.4-1.2-2.4-2.4,0-1.2,1.2-2.4,2.4-2.4,1.2,0,2.4,1.2,2.4,2.4Z"/>
  <path class="cls-3" d="M128.1,61.2c0,1.2-1.2,2.4-2.4,2.4-1.2,0-2.4-1.2-2.4-2.4,0-1.2,1.2-2.4,2.4-2.4,1.2,0,2.4,1.2,2.4,2.4Z"/>
  <path class="cls-3" d="M149.6,61.2c0,1.2-1.2,2.4-2.4,2.4-1.2,0-2.4-1.2-2.4-2.4,0-1.2,1.2-2.4,2.4-2.4,1.2,0,2.4,1.2,2.4,2.4Z"/>
  <path class="cls-3" d="M168.5,42.1c-1.2,0-2.3-1.3-2.3-2.5,0-1.2,1.3-2.3,2.5-2.3,1.2,0,2.3,1.3,2.3,2.5,0,1.2-1.3,2.3-2.5,2.3Z"/>
  <path class="cls-3" d="M192.5,39.8c0,1.2-1.3,2.4-2.4,2.4-1.2,0-2.4-1.3-2.4-2.4,0-1.2,1.3-2.4,2.4-2.4,1.2,0,2.4,1.3,2.4,2.4Z"/>
  <path class="cls-3" d="M211.5,37.3c1.2,0,2.4,1.2,2.4,2.4,0,1.2-1.2,2.4-2.4,2.4-1.2,0-2.4-1.2-2.4-2.4,0-1.2,1.2-2.4,2.4-2.4Z"/>
  <path class="cls-3" d="M63.8,61.2c0,1.2-1.3,2.4-2.5,2.3-1.2,0-2.4-1.3-2.3-2.5,0-1.2,1.3-2.4,2.5-2.3,1.2,0,2.4,1.3,2.3,2.5Z"/>
  <path class="cls-3" d="M40,58.8c1.2,0,2.4,1.2,2.4,2.4,0,1.2-1.2,2.4-2.4,2.4-1.2,0-2.4-1.2-2.4-2.4,0-1.2,1.2-2.4,2.4-2.4Z"/>
  <path class="cls-3" d="M16.1,61.1c0-1.2,1.2-2.4,2.4-2.4,1.2,0,2.4,1.2,2.4,2.4,0,1.2-1.2,2.4-2.4,2.4-1.2,0-2.4-1.2-2.4-2.4Z"/>
  <path class="cls-3" d="M275.8,251.7c1.2,0,2.4,1.2,2.4,2.4,0,1.2-1.2,2.4-2.4,2.4-1.2,0-2.4-1.2-2.4-2.4,0-1.2,1.2-2.4,2.4-2.4Z"/>
  <path class="cls-3" d="M256.8,254.2c0,1.2-1.3,2.4-2.5,2.3-1.2,0-2.4-1.3-2.3-2.5,0-1.2,1.3-2.4,2.5-2.3,1.2,0,2.4,1.3,2.3,2.5Z"/>
  <path class="cls-3" d="M233,251.7c1.2,0,2.4,1.3,2.3,2.5,0,1.2-1.3,2.4-2.5,2.3-1.2,0-2.4-1.3-2.3-2.5,0-1.2,1.3-2.4,2.5-2.3Z"/>
  <path class="cls-3" d="M211.4,256.5c-1.2,0-2.4-1.3-2.3-2.5,0-1.2,1.3-2.4,2.5-2.3,1.2,0,2.4,1.3,2.3,2.5,0,1.2-1.3,2.4-2.5,2.3Z"/>
  <path class="cls-3" d="M192.5,254.1c0,1.2-1.2,2.4-2.4,2.4-1.2,0-2.4-1.2-2.4-2.4,0-1.2,1.2-2.4,2.4-2.4,1.2,0,2.4,1.2,2.4,2.4Z"/>
  <path class="cls-3" d="M171,254.2c0,1.2-1.3,2.4-2.5,2.3-1.2,0-2.4-1.3-2.3-2.5,0-1.2,1.3-2.4,2.5-2.3,1.2,0,2.4,1.3,2.3,2.5Z"/>
  <path class="cls-3" d="M149.6,254.2c0,1.2-1.2,2.4-2.4,2.4-1.2,0-2.4-1.2-2.4-2.4,0-1.2,1.2-2.4,2.4-2.4,1.2,0,2.4,1.2,2.4,2.4Z"/>
  <path class="cls-3" d="M125.7,256.5c-1.2,0-2.4-1.3-2.3-2.5,0-1.2,1.3-2.4,2.5-2.3,1.2,0,2.4,1.3,2.3,2.5,0,1.2-1.3,2.4-2.5,2.3Z"/>
  <path class="cls-3" d="M104.2,256.5c-1.2,0-2.3-1.3-2.3-2.5,0-1.2,1.3-2.3,2.5-2.3,1.2,0,2.3,1.3,2.3,2.5,0,1.2-1.3,2.3-2.5,2.3Z"/>
  <path class="cls-3" d="M85.2,254.2c0,1.2-1.3,2.4-2.4,2.4-1.2,0-2.4-1.3-2.4-2.4,0-1.2,1.3-2.4,2.4-2.4,1.2,0,2.4,1.3,2.4,2.4Z"/>
  <path class="cls-3" d="M171,61.2c0,1.2-1.3,2.4-2.4,2.4-1.2,0-2.4-1.3-2.4-2.4,0-1.2,1.3-2.4,2.4-2.4,1.2,0,2.4,1.3,2.4,2.4Z"/>
  <path class="cls-3" d="M147.2,37.3c1.2,0,2.4,1.3,2.3,2.5,0,1.2-1.3,2.4-2.5,2.3-1.2,0-2.4-1.3-2.3-2.5,0-1.2,1.3-2.4,2.5-2.3Z"/>
  <path class="cls-3" d="M125.7,37.3c1.2,0,2.4,1.2,2.4,2.4,0,1.2-1.2,2.4-2.4,2.4-1.2,0-2.4-1.2-2.4-2.4,0-1.2,1.2-2.4,2.4-2.4Z"/>
  <path class="cls-3" d="M104.3,37.3c1.2,0,2.4,1.2,2.4,2.4,0,1.2-1.2,2.4-2.4,2.4-1.2,0-2.4-1.2-2.4-2.4,0-1.2,1.2-2.4,2.4-2.4Z"/>
  <path class="cls-3" d="M82.9,37.3c1.2,0,2.4,1.3,2.3,2.5,0,1.2-1.3,2.4-2.5,2.3-1.2,0-2.4-1.3-2.3-2.5,0-1.2,1.3-2.4,2.5-2.3Z"/>
  <path class="cls-3" d="M63.8,39.8c0,1.2-1.3,2.4-2.4,2.4-1.2,0-2.4-1.3-2.4-2.4,0-1.2,1.3-2.4,2.4-2.4,1.2,0,2.4,1.3,2.4,2.4Z"/>
  <path class="cls-3" d="M42.4,39.8c0,1.2-1.3,2.4-2.5,2.3-1.2,0-2.4-1.3-2.3-2.5,0-1.2,1.3-2.4,2.5-2.3,1.2,0,2.4,1.3,2.3,2.5Z"/>
  <path class="cls-3" d="M18.6,37.3c1.2,0,2.4,1.3,2.3,2.5,0,1.2-1.3,2.4-2.5,2.3-1.2,0-2.4-1.3-2.3-2.5,0-1.2,1.3-2.4,2.5-2.3Z"/>
  <path class="cls-3" d="M192.5,61.2c0,1.2-1.2,2.4-2.4,2.4-1.2,0-2.4-1.2-2.4-2.4,0-1.2,1.2-2.4,2.4-2.4,1.2,0,2.4,1.2,2.4,2.4Z"/>
  <path class="cls-3" d="M213.9,61.2c0,1.2-1.2,2.4-2.4,2.4-1.2,0-2.4-1.2-2.4-2.4,0-1.2,1.2-2.4,2.4-2.4,1.2,0,2.4,1.2,2.4,2.4Z"/>
  <path class="cls-3" d="M235.4,61.2c0,1.2-1.3,2.4-2.5,2.3-1.2,0-2.4-1.3-2.3-2.5,0-1.2,1.3-2.4,2.5-2.3,1.2,0,2.4,1.3,2.3,2.5Z"/>
  <path class="cls-3" d="M256.8,61.2c0,1.2-1.2,2.4-2.4,2.4-1.2,0-2.4-1.2-2.4-2.4,0-1.2,1.2-2.4,2.4-2.4,1.2,0,2.4,1.2,2.4,2.4Z"/>
  <path class="cls-3" d="M61.4,256.5c-1.2,0-2.4-1.2-2.4-2.4,0-1.2,1.2-2.4,2.4-2.4,1.2,0,2.4,1.2,2.4,2.4,0,1.2-1.2,2.4-2.4,2.4Z"/>
  <path class="cls-3" d="M42.4,254.2c0,1.2-1.3,2.4-2.5,2.3-1.2,0-2.4-1.3-2.3-2.5,0-1.2,1.3-2.4,2.5-2.3,1.2,0,2.4,1.3,2.3,2.5Z"/>
  <path class="cls-3" d="M278.2,61.2c0,1.2-1.2,2.4-2.4,2.4-1.2,0-2.4-1.2-2.4-2.4,0-1.2,1.2-2.4,2.4-2.4,1.2,0,2.4,1.2,2.4,2.4Z"/>
  <path class="cls-3" d="M20.9,254.2c0,1.2-1.3,2.4-2.4,2.4-1.2,0-2.4-1.3-2.4-2.4,0-1.2,1.3-2.4,2.4-2.4,1.2,0,2.4,1.3,2.4,2.4Z"/>
  <path class="cls-3" d="M18.6,144.5c1.2,0,2.4,1.3,2.4,2.4,0,1.2-1.3,2.4-2.4,2.4-1.2,0-2.4-1.3-2.4-2.4,0-1.2,1.3-2.4,2.4-2.4Z"/>
  <path class="cls-3" d="M42.4,146.9c0,1.2-1.2,2.4-2.4,2.4-1.2,0-2.4-1.2-2.4-2.4,0-1.2,1.2-2.4,2.4-2.4,1.2,0,2.4,1.2,2.4,2.4Z"/>
  <path class="cls-3" d="M63.8,147c0,1.2-1.2,2.4-2.4,2.4-1.2,0-2.4-1.2-2.4-2.4,0-1.2,1.2-2.4,2.4-2.4,1.2,0,2.4,1.2,2.4,2.4Z"/>
  <path class="cls-3" d="M85.2,146.9c0,1.2-1.2,2.4-2.4,2.4-1.2,0-2.4-1.2-2.4-2.4,0-1.2,1.2-2.4,2.4-2.4,1.2,0,2.4,1.2,2.4,2.4Z"/>
  <path class="cls-3" d="M106.7,147c0,1.2-1.3,2.3-2.5,2.3-1.2,0-2.3-1.3-2.3-2.5,0-1.2,1.3-2.3,2.5-2.3,1.2,0,2.3,1.3,2.3,2.5Z"/>
  <path class="cls-3" d="M125.7,144.5c1.2,0,2.4,1.2,2.4,2.4,0,1.2-1.2,2.4-2.4,2.4-1.2,0-2.4-1.2-2.4-2.4,0-1.2,1.2-2.4,2.4-2.4Z"/>
  <path class="cls-3" d="M147.2,144.5c1.2,0,2.4,1.2,2.4,2.4,0,1.2-1.2,2.4-2.4,2.4-1.2,0-2.4-1.2-2.4-2.4,0-1.2,1.2-2.4,2.4-2.4Z"/>
  <path class="cls-3" d="M168.6,149.3c-1.2,0-2.4-1.2-2.4-2.4,0-1.2,1.2-2.4,2.4-2.4,1.2,0,2.4,1.2,2.4,2.4,0,1.2-1.2,2.4-2.4,2.4Z"/>
  <path class="cls-3" d="M190.1,149.3c-1.2,0-2.4-1.2-2.4-2.4,0-1.2,1.2-2.4,2.4-2.4,1.2,0,2.4,1.2,2.4,2.4,0,1.2-1.2,2.4-2.4,2.4Z"/>
  <path class="cls-3" d="M213.9,147c0,1.2-1.2,2.4-2.4,2.4-1.2,0-2.4-1.2-2.4-2.4,0-1.2,1.2-2.4,2.4-2.4,1.2,0,2.4,1.2,2.4,2.4Z"/>
  <path class="cls-3" d="M235.4,147c0,1.2-1.3,2.4-2.5,2.3-1.2,0-2.4-1.3-2.3-2.5,0-1.2,1.3-2.4,2.5-2.3,1.2,0,2.4,1.3,2.3,2.5Z"/>
  <path class="cls-3" d="M256.8,146.9c0,1.2-1.2,2.4-2.4,2.4-1.2,0-2.4-1.2-2.4-2.4,0-1.2,1.2-2.4,2.4-2.4,1.2,0,2.4,1.2,2.4,2.4Z"/>
  <path class="cls-3" d="M278.2,147c0,1.2-1.2,2.4-2.4,2.4-1.2,0-2.4-1.2-2.4-2.4,0-1.2,1.2-2.4,2.4-2.4,1.2,0,2.4,1.2,2.4,2.4Z"/>
  <path class="cls-3" d="M235.4,39.8c0,1.2-1.2,2.4-2.4,2.4-1.2,0-2.4-1.2-2.4-2.4,0-1.2,1.2-2.4,2.4-2.4,1.2,0,2.4,1.2,2.4,2.4Z"/>
  <path class="cls-3" d="M256.8,39.7c0,1.2-1.2,2.4-2.4,2.4-1.2,0-2.4-1.2-2.4-2.4,0-1.2,1.2-2.4,2.4-2.4,1.2,0,2.4,1.2,2.4,2.4Z"/>
  <path class="cls-3" d="M273.4,39.7c0-1.2,1.2-2.4,2.4-2.4,1.2,0,2.4,1.2,2.4,2.4,0,1.2-1.2,2.4-2.4,2.4-1.2,0-2.4-1.2-2.4-2.4Z"/>
  <path class="cls-3" d="M82.9,63.6c-1.2,0-2.4-1.2-2.4-2.4,0-1.2,1.2-2.4,2.4-2.4,1.2,0,2.4,1.2,2.4,2.4,0,1.2-1.2,2.4-2.4,2.4Z"/>
  <path class="cls-3" d="M20.9,82.6c0,1.2-1.2,2.4-2.4,2.4-1.2,0-2.4-1.2-2.4-2.4,0-1.2,1.2-2.4,2.4-2.4,1.2,0,2.4,1.2,2.4,2.4Z"/>
  <path class="cls-3" d="M42.4,82.6c0,1.2-1.2,2.4-2.4,2.4-1.2,0-2.4-1.2-2.4-2.4,0-1.2,1.2-2.4,2.4-2.4,1.2,0,2.4,1.2,2.4,2.4Z"/>
  <path class="cls-3" d="M278.2,232.8c0,1.2-1.3,2.4-2.5,2.3-1.2,0-2.4-1.3-2.3-2.5,0-1.2,1.3-2.4,2.5-2.3,1.2,0,2.4,1.3,2.3,2.5Z"/>
  <path class="cls-3" d="M256.8,232.7c0,1.2-1.3,2.4-2.4,2.4-1.2,0-2.4-1.3-2.4-2.4,0-1.2,1.3-2.4,2.4-2.4,1.2,0,2.4,1.3,2.4,2.4Z"/>
  <path class="cls-3" d="M233,230.3c1.2,0,2.4,1.3,2.3,2.5,0,1.2-1.3,2.4-2.5,2.3-1.2,0-2.4-1.3-2.3-2.5,0-1.2,1.3-2.4,2.5-2.3Z"/>
  <path class="cls-3" d="M211.5,230.3c1.2,0,2.4,1.2,2.4,2.4,0,1.2-1.2,2.4-2.4,2.4-1.2,0-2.4-1.2-2.4-2.4,0-1.2,1.2-2.4,2.4-2.4Z"/>
  <path class="cls-3" d="M190,230.3c1.2,0,2.4,1.2,2.4,2.4,0,1.2-1.2,2.4-2.4,2.4-1.2,0-2.4-1.2-2.4-2.4,0-1.2,1.2-2.4,2.4-2.4Z"/>
  <path class="cls-3" d="M171,232.7c0,1.2-1.2,2.4-2.4,2.4-1.2,0-2.4-1.2-2.4-2.4,0-1.2,1.2-2.4,2.4-2.4,1.2,0,2.4,1.2,2.4,2.4Z"/>
  <path class="cls-3" d="M149.6,232.8c0,1.2-1.3,2.4-2.5,2.3-1.2,0-2.4-1.3-2.3-2.5,0-1.2,1.3-2.4,2.5-2.3,1.2,0,2.4,1.3,2.3,2.5Z"/>
  <path class="cls-3" d="M125.7,235.1c-1.2,0-2.4-1.2-2.4-2.4,0-1.2,1.2-2.4,2.4-2.4,1.2,0,2.4,1.2,2.4,2.4,0,1.2-1.2,2.4-2.4,2.4Z"/>
  <path class="cls-3" d="M104.2,235.1c-1.2,0-2.4-1.3-2.4-2.4,0-1.2,1.3-2.4,2.4-2.4,1.2,0,2.4,1.3,2.4,2.4,0,1.2-1.3,2.4-2.4,2.4Z"/>
  <path class="cls-3" d="M80.4,232.6c0-1.2,1.3-2.3,2.5-2.3,1.2,0,2.3,1.3,2.3,2.5,0,1.2-1.3,2.3-2.5,2.3-1.2,0-2.3-1.3-2.3-2.5Z"/>
  <path class="cls-3" d="M63.8,232.7c0,1.2-1.2,2.4-2.4,2.4-1.2,0-2.4-1.2-2.4-2.4,0-1.2,1.2-2.4,2.4-2.4,1.2,0,2.4,1.2,2.4,2.4Z"/>
  <path class="cls-3" d="M42.4,232.8c0,1.2-1.3,2.3-2.5,2.3-1.2,0-2.3-1.3-2.3-2.5,0-1.2,1.3-2.3,2.5-2.3,1.2,0,2.3,1.3,2.3,2.5Z"/>
  <path class="cls-3" d="M20.9,232.7c0,1.2-1.2,2.4-2.4,2.4-1.2,0-2.4-1.2-2.4-2.4,0-1.2,1.2-2.4,2.4-2.4,1.2,0,2.4,1.2,2.4,2.4Z"/>
  <path class="cls-3" d="M18.6,273.2c1.2,0,2.4,1.3,2.3,2.5,0,1.2-1.3,2.4-2.5,2.3-1.2,0-2.4-1.3-2.3-2.5,0-1.2,1.3-2.4,2.5-2.3Z"/>
  <path class="cls-3" d="M40,278c-1.2,0-2.4-1.2-2.4-2.4,0-1.2,1.2-2.4,2.4-2.4,1.2,0,2.4,1.2,2.4,2.4,0,1.2-1.2,2.4-2.4,2.4Z"/>
  <path class="cls-3" d="M63.8,82.7c0,1.2-1.3,2.4-2.5,2.3-1.2,0-2.4-1.3-2.3-2.5,0-1.2,1.3-2.4,2.5-2.3,1.2,0,2.4,1.3,2.3,2.5Z"/>
  <path class="cls-3" d="M82.8,85c-1.2,0-2.4-1.3-2.4-2.4,0-1.2,1.3-2.4,2.4-2.4,1.2,0,2.4,1.3,2.4,2.4,0,1.2-1.3,2.4-2.4,2.4Z"/>
  <path class="cls-3" d="M104.4,80.2c1.2,0,2.4,1.3,2.3,2.5,0,1.2-1.3,2.4-2.5,2.3-1.2,0-2.4-1.3-2.3-2.5,0-1.2,1.3-2.4,2.5-2.3Z"/>
  <path class="cls-3" d="M128.1,82.7c0,1.2-1.3,2.4-2.4,2.4-1.2,0-2.4-1.3-2.4-2.4,0-1.2,1.3-2.4,2.4-2.4,1.2,0,2.4,1.3,2.4,2.4Z"/>
  <path class="cls-3" d="M149.6,82.6c0,1.2-1.2,2.4-2.4,2.4-1.2,0-2.4-1.2-2.4-2.4,0-1.2,1.2-2.4,2.4-2.4,1.2,0,2.4,1.2,2.4,2.4Z"/>
  <path class="cls-3" d="M171,82.7c0,1.2-1.3,2.4-2.5,2.3-1.2,0-2.4-1.3-2.3-2.5,0-1.2,1.3-2.4,2.5-2.3,1.2,0,2.4,1.3,2.3,2.5Z"/>
  <path class="cls-3" d="M190,80.2c1.2,0,2.4,1.2,2.4,2.4,0,1.2-1.2,2.4-2.4,2.4-1.2,0-2.4-1.2-2.4-2.4,0-1.2,1.2-2.4,2.4-2.4Z"/>
  <path class="cls-3" d="M211.6,80.2c1.2,0,2.4,1.3,2.3,2.5,0,1.2-1.3,2.4-2.5,2.3-1.2,0-2.4-1.3-2.3-2.5,0-1.2,1.3-2.4,2.5-2.3Z"/>
  <path class="cls-3" d="M232.9,85c-1.2,0-2.4-1.3-2.3-2.5,0-1.2,1.3-2.4,2.5-2.3,1.2,0,2.4,1.3,2.3,2.5,0,1.2-1.3,2.4-2.5,2.3Z"/>
  <path class="cls-3" d="M254.4,80.2c1.2,0,2.4,1.2,2.4,2.4,0,1.2-1.2,2.4-2.4,2.4-1.2,0-2.4-1.2-2.4-2.4,0-1.2,1.2-2.4,2.4-2.4Z"/>
  <path class="cls-3" d="M275.9,85c-1.2,0-2.4-1.2-2.4-2.4,0-1.2,1.2-2.4,2.4-2.4,1.2,0,2.4,1.2,2.4,2.4,0,1.2-1.2,2.4-2.4,2.4Z"/>
  <path class="cls-3" d="M278.2,211.3c0,1.2-1.2,2.4-2.4,2.4-1.2,0-2.4-1.2-2.4-2.4,0-1.2,1.2-2.4,2.4-2.4,1.2,0,2.4,1.2,2.4,2.4Z"/>
  <path class="cls-3" d="M254.4,213.7c-1.2,0-2.4-1.2-2.4-2.4,0-1.2,1.2-2.4,2.4-2.4,1.2,0,2.4,1.2,2.4,2.4,0,1.2-1.2,2.4-2.4,2.4Z"/>
  <path class="cls-3" d="M233,208.9c1.2,0,2.4,1.3,2.3,2.5,0,1.2-1.3,2.4-2.5,2.3-1.2,0-2.4-1.3-2.3-2.5,0-1.2,1.3-2.4,2.5-2.3Z"/>
  <path class="cls-3" d="M211.5,208.9c1.2,0,2.4,1.2,2.4,2.4,0,1.2-1.2,2.4-2.4,2.4-1.2,0-2.4-1.2-2.4-2.4,0-1.2,1.2-2.4,2.4-2.4Z"/>
  <path class="cls-3" d="M192.5,211.3c0,1.2-1.2,2.4-2.4,2.4-1.2,0-2.4-1.2-2.4-2.4,0-1.2,1.2-2.4,2.4-2.4,1.2,0,2.4,1.2,2.4,2.4Z"/>
  <path class="cls-3" d="M171,211.3c0,1.2-1.3,2.4-2.5,2.3-1.2,0-2.4-1.3-2.3-2.5,0-1.2,1.3-2.4,2.5-2.3,1.2,0,2.4,1.3,2.3,2.5Z"/>
  <path class="cls-3" d="M147.1,213.7c-1.2,0-2.4-1.3-2.4-2.4,0-1.2,1.3-2.4,2.4-2.4,1.2,0,2.4,1.3,2.4,2.4,0,1.2-1.3,2.4-2.4,2.4Z"/>
  <path class="cls-3" d="M125.7,208.9c1.2,0,2.4,1.2,2.4,2.4,0,1.2-1.2,2.4-2.4,2.4-1.2,0-2.4-1.2-2.4-2.4,0-1.2,1.2-2.4,2.4-2.4Z"/>
  <path class="cls-3" d="M106.7,211.2c0,1.2-1.2,2.4-2.4,2.4-1.2,0-2.4-1.2-2.4-2.4,0-1.2,1.2-2.4,2.4-2.4,1.2,0,2.4,1.2,2.4,2.4Z"/>
  <path class="cls-3" d="M82.8,213.7c-1.2,0-2.4-1.2-2.4-2.4,0-1.2,1.2-2.4,2.4-2.4,1.2,0,2.4,1.2,2.4,2.4,0,1.2-1.2,2.4-2.4,2.4Z"/>
  <path class="cls-3" d="M18.5,166c1.2,0,2.4,1.2,2.4,2.4,0,1.2-1.2,2.4-2.4,2.4-1.2,0-2.4-1.2-2.4-2.4,0-1.2,1.2-2.4,2.4-2.4Z"/>
  <path class="cls-3" d="M42.4,168.5c0,1.2-1.3,2.4-2.5,2.3-1.2,0-2.4-1.3-2.3-2.5,0-1.2,1.3-2.4,2.5-2.3,1.2,0,2.4,1.3,2.3,2.5Z"/>
  <path class="cls-3" d="M63.8,168.4c0,1.2-1.3,2.4-2.5,2.3-1.2,0-2.4-1.3-2.3-2.5,0-1.2,1.3-2.4,2.5-2.3,1.2,0,2.4,1.3,2.3,2.5Z"/>
  <path class="cls-3" d="M82.8,170.8c-1.2,0-2.4-1.2-2.4-2.4,0-1.2,1.2-2.4,2.4-2.4,1.2,0,2.4,1.2,2.4,2.4,0,1.2-1.2,2.4-2.4,2.4Z"/>
  <path class="cls-3" d="M104.3,166c1.2,0,2.4,1.2,2.4,2.4,0,1.2-1.2,2.4-2.4,2.4-1.2,0-2.4-1.2-2.4-2.4,0-1.2,1.2-2.4,2.4-2.4Z"/>
  <path class="cls-3" d="M125.8,166c1.2,0,2.4,1.3,2.3,2.5,0,1.2-1.3,2.4-2.5,2.3-1.2,0-2.4-1.3-2.3-2.5,0-1.2,1.3-2.4,2.5-2.3Z"/>
  <path class="cls-3" d="M149.6,168.4c0,1.2-1.3,2.4-2.5,2.3-1.2,0-2.4-1.3-2.3-2.5,0-1.2,1.3-2.4,2.5-2.3,1.2,0,2.4,1.3,2.3,2.5Z"/>
  <path class="cls-3" d="M168.6,166c1.2,0,2.4,1.2,2.4,2.4,0,1.2-1.2,2.4-2.4,2.4-1.2,0-2.4-1.2-2.4-2.4,0-1.2,1.2-2.4,2.4-2.4Z"/>
  <path class="cls-3" d="M192.5,168.5c0,1.2-1.3,2.3-2.5,2.3-1.2,0-2.3-1.3-2.3-2.5,0-1.2,1.3-2.3,2.5-2.3,1.2,0,2.3,1.3,2.3,2.5Z"/>
  <path class="cls-3" d="M213.9,168.4c0,1.2-1.2,2.4-2.4,2.4-1.2,0-2.4-1.2-2.4-2.4,0-1.2,1.2-2.4,2.4-2.4,1.2,0,2.4,1.2,2.4,2.4Z"/>
  <path class="cls-3" d="M230.6,168.3c0-1.2,1.3-2.3,2.5-2.3,1.2,0,2.3,1.3,2.3,2.5,0,1.2-1.3,2.3-2.5,2.3-1.2,0-2.3-1.3-2.3-2.5Z"/>
  <path class="cls-3" d="M256.8,168.5c0,1.2-1.3,2.4-2.5,2.3-1.2,0-2.4-1.3-2.3-2.5,0-1.2,1.3-2.4,2.5-2.3,1.2,0,2.4,1.3,2.3,2.5Z"/>
  <path class="cls-3" d="M273.4,168.3c0-1.2,1.2-2.4,2.4-2.4,1.2,0,2.4,1.2,2.4,2.4,0,1.2-1.2,2.4-2.4,2.4-1.2,0-2.4-1.2-2.4-2.4Z"/>
  <path class="cls-3" d="M63.8,211.3c0,1.2-1.3,2.4-2.5,2.3-1.2,0-2.4-1.3-2.3-2.5,0-1.2,1.3-2.4,2.5-2.3,1.2,0,2.4,1.3,2.3,2.5Z"/>
  <path class="cls-3" d="M39.9,208.9c1.2,0,2.4,1.2,2.4,2.4,0,1.2-1.2,2.4-2.4,2.4-1.2,0-2.4-1.2-2.4-2.4,0-1.2,1.2-2.4,2.4-2.4Z"/>
  <path class="cls-3" d="M275.8,106.5c-1.2,0-2.4-1.3-2.4-2.4,0-1.2,1.3-2.4,2.4-2.4,1.2,0,2.4,1.3,2.4,2.4,0,1.2-1.3,2.4-2.4,2.4Z"/>
  <path class="cls-3" d="M254.4,106.5c-1.2,0-2.4-1.2-2.4-2.4,0-1.2,1.2-2.4,2.4-2.4,1.2,0,2.4,1.2,2.4,2.4,0,1.2-1.2,2.4-2.4,2.4Z"/>
  <path class="cls-3" d="M233,101.7c1.2,0,2.4,1.2,2.4,2.4,0,1.2-1.2,2.4-2.4,2.4-1.2,0-2.4-1.2-2.4-2.4,0-1.2,1.2-2.4,2.4-2.4Z"/>
  <path class="cls-3" d="M211.5,106.5c-1.2,0-2.4-1.2-2.4-2.4,0-1.2,1.2-2.4,2.4-2.4,1.2,0,2.4,1.2,2.4,2.4,0,1.2-1.2,2.4-2.4,2.4Z"/>
  <path class="cls-3" d="M192.5,104.1c0,1.2-1.3,2.4-2.5,2.3-1.2,0-2.4-1.3-2.3-2.5,0-1.2,1.3-2.4,2.5-2.3,1.2,0,2.4,1.3,2.3,2.5Z"/>
  <path class="cls-3" d="M171,104.1c0,1.2-1.3,2.4-2.4,2.4-1.2,0-2.4-1.3-2.4-2.4,0-1.2,1.3-2.4,2.4-2.4,1.2,0,2.4,1.3,2.4,2.4Z"/>
  <path class="cls-3" d="M149.6,104.1c0,1.2-1.2,2.4-2.4,2.4-1.2,0-2.4-1.2-2.4-2.4,0-1.2,1.2-2.4,2.4-2.4,1.2,0,2.4,1.2,2.4,2.4Z"/>
  <path class="cls-3" d="M106.7,61.2c0,1.2-1.2,2.4-2.4,2.4-1.2,0-2.4-1.2-2.4-2.4,0-1.2,1.2-2.4,2.4-2.4,1.2,0,2.4,1.2,2.4,2.4Z"/>
  <path class="cls-3" d="M125.7,106.5c-1.2,0-2.4-1.2-2.4-2.4,0-1.2,1.2-2.4,2.4-2.4,1.2,0,2.4,1.2,2.4,2.4,0,1.2-1.2,2.4-2.4,2.4Z"/>
  <path class="cls-3" d="M106.7,104.1c0,1.2-1.3,2.4-2.4,2.4-1.2,0-2.4-1.3-2.4-2.4,0-1.2,1.3-2.4,2.4-2.4,1.2,0,2.4,1.3,2.4,2.4Z"/>
  <path class="cls-3" d="M82.8,106.5c-1.2,0-2.4-1.2-2.4-2.4,0-1.2,1.2-2.4,2.4-2.4,1.2,0,2.4,1.2,2.4,2.4,0,1.2-1.2,2.4-2.4,2.4Z"/>
  <path class="cls-3" d="M20.9,211.3c0,1.2-1.3,2.4-2.5,2.3-1.2,0-2.4-1.3-2.3-2.5,0-1.2,1.3-2.4,2.5-2.3,1.2,0,2.4,1.3,2.3,2.5Z"/>
  <path class="cls-3" d="M63.8,275.6c0,1.2-1.2,2.4-2.4,2.4-1.2,0-2.4-1.2-2.4-2.4,0-1.2,1.2-2.4,2.4-2.4,1.2,0,2.4,1.2,2.4,2.4Z"/>
  <path class="cls-3" d="M82.8,273.2c1.2,0,2.4,1.2,2.4,2.4,0,1.2-1.2,2.4-2.4,2.4-1.2,0-2.4-1.2-2.4-2.4,0-1.2,1.2-2.4,2.4-2.4Z"/>
  <path class="cls-3" d="M104.3,278c-1.2,0-2.4-1.2-2.4-2.4,0-1.2,1.2-2.4,2.4-2.4,1.2,0,2.4,1.2,2.4,2.4,0,1.2-1.2,2.4-2.4,2.4Z"/>
  <path class="cls-3" d="M128.1,275.7c0,1.2-1.3,2.4-2.5,2.3-1.2,0-2.4-1.3-2.3-2.5,0-1.2,1.3-2.4,2.5-2.3s2.4,1.3,2.3,2.5Z"/>
  <path class="cls-3" d="M20.9,18.3c0,1.2-1.2,2.4-2.4,2.4-1.2,0-2.4-1.2-2.4-2.4,0-1.2,1.2-2.4,2.4-2.4,1.2,0,2.4,1.2,2.4,2.4Z"/>
  <path class="cls-3" d="M39.9,20.7c-1.2,0-2.4-1.3-2.4-2.4,0-1.2,1.3-2.4,2.4-2.4,1.2,0,2.4,1.3,2.4,2.4,0,1.2-1.3,2.4-2.4,2.4Z"/>
  <path class="cls-3" d="M63.8,18.4c0,1.2-1.3,2.4-2.5,2.3-1.2,0-2.4-1.3-2.3-2.5,0-1.2,1.3-2.4,2.5-2.3s2.4,1.3,2.3,2.5Z"/>
  <path class="cls-3" d="M85.2,18.3c0,1.2-1.2,2.4-2.4,2.4-1.2,0-2.4-1.2-2.4-2.4,0-1.2,1.2-2.4,2.4-2.4,1.2,0,2.4,1.2,2.4,2.4Z"/>
  <path class="cls-3" d="M104.3,20.7c-1.2,0-2.4-1.2-2.4-2.4,0-1.2,1.2-2.4,2.4-2.4,1.2,0,2.4,1.2,2.4,2.4,0,1.2-1.2,2.4-2.4,2.4Z"/>
  <path class="cls-3" d="M125.8,15.9c1.2,0,2.4,1.2,2.4,2.4,0,1.2-1.2,2.4-2.4,2.4-1.2,0-2.4-1.2-2.4-2.4,0-1.2,1.2-2.4,2.4-2.4Z"/>
  <path class="cls-3" d="M147.2,20.7c-1.2,0-2.4-1.2-2.4-2.4,0-1.2,1.2-2.4,2.4-2.4,1.2,0,2.4,1.2,2.4,2.4,0,1.2-1.2,2.4-2.4,2.4Z"/>
  <path class="cls-3" d="M168.6,20.7c-1.2,0-2.4-1.3-2.3-2.5,0-1.2,1.3-2.4,2.5-2.3,1.2,0,2.4,1.3,2.3,2.5,0,1.2-1.3,2.4-2.5,2.3Z"/>
  <path class="cls-3" d="M278.2,275.6c0,1.2-1.2,2.4-2.4,2.4-1.2,0-2.4-1.2-2.4-2.4,0-1.2,1.2-2.4,2.4-2.4,1.2,0,2.4,1.2,2.4,2.4Z"/>
  <path class="cls-3" d="M61.4,101.7c1.2,0,2.4,1.2,2.4,2.4,0,1.2-1.2,2.4-2.4,2.4-1.2,0-2.4-1.2-2.4-2.4,0-1.2,1.2-2.4,2.4-2.4Z"/>
  <path class="cls-3" d="M37.6,103.9c0-1.2,1.3-2.3,2.5-2.3,1.2,0,2.3,1.3,2.3,2.5,0,1.2-1.3,2.3-2.5,2.3-1.2,0-2.3-1.3-2.3-2.5Z"/>
  <path class="cls-3" d="M18.5,101.7c1.2,0,2.4,1.2,2.4,2.4,0,1.2-1.2,2.4-2.4,2.4-1.2,0-2.4-1.2-2.4-2.4,0-1.2,1.2-2.4,2.4-2.4Z"/>
  <path class="cls-3" d="M256.8,275.6c0,1.2-1.3,2.4-2.4,2.4-1.2,0-2.4-1.3-2.4-2.4,0-1.2,1.3-2.4,2.4-2.4,1.2,0,2.4,1.3,2.4,2.4Z"/>
  <path class="cls-3" d="M232.9,273.2c1.2,0,2.4,1.2,2.4,2.4,0,1.2-1.2,2.4-2.4,2.4-1.2,0-2.4-1.2-2.4-2.4,0-1.2,1.2-2.4,2.4-2.4Z"/>
  <path class="cls-3" d="M190.1,15.9c1.2,0,2.4,1.2,2.4,2.4,0,1.2-1.2,2.4-2.4,2.4-1.2,0-2.4-1.2-2.4-2.4,0-1.2,1.2-2.4,2.4-2.4Z"/>
  <path class="cls-3" d="M211.6,15.9c1.2,0,2.4,1.3,2.3,2.5,0,1.2-1.3,2.4-2.5,2.3-1.2,0-2.4-1.3-2.3-2.5,0-1.2,1.3-2.4,2.5-2.3Z"/>
  <path class="cls-3" d="M235.4,18.3c0,1.2-1.2,2.4-2.4,2.4-1.2,0-2.4-1.2-2.4-2.4,0-1.2,1.2-2.4,2.4-2.4,1.2,0,2.4,1.2,2.4,2.4Z"/>
  <path class="cls-3" d="M147.2,278c-1.2,0-2.4-1.2-2.4-2.4,0-1.2,1.2-2.4,2.4-2.4,1.2,0,2.4,1.2,2.4,2.4,0,1.2-1.2,2.4-2.4,2.4Z"/>
  <path class="cls-3" d="M171,275.6c0,1.2-1.3,2.4-2.5,2.3-1.2,0-2.4-1.3-2.3-2.5,0-1.2,1.3-2.4,2.5-2.3,1.2,0,2.4,1.3,2.3,2.5Z"/>
  <path class="cls-3" d="M278.2,189.8c0,1.2-1.2,2.4-2.4,2.4-1.2,0-2.4-1.2-2.4-2.4,0-1.2,1.2-2.4,2.4-2.4,1.2,0,2.4,1.2,2.4,2.4Z"/>
  <path class="cls-3" d="M275.9,20.7c-1.2,0-2.4-1.2-2.4-2.4,0-1.2,1.2-2.4,2.4-2.4,1.2,0,2.4,1.2,2.4,2.4,0,1.2-1.2,2.4-2.4,2.4Z"/>
  <path class="cls-3" d="M254.4,20.7c-1.2,0-2.4-1.2-2.4-2.4,0-1.2,1.2-2.4,2.4-2.4,1.2,0,2.4,1.2,2.4,2.4,0,1.2-1.2,2.4-2.4,2.4Z"/>
  <path class="cls-3" d="M213.9,275.6c0,1.2-1.2,2.4-2.4,2.4-1.2,0-2.4-1.2-2.4-2.4,0-1.2,1.2-2.4,2.4-2.4,1.2,0,2.4,1.2,2.4,2.4Z"/>
  <path class="cls-3" d="M190.1,273.2c1.2,0,2.4,1.2,2.4,2.4,0,1.2-1.2,2.4-2.4,2.4-1.2,0-2.4-1.2-2.4-2.4,0-1.2,1.2-2.4,2.4-2.4Z"/>
  <path class="cls-3" d="M20.9,189.8c0,1.2-1.2,2.4-2.4,2.4-1.2,0-2.4-1.2-2.4-2.4,0-1.2,1.2-2.4,2.4-2.4,1.2,0,2.4,1.2,2.4,2.4Z"/>
  <path class="cls-3" d="M42.4,189.8c0,1.2-1.2,2.4-2.4,2.4-1.2,0-2.4-1.2-2.4-2.4,0-1.2,1.2-2.4,2.4-2.4,1.2,0,2.4,1.2,2.4,2.4Z"/>
  <path class="cls-3" d="M63.8,189.9c0,1.2-1.3,2.4-2.4,2.4-1.2,0-2.4-1.3-2.4-2.4,0-1.2,1.3-2.4,2.4-2.4,1.2,0,2.4,1.3,2.4,2.4Z"/>
  <path class="cls-3" d="M85.2,189.8c0,1.2-1.2,2.4-2.4,2.4-1.2,0-2.4-1.2-2.4-2.4,0-1.2,1.2-2.4,2.4-2.4,1.2,0,2.4,1.2,2.4,2.4Z"/>
  <path class="cls-3" d="M106.7,189.8c0,1.2-1.2,2.4-2.4,2.4-1.2,0-2.4-1.2-2.4-2.4,0-1.2,1.2-2.4,2.4-2.4,1.2,0,2.4,1.2,2.4,2.4Z"/>
  <path class="cls-3" d="M125.8,187.4c1.2,0,2.4,1.3,2.3,2.5,0,1.2-1.3,2.4-2.5,2.3-1.2,0-2.4-1.3-2.3-2.5,0-1.2,1.3-2.4,2.5-2.3Z"/>
  <path class="cls-3" d="M147.1,192.2c-1.2,0-2.4-1.3-2.3-2.5,0-1.2,1.3-2.4,2.5-2.3,1.2,0,2.4,1.3,2.3,2.5,0,1.2-1.3,2.4-2.5,2.3Z"/>
  <path class="cls-3" d="M171,189.9c0,1.2-1.3,2.4-2.5,2.3-1.2,0-2.4-1.3-2.3-2.5,0-1.2,1.3-2.4,2.5-2.3,1.2,0,2.4,1.3,2.3,2.5Z"/>
  <path class="cls-3" d="M190,187.4c1.2,0,2.4,1.2,2.4,2.4,0,1.2-1.2,2.4-2.4,2.4-1.2,0-2.4-1.2-2.4-2.4,0-1.2,1.2-2.4,2.4-2.4Z"/>
  <path class="cls-3" d="M211.5,192.2c-1.2,0-2.4-1.2-2.4-2.4,0-1.2,1.2-2.4,2.4-2.4,1.2,0,2.4,1.2,2.4,2.4,0,1.2-1.2,2.4-2.4,2.4Z"/>
  <path class="cls-3" d="M235.4,189.9c0,1.2-1.3,2.4-2.4,2.4-1.2,0-2.4-1.3-2.4-2.4,0-1.2,1.3-2.4,2.4-2.4,1.2,0,2.4,1.3,2.4,2.4Z"/>
  <path class="cls-3" d="M254.4,192.2c-1.2,0-2.4-1.2-2.4-2.4,0-1.2,1.2-2.4,2.4-2.4,1.2,0,2.4,1.2,2.4,2.4,0,1.2-1.2,2.4-2.4,2.4Z"/>
  <path class="cls-6" d="M115.1,48.1c1.3,0,2.4,1.2,2.3,2.5,0,1.3-1.3,2.4-2.5,2.3-1.2,0-2.3-1.2-2.2-2.4,0-1.3,1.2-2.4,2.4-2.3Z"/>
  <path class="cls-6" d="M136.5,48.1c1.3,0,2.4,1.2,2.3,2.5,0,1.3-1.3,2.4-2.5,2.3-1.2,0-2.3-1.2-2.2-2.4,0-1.3,1.2-2.4,2.4-2.3Z"/>
  <path class="cls-6" d="M95.9,50.4c0,1.3-1.1,2.4-2.4,2.4-1.3,0-2.4-1.1-2.4-2.4,0-1.2,1.1-2.3,2.3-2.4,1.3,0,2.4,1.1,2.5,2.3Z"/>
  <path class="cls-6" d="M265.1,91c1.3,0,2.4,1.1,2.4,2.4,0,1.3-1.1,2.4-2.4,2.4-1.2,0-2.3-1.1-2.4-2.3,0-1.3,1.1-2.4,2.3-2.5Z"/>
  <path class="cls-6" d="M246.1,93.3c0,1.3-1.1,2.4-2.4,2.4-1.3,0-2.4-1.2-2.4-2.4,0-1.2,1.1-2.3,2.3-2.3,1.3,0,2.4,1.1,2.4,2.4Z"/>
  <path class="cls-6" d="M224.6,93.3c0,1.3-1.1,2.4-2.3,2.4-1.3,0-2.4-1.1-2.4-2.4,0-1.2,1.1-2.3,2.3-2.4,1.3,0,2.4,1,2.5,2.3Z"/>
  <path class="cls-6" d="M200.8,95.7c-1.3,0-2.4-1.2-2.3-2.4,0-1.3,1.2-2.4,2.5-2.3,1.2,0,2.3,1.2,2.3,2.4,0,1.3-1.1,2.4-2.4,2.4Z"/>
  <path class="cls-6" d="M181.7,93.3c0,1.3-1.1,2.4-2.4,2.4-1.3,0-2.4-1.2-2.4-2.4,0-1.2,1.1-2.3,2.3-2.3,1.3,0,2.4,1.1,2.4,2.4Z"/>
  <path class="cls-6" d="M160.3,93.4c0,1.3-1.2,2.4-2.5,2.3-1.3,0-2.4-1.2-2.3-2.5,0-1.2,1.2-2.3,2.4-2.3,1.3,0,2.4,1.2,2.4,2.4Z"/>
  <path class="cls-6" d="M138.8,93.3c0,1.3-1.1,2.4-2.4,2.4-1.3,0-2.4-1.2-2.4-2.4,0-1.2,1.1-2.3,2.3-2.3,1.3,0,2.4,1.1,2.4,2.4Z"/>
  <path class="cls-6" d="M117.4,93.3c0,1.3-1.2,2.4-2.4,2.4-1.3,0-2.4-1.2-2.3-2.5,0-1.2,1.1-2.3,2.4-2.3,1.3,0,2.4,1.1,2.4,2.4Z"/>
  <path class="cls-6" d="M93.6,91c1.3,0,2.4,1.2,2.3,2.5,0,1.3-1.2,2.4-2.5,2.3-1.2,0-2.3-1.2-2.3-2.4,0-1.3,1.2-2.4,2.4-2.4Z"/>
  <path class="cls-6" d="M74.5,93.3c0,1.3-1.1,2.4-2.4,2.4-1.3,0-2.4-1.1-2.4-2.4,0-1.2,1.1-2.3,2.3-2.4,1.3,0,2.4,1,2.5,2.3Z"/>
  <path class="cls-6" d="M53.1,93.3c0,1.3-1.2,2.4-2.4,2.4-1.3,0-2.4-1.2-2.3-2.5,0-1.2,1.1-2.3,2.4-2.3,1.3,0,2.4,1.1,2.4,2.4Z"/>
  <path class="cls-6" d="M7.8,198.2c1.3,0,2.4,1.1,2.4,2.4,0,1.3-1.1,2.4-2.4,2.4-1.2,0-2.3-1.1-2.3-2.3,0-1.3,1.1-2.4,2.3-2.4Z"/>
  <path class="cls-6" d="M29.2,202.9c-1.3,0-2.4-1.2-2.4-2.4,0-1.3,1.2-2.4,2.5-2.3,1.2,0,2.3,1.2,2.3,2.4,0,1.3-1.1,2.4-2.4,2.4Z"/>
  <path class="cls-6" d="M53.1,200.5c0,1.3-1.1,2.4-2.4,2.4-1.3,0-2.4-1.2-2.4-2.4,0-1.2,1.1-2.3,2.3-2.3,1.3,0,2.4,1.1,2.4,2.4Z"/>
  <path class="cls-6" d="M74.5,200.5c0,1.3-1.1,2.4-2.4,2.4-1.3,0-2.4-1.1-2.4-2.4,0-1.2,1.1-2.3,2.3-2.4,1.3,0,2.4,1.1,2.5,2.3Z"/>
  <path class="cls-6" d="M95.9,200.5c0,1.3-1.1,2.4-2.4,2.4-1.3,0-2.4-1.2-2.4-2.4,0-1.2,1.1-2.3,2.3-2.3,1.3,0,2.4,1.1,2.4,2.4Z"/>
  <path class="cls-6" d="M115.1,198.2c1.3,0,2.4,1.2,2.3,2.5,0,1.3-1.2,2.4-2.5,2.3-1.2,0-2.3-1.2-2.3-2.4,0-1.3,1.2-2.4,2.4-2.4Z"/>
  <path class="cls-6" d="M138.8,200.5c0,1.3-1.1,2.4-2.4,2.4-1.3,0-2.4-1.1-2.4-2.4,0-1.2,1.1-2.3,2.3-2.3,1.3,0,2.4,1.1,2.4,2.3Z"/>
  <path class="cls-6" d="M160.3,200.6c0,1.3-1.2,2.4-2.5,2.3-1.3,0-2.4-1.2-2.3-2.5,0-1.2,1.2-2.3,2.4-2.3,1.3,0,2.4,1.2,2.4,2.4Z"/>
  <path class="cls-6" d="M179.5,198.2c1.3,0,2.4,1.3,2.3,2.5,0,1.3-1.3,2.3-2.5,2.2-1.2-.1-2.2-1.2-2.2-2.4,0-1.3,1.2-2.4,2.5-2.3Z"/>
  <path class="cls-6" d="M200.8,198.2c1.3,0,2.4,1.1,2.4,2.4,0,1.3-1.2,2.4-2.4,2.4-1.2,0-2.3-1.1-2.3-2.3,0-1.3,1.1-2.4,2.4-2.4Z"/>
  <path class="cls-6" d="M224.6,200.6c0,1.3-1.2,2.4-2.5,2.3-1.3,0-2.4-1.2-2.3-2.5,0-1.2,1.2-2.3,2.4-2.3,1.3,0,2.4,1.2,2.4,2.4Z"/>
  <path class="cls-6" d="M246.1,200.5c0,1.3-1.1,2.4-2.4,2.4-1.3,0-2.4-1.2-2.4-2.4,0-1.2,1.1-2.3,2.3-2.3,1.3,0,2.4,1.1,2.4,2.4Z"/>
  <path class="cls-6" d="M265.2,202.9c-1.3,0-2.4-1.1-2.4-2.3,0-1.3,1.1-2.4,2.4-2.4,1.2,0,2.3,1.1,2.4,2.3,0,1.3-1,2.4-2.3,2.5Z"/>
  <path class="cls-6" d="M74.5,50.4c0,1.3-1.1,2.4-2.4,2.4-1.3,0-2.4-1.1-2.4-2.4,0-1.2,1.1-2.3,2.3-2.4,1.3,0,2.4,1.1,2.5,2.3Z"/>
  <path class="cls-6" d="M53.1,50.5c0,1.3-1.2,2.4-2.4,2.4-1.3,0-2.4-1.2-2.3-2.5,0-1.2,1.2-2.3,2.4-2.3,1.3,0,2.4,1.1,2.4,2.4Z"/>
  <path class="cls-6" d="M29.3,52.8c-1.3,0-2.4-1.1-2.4-2.3,0-1.3,1.1-2.4,2.4-2.4,1.2,0,2.3,1.1,2.4,2.3,0,1.3-1,2.4-2.3,2.5Z"/>
  <path class="cls-6" d="M10.2,50.5c0,1.3-1.2,2.4-2.4,2.4-1.3,0-2.4-1.2-2.3-2.5,0-1.2,1.1-2.3,2.4-2.3,1.3,0,2.4,1.1,2.4,2.4Z"/>
  <path class="cls-6" d="M267.5,179.1c0,1.3-1.2,2.4-2.5,2.3-1.3,0-2.4-1.2-2.3-2.5,0-1.2,1.2-2.3,2.4-2.3,1.3,0,2.4,1.2,2.4,2.4Z"/>
  <path class="cls-6" d="M246.1,179c0,1.3-1.1,2.4-2.4,2.4-1.3,0-2.4-1.1-2.4-2.4,0-1.2,1.1-2.3,2.3-2.4,1.3,0,2.4,1,2.5,2.3Z"/>
  <path class="cls-6" d="M224.6,179.1c0,1.3-1.1,2.4-2.4,2.4-1.3,0-2.4-1.1-2.4-2.4,0-1.2,1.1-2.3,2.3-2.3,1.3,0,2.4,1.1,2.4,2.3Z"/>
  <path class="cls-6" d="M200.7,181.5c-1.3,0-2.4-1.2-2.3-2.5,0-1.3,1.2-2.4,2.5-2.3,1.2,0,2.3,1.2,2.3,2.4,0,1.3-1.2,2.4-2.4,2.4Z"/>
  <path class="cls-6" d="M181.7,179c0,1.3-1.1,2.4-2.4,2.4-1.3,0-2.4-1.1-2.4-2.4,0-1.2,1.1-2.3,2.3-2.4,1.3,0,2.4,1.1,2.5,2.3Z"/>
  <path class="cls-6" d="M157.9,176.7c1.3,0,2.4,1.1,2.4,2.4,0,1.3-1.2,2.4-2.4,2.4-1.2,0-2.3-1.1-2.3-2.3,0-1.3,1.1-2.4,2.4-2.4Z"/>
  <path class="cls-6" d="M138.8,179.1c0,1.3-1.1,2.4-2.4,2.4-1.3,0-2.4-1.2-2.4-2.4,0-1.2,1.1-2.3,2.3-2.3,1.3,0,2.4,1.1,2.4,2.4Z"/>
  <path class="cls-6" d="M115.1,176.7c1.3,0,2.4,1.2,2.3,2.5,0,1.3-1.2,2.4-2.5,2.3-1.2,0-2.3-1.2-2.3-2.4,0-1.3,1.2-2.4,2.4-2.4Z"/>
  <path class="cls-6" d="M95.9,179.1c0,1.3-1.2,2.4-2.5,2.3-1.3,0-2.4-1.2-2.3-2.5,0-1.2,1.2-2.3,2.4-2.3,1.3,0,2.4,1.2,2.4,2.4Z"/>
  <path class="cls-6" d="M72.1,181.5c-1.3,0-2.4-1.1-2.4-2.4,0-1.3,1.2-2.4,2.4-2.3,1.2,0,2.3,1.1,2.3,2.3,0,1.3-1.1,2.4-2.4,2.4Z"/>
  <path class="cls-6" d="M53.1,179.1c0,1.3-1.2,2.4-2.4,2.4-1.3,0-2.4-1.2-2.3-2.5,0-1.2,1.1-2.3,2.4-2.3,1.3,0,2.4,1.1,2.4,2.4Z"/>
  <path class="cls-6" d="M31.6,179.2c0,1.3-1.2,2.4-2.5,2.3-1.3,0-2.4-1.2-2.3-2.5,0-1.2,1.2-2.3,2.4-2.3,1.3,0,2.4,1.2,2.4,2.4Z"/>
  <path class="cls-6" d="M7.8,181.5c-1.3,0-2.4-1.1-2.4-2.4,0-1.3,1.1-2.4,2.4-2.4,1.2,0,2.3,1.1,2.4,2.3,0,1.3-1.1,2.4-2.3,2.5Z"/>
  <path class="cls-6" d="M10.2,114.8c0,1.3-1.1,2.4-2.4,2.4-1.3,0-2.4-1.2-2.4-2.4,0-1.2,1.1-2.3,2.3-2.3,1.3,0,2.4,1.1,2.4,2.4Z"/>
  <path class="cls-6" d="M31.6,114.7c0,1.3-1.1,2.4-2.4,2.4-1.3,0-2.4-1.1-2.4-2.4,0-1.2,1.1-2.3,2.3-2.4,1.3,0,2.4,1.1,2.5,2.3Z"/>
  <path class="cls-6" d="M95.9,71.9c0,1.3-1.2,2.4-2.5,2.3-1.3,0-2.4-1.2-2.3-2.5,0-1.2,1.2-2.3,2.4-2.3,1.3,0,2.4,1.2,2.4,2.4Z"/>
  <path class="cls-6" d="M74.5,71.8c0,1.3-1.1,2.4-2.4,2.4-1.3,0-2.4-1.1-2.4-2.4,0-1.2,1.1-2.3,2.3-2.4,1.3,0,2.4,1.1,2.5,2.3Z"/>
  <path class="cls-6" d="M50.7,117.2c-1.3,0-2.4-1.1-2.4-2.4,0-1.3,1.1-2.4,2.4-2.4,1.2,0,2.3,1.1,2.4,2.3,0,1.3-1.1,2.4-2.3,2.5Z"/>
  <path class="cls-6" d="M74.5,114.8c0,1.3-1.1,2.4-2.4,2.4-1.3,0-2.4-1.2-2.4-2.4,0-1.2,1.1-2.3,2.3-2.3,1.3,0,2.4,1.1,2.4,2.4Z"/>
  <path class="cls-6" d="M10.2,29c0,1.3-1.1,2.4-2.4,2.4-1.3,0-2.4-1.1-2.4-2.4,0-1.2,1.1-2.3,2.3-2.3,1.3,0,2.4,1.1,2.4,2.3Z"/>
  <path class="cls-6" d="M29.2,31.4c-1.3,0-2.4-1.2-2.4-2.4,0-1.3,1.2-2.4,2.5-2.3,1.2,0,2.3,1.2,2.3,2.4,0,1.3-1.1,2.4-2.4,2.4Z"/>
  <path class="cls-6" d="M53.1,28.9c0,1.3-1.1,2.4-2.3,2.4-1.3,0-2.4-1.1-2.4-2.4,0-1.2,1.1-2.3,2.3-2.4,1.3,0,2.4,1,2.5,2.3Z"/>
  <path class="cls-6" d="M74.5,29c0,1.3-1.1,2.4-2.4,2.4-1.3,0-2.4-1.1-2.4-2.4,0-1.2,1.1-2.3,2.3-2.4,1.3,0,2.4,1.1,2.5,2.3Z"/>
  <path class="cls-6" d="M93.6,31.4c-1.3,0-2.4-1.2-2.4-2.4,0-1.3,1.2-2.4,2.5-2.3,1.2,0,2.3,1.1,2.3,2.4,0,1.3-1.1,2.4-2.4,2.4Z"/>
  <path class="cls-6" d="M115,31.4c-1.3,0-2.4-1.2-2.4-2.4,0-1.3,1.2-2.4,2.5-2.3,1.2,0,2.3,1.1,2.3,2.4,0,1.3-1.1,2.4-2.4,2.4Z"/>
  <path class="cls-6" d="M31.6,93.3c0,1.3-1.1,2.4-2.4,2.4-1.3,0-2.4-1.2-2.3-2.4,0-1.2,1.1-2.3,2.3-2.3,1.3,0,2.4,1.1,2.4,2.4Z"/>
  <path class="cls-6" d="M7.7,91c1.3,0,2.4,1.1,2.4,2.3,0,1.3-1.1,2.4-2.4,2.4-1.2,0-2.3-1.1-2.4-2.3,0-1.3,1-2.4,2.3-2.5Z"/>
  <path class="cls-6" d="M138.8,29c0,1.3-1.1,2.4-2.4,2.4-1.3,0-2.4-1.1-2.4-2.4,0-1.2,1.1-2.3,2.3-2.4,1.3,0,2.4,1.1,2.5,2.3Z"/>
  <path class="cls-6" d="M157.9,31.4c-1.3,0-2.4-1.1-2.4-2.4,0-1.3,1.2-2.4,2.4-2.4,1.2,0,2.3,1.1,2.3,2.3,0,1.3-1.1,2.4-2.4,2.4Z"/>
  <path class="cls-6" d="M181.7,29.1c0,1.3-1.2,2.4-2.5,2.3-1.3,0-2.4-1.2-2.3-2.5,0-1.2,1.2-2.3,2.4-2.3,1.3,0,2.4,1.2,2.4,2.4Z"/>
  <path class="cls-6" d="M203.2,29c0,1.3-1.2,2.4-2.4,2.4-1.3,0-2.4-1.2-2.3-2.5,0-1.2,1.1-2.3,2.4-2.3,1.3,0,2.4,1.1,2.4,2.4Z"/>
  <path class="cls-6" d="M219.9,28.9c0-1.3,1.2-2.4,2.5-2.3,1.3,0,2.4,1.3,2.3,2.5,0,1.2-1.2,2.3-2.4,2.2-1.3,0-2.4-1.2-2.3-2.4Z"/>
  <path class="cls-6" d="M50.7,74.3c-1.3,0-2.4-1.2-2.4-2.4,0-1.3,1.2-2.4,2.5-2.3,1.2,0,2.3,1.1,2.3,2.4,0,1.3-1.1,2.4-2.4,2.4Z"/>
  <path class="cls-6" d="M267.5,157.7c0,1.3-1.2,2.4-2.5,2.3-1.3,0-2.4-1.2-2.3-2.5,0-1.2,1.2-2.3,2.4-2.3,1.3,0,2.4,1.2,2.4,2.4Z"/>
  <path class="cls-6" d="M246.1,157.7c0,1.3-1.1,2.4-2.4,2.4-1.3,0-2.4-1.2-2.3-2.4,0-1.2,1.1-2.3,2.3-2.3,1.3,0,2.4,1.1,2.4,2.4Z"/>
  <path class="cls-6" d="M224.6,157.6c0,1.3-1.1,2.4-2.4,2.4-1.3,0-2.4-1.1-2.4-2.4,0-1.2,1.1-2.3,2.3-2.4,1.3,0,2.4,1,2.5,2.3Z"/>
  <path class="cls-6" d="M203.2,157.7c0,1.3-1.2,2.4-2.4,2.3-1.3,0-2.4-1.2-2.3-2.5,0-1.2,1.2-2.3,2.4-2.3,1.3,0,2.4,1.1,2.4,2.4Z"/>
  <path class="cls-6" d="M181.7,157.7c0,1.3-1.2,2.4-2.4,2.3-1.3,0-2.4-1.2-2.3-2.5,0-1.2,1.2-2.3,2.4-2.3,1.3,0,2.4,1.1,2.4,2.4Z"/>
  <path class="cls-6" d="M10.2,222c0,1.3-1.1,2.4-2.4,2.4-1.3,0-2.4-1.2-2.4-2.4,0-1.2,1.1-2.3,2.3-2.3,1.3,0,2.4,1.1,2.4,2.4Z"/>
  <path class="cls-6" d="M31.6,222c0,1.3-1.2,2.4-2.5,2.3-1.3,0-2.4-1.2-2.3-2.5,0-1.2,1.2-2.3,2.4-2.3,1.3,0,2.4,1.2,2.4,2.4Z"/>
  <path class="cls-6" d="M50.6,224.4c-1.3,0-2.4-1.2-2.3-2.5,0-1.3,1.2-2.4,2.5-2.3,1.2,0,2.3,1.2,2.3,2.4,0,1.3-1.2,2.4-2.4,2.4Z"/>
  <path class="cls-6" d="M72.1,224.4c-1.3,0-2.4-1.2-2.3-2.5,0-1.3,1.2-2.4,2.5-2.3,1.2,0,2.3,1.2,2.3,2.4,0,1.3-1.2,2.4-2.4,2.4Z"/>
  <path class="cls-6" d="M93.6,224.4c-1.3,0-2.4-1.1-2.4-2.4,0-1.3,1.1-2.4,2.4-2.4,1.2,0,2.3,1.1,2.4,2.3,0,1.3-1.1,2.4-2.3,2.5Z"/>
  <path class="cls-6" d="M115,219.6c1.3,0,2.4,1.1,2.4,2.4,0,1.3-1.2,2.4-2.4,2.4-1.2,0-2.3-1.1-2.3-2.3,0-1.3,1.1-2.4,2.4-2.4Z"/>
  <path class="cls-6" d="M138.8,221.9c0,1.3-1.1,2.4-2.3,2.4-1.3,0-2.4-1.1-2.4-2.4,0-1.2,1.1-2.3,2.3-2.4,1.3,0,2.4,1,2.5,2.3Z"/>
  <path class="cls-6" d="M157.9,224.4c-1.3,0-2.4-1.2-2.3-2.4,0-1.3,1.2-2.4,2.5-2.3,1.2,0,2.3,1.2,2.3,2.4,0,1.3-1.1,2.4-2.4,2.4Z"/>
  <path class="cls-6" d="M181.7,222c0,1.3-1.2,2.4-2.4,2.4-1.3,0-2.4-1.2-2.3-2.5,0-1.2,1.1-2.3,2.4-2.3,1.3,0,2.4,1.1,2.4,2.4Z"/>
  <path class="cls-6" d="M200.8,219.6c1.3,0,2.4,1.2,2.4,2.4,0,1.3-1.2,2.4-2.5,2.3-1.2,0-2.3-1.1-2.3-2.4,0-1.3,1.1-2.4,2.4-2.4Z"/>
  <path class="cls-6" d="M224.6,222c0,1.3-1.2,2.4-2.4,2.4-1.3,0-2.4-1.2-2.3-2.5,0-1.2,1.1-2.3,2.4-2.3,1.3,0,2.4,1.1,2.4,2.4Z"/>
  <path class="cls-6" d="M246.1,222c0,1.3-1.2,2.4-2.5,2.3-1.3,0-2.4-1.3-2.3-2.5,0-1.2,1.2-2.3,2.4-2.2,1.3,0,2.4,1.2,2.3,2.4Z"/>
  <path class="cls-6" d="M267.5,222c0,1.3-1.1,2.4-2.4,2.4-1.3,0-2.4-1.2-2.3-2.4,0-1.2,1.1-2.3,2.3-2.3,1.3,0,2.4,1.1,2.4,2.4Z"/>
  <path class="cls-6" d="M160.3,157.7c0,1.3-1.2,2.4-2.4,2.3-1.3,0-2.4-1.2-2.3-2.5,0-1.2,1.2-2.3,2.4-2.3,1.3,0,2.4,1.1,2.4,2.4Z"/>
  <path class="cls-6" d="M138.8,157.8c0,1.3-1.3,2.4-2.5,2.3-1.3,0-2.3-1.3-2.2-2.5.1-1.2,1.2-2.2,2.4-2.2,1.3,0,2.4,1.2,2.3,2.5Z"/>
  <path class="cls-6" d="M265.2,9.9c-1.3,0-2.4-1.1-2.4-2.4,0-1.3,1.1-2.4,2.4-2.4,1.2,0,2.3,1.1,2.4,2.3,0,1.3-1,2.4-2.3,2.5Z"/>
  <path class="cls-6" d="M243.7,5.2c1.3,0,2.4,1.1,2.4,2.4,0,1.3-1.1,2.4-2.4,2.4-1.2,0-2.3-1.1-2.3-2.3,0-1.3,1.1-2.4,2.3-2.4Z"/>
  <path class="cls-6" d="M224.6,7.5c0,1.3-1.1,2.4-2.4,2.4-1.3,0-2.4-1.1-2.4-2.4,0-1.2,1.1-2.3,2.3-2.4,1.3,0,2.4,1,2.5,2.3Z"/>
  <path class="cls-6" d="M203.2,7.6c0,1.3-1.1,2.4-2.4,2.4-1.3,0-2.4-1.2-2.4-2.4,0-1.2,1.1-2.3,2.3-2.3,1.3,0,2.4,1.1,2.4,2.4Z"/>
  <path class="cls-6" d="M179.2,9.9c-1.3,0-2.4-1.3-2.3-2.5,0-1.3,1.3-2.3,2.5-2.2,1.2.1,2.2,1.2,2.2,2.4,0,1.3-1.2,2.4-2.5,2.3Z"/>
  <path class="cls-6" d="M155.5,7.5c0-1.3,1.2-2.4,2.5-2.3,1.3,0,2.4,1.3,2.3,2.5,0,1.2-1.2,2.3-2.4,2.2-1.3,0-2.4-1.2-2.3-2.4Z"/>
  <path class="cls-6" d="M136.5,9.9c-1.3,0-2.4-1.2-2.4-2.4,0-1.3,1.2-2.4,2.5-2.3,1.2,0,2.3,1.1,2.3,2.4,0,1.3-1.1,2.4-2.4,2.4Z"/>
  <path class="cls-6" d="M115,9.9c-1.3,0-2.4-1.2-2.4-2.4,0-1.3,1.2-2.4,2.5-2.3,1.2,0,2.3,1.1,2.3,2.4,0,1.3-1.1,2.4-2.4,2.4Z"/>
  <path class="cls-6" d="M95.9,7.6c0,1.3-1.2,2.4-2.5,2.3-1.3,0-2.4-1.3-2.3-2.5,0-1.2,1.2-2.3,2.4-2.2,1.3,0,2.4,1.2,2.3,2.4Z"/>
  <path class="cls-6" d="M69.7,7.5c0-1.3,1.2-2.4,2.5-2.3,1.3,0,2.4,1.3,2.3,2.5,0,1.2-1.2,2.3-2.4,2.2-1.3,0-2.4-1.2-2.3-2.4Z"/>
  <path class="cls-6" d="M50.7,9.9c-1.3,0-2.4-1.1-2.4-2.4,0-1.3,1.1-2.4,2.4-2.4,1.2,0,2.3,1.1,2.4,2.3,0,1.3-1,2.4-2.3,2.5Z"/>
  <path class="cls-6" d="M31.6,7.7c0,1.3-1.3,2.4-2.5,2.3-1.3,0-2.3-1.3-2.2-2.5.1-1.2,1.2-2.2,2.4-2.2,1.3,0,2.4,1.2,2.3,2.5Z"/>
  <path class="cls-6" d="M267.5,264.9c0,1.3-1.1,2.4-2.4,2.4-1.3,0-2.4-1.2-2.4-2.4,0-1.2,1.1-2.3,2.3-2.3,1.3,0,2.4,1.1,2.4,2.4Z"/>
  <path class="cls-6" d="M246.1,264.8c0,1.3-1.1,2.4-2.4,2.4-1.3,0-2.4-1.2-2.4-2.4,0-1.2,1.1-2.3,2.3-2.3,1.3,0,2.4,1.1,2.4,2.4Z"/>
  <path class="cls-6" d="M117.4,157.6c0,1.3-1.1,2.4-2.3,2.4-1.3,0-2.4-1.1-2.4-2.4,0-1.2,1.1-2.3,2.3-2.4,1.3,0,2.4,1,2.5,2.3Z"/>
  <path class="cls-6" d="M91.2,157.6c0-1.3,1.3-2.4,2.5-2.3,1.3,0,2.3,1.3,2.2,2.5-.1,1.2-1.2,2.2-2.4,2.2-1.3,0-2.4-1.2-2.3-2.5Z"/>
  <path class="cls-6" d="M72.1,160c-1.3,0-2.4-1.2-2.3-2.5,0-1.3,1.2-2.4,2.5-2.3,1.2,0,2.3,1.2,2.3,2.4,0,1.3-1.2,2.4-2.4,2.4Z"/>
  <path class="cls-6" d="M53.1,157.6c0,1.3-1.1,2.4-2.4,2.4-1.3,0-2.4-1.2-2.4-2.4,0-1.2,1.1-2.3,2.3-2.3,1.3,0,2.4,1.1,2.4,2.4Z"/>
  <path class="cls-6" d="M31.6,157.7c0,1.3-1.1,2.4-2.4,2.4-1.3,0-2.4-1.2-2.3-2.4,0-1.2,1.1-2.3,2.3-2.3,1.3,0,2.4,1.1,2.4,2.4Z"/>
  <path class="cls-6" d="M10.2,157.6c0,1.3-1.1,2.4-2.4,2.4-1.3,0-2.4-1.1-2.4-2.4,0-1.2,1.1-2.3,2.3-2.4,1.3,0,2.4,1.1,2.5,2.3Z"/>
  <path class="cls-6" d="M93.5,112.4c1.3,0,2.4,1.1,2.4,2.4,0,1.3-1.1,2.4-2.4,2.4-1.2,0-2.3-1.1-2.3-2.3,0-1.3,1.1-2.4,2.3-2.4Z"/>
  <path class="cls-6" d="M117.4,114.8c0,1.3-1.2,2.4-2.4,2.4-1.3,0-2.4-1.2-2.3-2.5,0-1.2,1.1-2.3,2.4-2.3,1.3,0,2.4,1.1,2.4,2.4Z"/>
  <path class="cls-6" d="M134.1,114.7c0-1.3,1.2-2.4,2.5-2.3,1.3,0,2.4,1.3,2.3,2.5,0,1.2-1.2,2.3-2.4,2.2-1.3,0-2.4-1.2-2.3-2.4Z"/>
  <path class="cls-6" d="M158,117.2c-1.3,0-2.4-1.1-2.4-2.4,0-1.3,1.1-2.4,2.4-2.4,1.2,0,2.3,1.1,2.4,2.3,0,1.3-1,2.4-2.3,2.5Z"/>
  <path class="cls-6" d="M181.7,114.7c0,1.3-1.1,2.4-2.4,2.4-1.3,0-2.4-1.1-2.4-2.4,0-1.2,1.1-2.3,2.3-2.4,1.3,0,2.4,1.1,2.5,2.3Z"/>
  <path class="cls-6" d="M203.2,114.8c0,1.3-1.2,2.4-2.5,2.3-1.3,0-2.4-1.2-2.3-2.5,0-1.2,1.2-2.3,2.4-2.3,1.3,0,2.4,1.2,2.4,2.4Z"/>
  <path class="cls-6" d="M224.6,114.7c0,1.3-1.1,2.4-2.3,2.4-1.3,0-2.4-1.1-2.4-2.4,0-1.2,1.1-2.3,2.3-2.4,1.3,0,2.4,1,2.5,2.3Z"/>
  <path class="cls-6" d="M246.1,114.7c0,1.3-1.1,2.4-2.3,2.4-1.3,0-2.4-1.1-2.4-2.4,0-1.2,1.1-2.3,2.3-2.4,1.3,0,2.4,1,2.5,2.3Z"/>
  <path class="cls-6" d="M265.1,117.2c-1.3,0-2.4-1.2-2.3-2.4,0-1.3,1.2-2.4,2.5-2.3,1.2,0,2.3,1.2,2.3,2.4,0,1.3-1.1,2.4-2.4,2.4Z"/>
  <path class="cls-6" d="M222.2,267.2c-1.3,0-2.4-1.2-2.3-2.5,0-1.3,1.2-2.4,2.5-2.3,1.2,0,2.3,1.2,2.3,2.4,0,1.3-1.2,2.4-2.4,2.4Z"/>
  <path class="cls-6" d="M200.8,267.2c-1.3,0-2.4-1.1-2.4-2.4,0-1.3,1.2-2.4,2.4-2.4,1.2,0,2.3,1.1,2.3,2.3,0,1.3-1.1,2.4-2.4,2.4Z"/>
  <path class="cls-6" d="M157.9,52.8c-1.3,0-2.4-1.2-2.4-2.4,0-1.3,1.2-2.4,2.5-2.3,1.2,0,2.3,1.1,2.3,2.4,0,1.3-1.1,2.4-2.4,2.4Z"/>
  <path class="cls-6" d="M181.7,50.5c0,1.3-1.2,2.4-2.4,2.4-1.3,0-2.4-1.2-2.3-2.5,0-1.2,1.2-2.3,2.4-2.3,1.3,0,2.4,1.1,2.4,2.4Z"/>
  <path class="cls-6" d="M200.9,52.8c-1.3,0-2.4-1.1-2.4-2.3,0-1.3,1.1-2.4,2.4-2.4,1.2,0,2.3,1.1,2.4,2.3,0,1.3-1,2.4-2.3,2.5Z"/>
  <path class="cls-6" d="M224.6,50.5c0,1.3-1.2,2.4-2.4,2.4-1.3,0-2.4-1.2-2.3-2.5,0-1.2,1.1-2.3,2.4-2.3,1.3,0,2.4,1.1,2.4,2.4Z"/>
  <path class="cls-6" d="M243.7,48.1c1.3,0,2.4,1.2,2.3,2.4,0,1.3-1.2,2.4-2.5,2.3-1.2,0-2.3-1.2-2.3-2.4,0-1.3,1.1-2.4,2.4-2.4Z"/>
  <path class="cls-6" d="M265.1,48.1c1.3,0,2.4,1.1,2.4,2.4,0,1.3-1.1,2.4-2.4,2.4-1.2,0-2.3-1.1-2.3-2.3,0-1.3,1.1-2.4,2.3-2.4Z"/>
  <path class="cls-6" d="M181.7,264.9c0,1.3-1.2,2.4-2.5,2.3-1.3,0-2.4-1.2-2.3-2.5,0-1.2,1.2-2.3,2.4-2.3,1.3,0,2.4,1.2,2.4,2.4Z"/>
  <path class="cls-6" d="M160.3,264.9c0,1.3-1.2,2.4-2.4,2.4-1.3,0-2.4-1.2-2.3-2.5,0-1.2,1.2-2.3,2.4-2.3,1.3,0,2.4,1.1,2.4,2.4Z"/>
  <path class="cls-6" d="M136.4,267.2c-1.3,0-2.4-1.2-2.3-2.5,0-1.3,1.2-2.4,2.5-2.3,1.2,0,2.3,1.2,2.3,2.4,0,1.3-1.2,2.4-2.4,2.4Z"/>
  <path class="cls-6" d="M7.8,241c1.3,0,2.4,1.1,2.4,2.4,0,1.3-1.2,2.4-2.4,2.3-1.2,0-2.3-1.1-2.3-2.3,0-1.3,1.1-2.4,2.4-2.4Z"/>
  <path class="cls-6" d="M31.6,243.5c0,1.3-1.2,2.4-2.4,2.3-1.3,0-2.4-1.2-2.3-2.5,0-1.2,1.2-2.3,2.4-2.3,1.3,0,2.4,1.1,2.4,2.4Z"/>
  <path class="cls-6" d="M50.7,241c1.3,0,2.4,1.2,2.4,2.4,0,1.3-1.2,2.4-2.5,2.3-1.2,0-2.3-1.1-2.3-2.4,0-1.3,1.1-2.4,2.4-2.4Z"/>
  <path class="cls-6" d="M72.2,245.8c-1.3,0-2.4-1.1-2.4-2.4,0-1.3,1.1-2.4,2.4-2.4,1.2,0,2.3,1.1,2.3,2.3,0,1.3-1.1,2.4-2.3,2.4Z"/>
  <path class="cls-6" d="M93.5,245.8c-1.3,0-2.4-1.2-2.3-2.5,0-1.3,1.2-2.4,2.5-2.3,1.2,0,2.3,1.2,2.3,2.4,0,1.3-1.2,2.4-2.4,2.4Z"/>
  <path class="cls-6" d="M115,241c1.3,0,2.4,1.1,2.4,2.4,0,1.3-1.2,2.4-2.4,2.4-1.2,0-2.3-1.1-2.3-2.3,0-1.3,1.1-2.4,2.4-2.4Z"/>
  <path class="cls-6" d="M138.8,243.4c0,1.3-1.1,2.4-2.4,2.4-1.3,0-2.4-1.2-2.3-2.4,0-1.2,1.1-2.3,2.3-2.3,1.3,0,2.4,1.1,2.4,2.4Z"/>
  <path class="cls-6" d="M160.3,243.5c0,1.3-1.2,2.4-2.5,2.3-1.3,0-2.4-1.2-2.3-2.5,0-1.2,1.2-2.3,2.4-2.3,1.3,0,2.4,1.2,2.4,2.4Z"/>
  <path class="cls-6" d="M181.7,243.4c0,1.3-1.1,2.4-2.4,2.4-1.3,0-2.4-1.1-2.4-2.4,0-1.2,1.1-2.3,2.3-2.3,1.3,0,2.4,1.1,2.4,2.3Z"/>
  <path class="cls-6" d="M200.8,241c1.3,0,2.4,1.2,2.3,2.5,0,1.3-1.2,2.4-2.5,2.3-1.2,0-2.3-1.2-2.3-2.4,0-1.3,1.2-2.4,2.4-2.4Z"/>
  <path class="cls-6" d="M222.2,241c1.3,0,2.4,1.1,2.4,2.4,0,1.3-1.2,2.4-2.4,2.4-1.2,0-2.3-1.1-2.3-2.3,0-1.3,1.1-2.4,2.4-2.4Z"/>
  <path class="cls-6" d="M246.1,243.5c0,1.3-1.2,2.4-2.4,2.3-1.3,0-2.4-1.2-2.3-2.5,0-1.2,1.2-2.3,2.4-2.3,1.3,0,2.4,1.1,2.4,2.4Z"/>
  <path class="cls-6" d="M265.1,241c1.3,0,2.4,1.1,2.4,2.4,0,1.3-1.2,2.4-2.4,2.3-1.2,0-2.3-1.1-2.3-2.3,0-1.3,1.1-2.4,2.4-2.4Z"/>
  <path class="cls-6" d="M117.4,264.9c0,1.3-1.2,2.4-2.4,2.4-1.3,0-2.4-1.2-2.3-2.5,0-1.2,1.1-2.3,2.4-2.3,1.3,0,2.4,1.1,2.4,2.4Z"/>
  <path class="cls-6" d="M7.7,5.2c1.3,0,2.4,1.1,2.4,2.3,0,1.3-1.1,2.4-2.4,2.4-1.2,0-2.3-1.1-2.4-2.3,0-1.3,1-2.4,2.3-2.5Z"/>
  <path class="cls-6" d="M95.9,264.9c0,1.3-1.2,2.4-2.5,2.3-1.3,0-2.4-1.2-2.3-2.5,0-1.2,1.2-2.3,2.4-2.3,1.3,0,2.4,1.2,2.4,2.4Z"/>
  <path class="cls-6" d="M74.5,264.9c0,1.3-1.2,2.4-2.5,2.3-1.3,0-2.4-1.3-2.3-2.5,0-1.2,1.2-2.3,2.4-2.2,1.3,0,2.4,1.2,2.3,2.4Z"/>
  <path class="cls-6" d="M50.7,262.5c1.3,0,2.4,1.2,2.3,2.5,0,1.3-1.2,2.4-2.5,2.3-1.2,0-2.3-1.2-2.3-2.4,0-1.3,1.2-2.4,2.4-2.4Z"/>
  <path class="cls-6" d="M31.6,264.8c0,1.3-1.1,2.4-2.4,2.4-1.3,0-2.4-1.1-2.4-2.4,0-1.2,1.1-2.3,2.3-2.3,1.3,0,2.4,1.1,2.4,2.3Z"/>
  <path class="cls-6" d="M10.2,264.8c0,1.3-1.1,2.4-2.4,2.4-1.3,0-2.4-1.2-2.4-2.4,0-1.2,1.1-2.3,2.3-2.3,1.3,0,2.4,1.1,2.4,2.4Z"/>
  <path class="cls-6" d="M117.4,71.8c0,1.3-1.1,2.4-2.3,2.4-1.3,0-2.4-1.1-2.4-2.4,0-1.2,1.1-2.3,2.3-2.4,1.3,0,2.4,1,2.5,2.3Z"/>
  <path class="cls-6" d="M136.5,74.3c-1.3,0-2.4-1.2-2.4-2.4,0-1.3,1.2-2.4,2.5-2.3,1.2,0,2.3,1.1,2.3,2.4,0,1.3-1.1,2.4-2.4,2.4Z"/>
  <path class="cls-6" d="M158,69.5c1.3,0,2.4,1.2,2.3,2.5,0,1.3-1.3,2.4-2.5,2.3-1.2,0-2.3-1.2-2.2-2.4,0-1.3,1.2-2.4,2.4-2.3Z"/>
  <path class="cls-6" d="M179.3,69.5c1.3,0,2.4,1.1,2.4,2.3,0,1.3-1.1,2.4-2.4,2.4-1.2,0-2.3-1.1-2.4-2.3,0-1.3,1-2.4,2.3-2.5Z"/>
  <path class="cls-6" d="M203.2,72c0,1.3-1.2,2.4-2.5,2.3-1.3,0-2.4-1.2-2.3-2.5,0-1.2,1.2-2.3,2.4-2.3,1.3,0,2.4,1.2,2.4,2.4Z"/>
  <path class="cls-6" d="M224.6,71.9c0,1.3-1.2,2.4-2.4,2.4-1.3,0-2.4-1.2-2.3-2.5,0-1.2,1.2-2.3,2.4-2.3,1.3,0,2.4,1.1,2.4,2.4Z"/>
  <path class="cls-6" d="M246.1,71.8c0,1.3-1.1,2.4-2.4,2.4-1.3,0-2.4-1.1-2.4-2.4,0-1.2,1.1-2.3,2.3-2.4,1.3,0,2.4,1.1,2.5,2.3Z"/>
  <path class="cls-6" d="M265.1,74.3c-1.3,0-2.4-1.2-2.3-2.5,0-1.3,1.2-2.4,2.5-2.3,1.2,0,2.3,1.2,2.3,2.4,0,1.3-1.2,2.4-2.4,2.4Z"/>
  <path class="cls-6" d="M31.6,71.9c0,1.3-1.1,2.4-2.4,2.4-1.3,0-2.4-1.1-2.4-2.4,0-1.2,1.1-2.3,2.3-2.4,1.3,0,2.4,1.1,2.5,2.3Z"/>
  <path class="cls-6" d="M10.2,72c0,1.3-1.3,2.4-2.5,2.3-1.3,0-2.3-1.3-2.2-2.5.1-1.2,1.2-2.2,2.4-2.2,1.3,0,2.4,1.2,2.3,2.5Z"/>
  <path class="cls-6" d="M243.7,31.4c-1.3,0-2.4-1.2-2.4-2.4,0-1.3,1.2-2.4,2.5-2.3,1.2,0,2.3,1.2,2.3,2.4,0,1.3-1.1,2.4-2.4,2.4Z"/>
  <path class="cls-6" d="M265.1,31.4c-1.3,0-2.4-1.2-2.3-2.5,0-1.3,1.2-2.4,2.5-2.3,1.2,0,2.3,1.2,2.3,2.4,0,1.3-1.2,2.4-2.4,2.4Z"/>
  <path class="cls-6" d="M265.1,133.8c1.3,0,2.4,1.1,2.4,2.4,0,1.3-1.1,2.4-2.4,2.4-1.2,0-2.3-1.1-2.4-2.3,0-1.3,1.1-2.4,2.3-2.5Z"/>
  <path class="cls-6" d="M243.7,133.8c1.3,0,2.4,1.2,2.3,2.5,0,1.3-1.2,2.4-2.5,2.3-1.2,0-2.3-1.2-2.3-2.4,0-1.3,1.2-2.4,2.4-2.4Z"/>
  <path class="cls-6" d="M222.3,138.6c-1.3,0-2.4-1.1-2.4-2.4,0-1.3,1.2-2.4,2.4-2.4,1.2,0,2.3,1.1,2.3,2.3,0,1.3-1.1,2.4-2.4,2.4Z"/>
  <path class="cls-6" d="M203.2,136.3c0,1.3-1.3,2.4-2.5,2.3-1.3,0-2.3-1.3-2.2-2.5.1-1.2,1.2-2.2,2.4-2.2,1.3,0,2.4,1.2,2.3,2.5Z"/>
  <path class="cls-6" d="M179.3,133.8c1.3,0,2.4,1.1,2.4,2.4,0,1.3-1.2,2.4-2.4,2.3-1.2,0-2.3-1.1-2.3-2.3,0-1.3,1.1-2.4,2.4-2.4Z"/>
  <path class="cls-6" d="M160.3,136.2c0,1.3-1.1,2.4-2.4,2.4-1.3,0-2.4-1.2-2.3-2.4,0-1.2,1.1-2.3,2.3-2.3,1.3,0,2.4,1.1,2.4,2.4Z"/>
  <path class="cls-6" d="M136.5,133.8c1.3,0,2.4,1.1,2.4,2.4,0,1.3-1.2,2.4-2.4,2.3-1.2,0-2.3-1.1-2.3-2.3,0-1.3,1.1-2.4,2.4-2.4Z"/>
  <path class="cls-6" d="M115,138.6c-1.3,0-2.4-1.2-2.3-2.5,0-1.3,1.2-2.4,2.5-2.3,1.2,0,2.3,1.2,2.3,2.4,0,1.3-1.2,2.4-2.4,2.4Z"/>
  <path class="cls-6" d="M93.5,138.6c-1.3,0-2.4-1.2-2.4-2.4,0-1.3,1.2-2.4,2.5-2.3,1.2,0,2.3,1.2,2.3,2.4,0,1.3-1.1,2.4-2.4,2.4Z"/>
  <path class="cls-6" d="M74.5,136.3c0,1.3-1.2,2.4-2.5,2.3-1.3,0-2.4-1.2-2.3-2.5,0-1.2,1.2-2.3,2.4-2.3,1.3,0,2.4,1.2,2.4,2.4Z"/>
  <path class="cls-6" d="M50.7,133.8c1.3,0,2.4,1.1,2.4,2.4,0,1.3-1.2,2.4-2.4,2.3-1.2,0-2.3-1.1-2.3-2.3,0-1.3,1.1-2.4,2.4-2.4Z"/>
  <path class="cls-6" d="M31.6,136.3c0,1.3-1.2,2.4-2.5,2.3-1.3,0-2.4-1.2-2.3-2.5,0-1.2,1.2-2.3,2.4-2.3,1.3,0,2.4,1.2,2.4,2.4Z"/>
  <path class="cls-6" d="M7.8,133.8c1.3,0,2.4,1.1,2.4,2.4,0,1.3-1.2,2.4-2.4,2.4-1.2,0-2.3-1.1-2.3-2.3,0-1.3,1.1-2.4,2.4-2.4Z"/>
</svg>